solid OpenSCAD_Model
  facet normal 0 0 1
    outer loop
      vertex 29.5 9.5 16
      vertex 21.5 9.5 16
      vertex 29.5 8 16
    endloop
  endfacet
  facet normal -0 0 1
    outer loop
      vertex 29.5 8 16
      vertex 34.1981 0 16
      vertex 34.1981 8 16
    endloop
  endfacet
  facet normal 0 0 1
    outer loop
      vertex 21.5 8 16
      vertex 29.5 8 16
      vertex 21.5 9.5 16
    endloop
  endfacet
  facet normal 0 0 1
    outer loop
      vertex 29.5 8 16
      vertex 21.5 8 16
      vertex 34.1981 0 16
    endloop
  endfacet
  facet normal 0 0 1
    outer loop
      vertex 16.8019 0 16
      vertex 21.5 8 16
      vertex 16.8019 8 16
    endloop
  endfacet
  facet normal 0 0 1
    outer loop
      vertex 21.5 8 16
      vertex 16.8019 0 16
      vertex 34.1981 0 16
    endloop
  endfacet
  facet normal 1 -0 0
    outer loop
      vertex 40.5 0 7
      vertex 40.5 8 0
      vertex 40.5 8 7
    endloop
  endfacet
  facet normal 1 0 0
    outer loop
      vertex 40.5 8 0
      vertex 40.5 0 7
      vertex 40.5 0 0
    endloop
  endfacet
  facet normal 0 1 0
    outer loop
      vertex 29.5 8 0
      vertex 34.1981 8 16
      vertex 40.5 8 7
    endloop
  endfacet
  facet normal 0 1 0
    outer loop
      vertex 29.5 8 0
      vertex 40.5 8 7
      vertex 40.5 8 0
    endloop
  endfacet
  facet normal 0 1 0
    outer loop
      vertex 34.1981 8 16
      vertex 29.5 8 0
      vertex 29.5 8 16
    endloop
  endfacet
  facet normal 0 1 -0
    outer loop
      vertex 21.5 8 0
      vertex 16.8019 8 16
      vertex 21.5 8 16
    endloop
  endfacet
  facet normal 0 1 0
    outer loop
      vertex 16.8019 8 16
      vertex 21.5 8 0
      vertex 10.5 8 7
    endloop
  endfacet
  facet normal 0 1 0
    outer loop
      vertex 5.48298 8 0
      vertex 10.5 8 7
      vertex 21.5 8 0
    endloop
  endfacet
  facet normal 0 1 0
    outer loop
      vertex 10.5 8 7
      vertex 5.48298 8 0
      vertex 5.48298 8 7
    endloop
  endfacet
  facet normal 0 0 -1
    outer loop
      vertex 40.5 0 0
      vertex 29.5 8 0
      vertex 40.5 8 0
    endloop
  endfacet
  facet normal 0 0 -1
    outer loop
      vertex 29.5 8 0
      vertex 21.5 8 0
      vertex 29.5 9.5 0
    endloop
  endfacet
  facet normal 0 0 -1
    outer loop
      vertex 40.5 0 0
      vertex 21.5 8 0
      vertex 29.5 8 0
    endloop
  endfacet
  facet normal 0 0 -1
    outer loop
      vertex 5.9213 0 0
      vertex 21.5 8 0
      vertex 40.5 0 0
    endloop
  endfacet
  facet normal 0 0 -1
    outer loop
      vertex 5.9213 0 0
      vertex 5.48298 8 0
      vertex 21.5 8 0
    endloop
  endfacet
  facet normal 0 0 -1
    outer loop
      vertex 1.13137 2.56863 0
      vertex 5.9213 0 0
      vertex 5.82029 -0.188992 0
    endloop
  endfacet
  facet normal 0 0 -1
    outer loop
      vertex 1.13137 2.56863 0
      vertex 5.82029 -0.188992 0
      vertex 4.94975 -1.24975 0
    endloop
  endfacet
  facet normal 0 0 -1
    outer loop
      vertex 5.9213 0 0
      vertex 1.6 3.7 0
      vertex 5.48298 8 0
    endloop
  endfacet
  facet normal 0 0 -1
    outer loop
      vertex 1.13137 2.56863 0
      vertex 4.94975 -1.24975 0
      vertex 3.88899 -2.12029 0
    endloop
  endfacet
  facet normal 0 0 -1
    outer loop
      vertex 1.47821 4.31229 0
      vertex 5.48298 8 0
      vertex 1.6 3.7 0
    endloop
  endfacet
  facet normal 0 0 -1
    outer loop
      vertex 0.612293 2.22179 0
      vertex 3.88899 -2.12029 0
      vertex 2.67878 -2.76716 0
    endloop
  endfacet
  facet normal 0 0 -1
    outer loop
      vertex 1.13137 4.83137 0
      vertex 5.48298 8 0
      vertex 1.47821 4.31229 0
    endloop
  endfacet
  facet normal -0 0 -1
    outer loop
      vertex 5.48298 8 0
      vertex 1.13137 4.83137 0
      vertex 4.94975 8.64975 0
    endloop
  endfacet
  facet normal 0 0 -1
    outer loop
      vertex 5.9213 0 0
      vertex 1.47821 3.08771 0
      vertex 1.6 3.7 0
    endloop
  endfacet
  facet normal 0 0 -1
    outer loop
      vertex 0.612293 2.22179 0
      vertex 2.67878 -2.76716 0
      vertex 1.36563 -3.1655 0
    endloop
  endfacet
  facet normal 0 0 -1
    outer loop
      vertex 5.9213 0 0
      vertex 1.13137 2.56863 0
      vertex 1.47821 3.08771 0
    endloop
  endfacet
  facet normal 0 0 -1
    outer loop
      vertex 3.88899 -2.12029 0
      vertex 0.612293 2.22179 0
      vertex 1.13137 2.56863 0
    endloop
  endfacet
  facet normal 0 0 -1
    outer loop
      vertex 0 2.1 0
      vertex 1.36563 -3.1655 0
      vertex 0 -3.3 0
    endloop
  endfacet
  facet normal 0 0 -1
    outer loop
      vertex 1.36563 -3.1655 0
      vertex 0 2.1 0
      vertex 0.612293 2.22179 0
    endloop
  endfacet
  facet normal 0 0 -1
    outer loop
      vertex -1.36563 -3.1655 0
      vertex 0 2.1 0
      vertex 0 -3.3 0
    endloop
  endfacet
  facet normal -0 0 -1
    outer loop
      vertex 0 2.1 0
      vertex -1.36563 -3.1655 0
      vertex -0.612293 2.22179 0
    endloop
  endfacet
  facet normal 0 0 -1
    outer loop
      vertex -2.67878 -2.76716 0
      vertex -0.612293 2.22179 0
      vertex -1.36563 -3.1655 0
    endloop
  endfacet
  facet normal 0 0 -1
    outer loop
      vertex -3.88899 -2.12029 0
      vertex -0.612293 2.22179 0
      vertex -2.67878 -2.76716 0
    endloop
  endfacet
  facet normal -0 0 -1
    outer loop
      vertex -0.612293 2.22179 0
      vertex -3.88899 -2.12029 0
      vertex -1.13137 2.56863 0
    endloop
  endfacet
  facet normal 0 0 -1
    outer loop
      vertex -4.94975 -1.24975 0
      vertex -1.13137 2.56863 0
      vertex -3.88899 -2.12029 0
    endloop
  endfacet
  facet normal -0 0 -1
    outer loop
      vertex 29.5 9.5 0
      vertex 21.5 8 0
      vertex 21.5 9.5 0
    endloop
  endfacet
  facet normal -0 0 -1
    outer loop
      vertex 4.94975 8.64975 0
      vertex 1.13137 4.83137 0
      vertex 3.88899 9.52029 0
    endloop
  endfacet
  facet normal 0 0 -1
    outer loop
      vertex 0.612293 5.17821 0
      vertex 3.88899 9.52029 0
      vertex 1.13137 4.83137 0
    endloop
  endfacet
  facet normal -0 0 -1
    outer loop
      vertex 3.88899 9.52029 0
      vertex 0.612293 5.17821 0
      vertex 2.67878 10.1672 0
    endloop
  endfacet
  facet normal -0 0 -1
    outer loop
      vertex 2.67878 10.1672 0
      vertex 0.612293 5.17821 0
      vertex 1.36563 10.5655 0
    endloop
  endfacet
  facet normal 0 0 -1
    outer loop
      vertex 0 5.3 0
      vertex 1.36563 10.5655 0
      vertex 0.612293 5.17821 0
    endloop
  endfacet
  facet normal 0 0 -1
    outer loop
      vertex 0 5.3 0
      vertex 0 10.7 0
      vertex 1.36563 10.5655 0
    endloop
  endfacet
  facet normal 0 0 -1
    outer loop
      vertex -1.36563 10.5655 0
      vertex 0 5.3 0
      vertex -0.612293 5.17821 0
    endloop
  endfacet
  facet normal 0 0 -1
    outer loop
      vertex -3.88899 9.52029 0
      vertex -0.612293 5.17821 0
      vertex -1.13137 4.83137 0
    endloop
  endfacet
  facet normal 0 0 -1
    outer loop
      vertex 0 5.3 0
      vertex -1.36563 10.5655 0
      vertex 0 10.7 0
    endloop
  endfacet
  facet normal 0 0 -1
    outer loop
      vertex -5.82029 7.58899 0
      vertex -1.13137 4.83137 0
      vertex -1.47821 4.31229 0
    endloop
  endfacet
  facet normal 0 0 -1
    outer loop
      vertex -6.8655 5.06563 0
      vertex -1.47821 4.31229 0
      vertex -1.6 3.7 0
    endloop
  endfacet
  facet normal 0 0 -1
    outer loop
      vertex -5.82029 -0.188992 0
      vertex -1.13137 2.56863 0
      vertex -4.94975 -1.24975 0
    endloop
  endfacet
  facet normal 0 0 -1
    outer loop
      vertex -0.612293 5.17821 0
      vertex -2.67878 10.1672 0
      vertex -1.36563 10.5655 0
    endloop
  endfacet
  facet normal -0 0 -1
    outer loop
      vertex -1.13137 2.56863 0
      vertex -5.82029 -0.188992 0
      vertex -1.47821 3.08771 0
    endloop
  endfacet
  facet normal 0 0 -1
    outer loop
      vertex -0.612293 5.17821 0
      vertex -3.88899 9.52029 0
      vertex -2.67878 10.1672 0
    endloop
  endfacet
  facet normal 0 0 -1
    outer loop
      vertex -6.46716 1.02122 0
      vertex -1.47821 3.08771 0
      vertex -5.82029 -0.188992 0
    endloop
  endfacet
  facet normal 0 0 -1
    outer loop
      vertex -1.13137 4.83137 0
      vertex -4.94975 8.64975 0
      vertex -3.88899 9.52029 0
    endloop
  endfacet
  facet normal 0 0 -1
    outer loop
      vertex -6.8655 2.33437 0
      vertex -1.47821 3.08771 0
      vertex -6.46716 1.02122 0
    endloop
  endfacet
  facet normal 0 0 -1
    outer loop
      vertex -1.13137 4.83137 0
      vertex -5.82029 7.58899 0
      vertex -4.94975 8.64975 0
    endloop
  endfacet
  facet normal -0 0 -1
    outer loop
      vertex -1.47821 3.08771 0
      vertex -6.8655 2.33437 0
      vertex -1.6 3.7 0
    endloop
  endfacet
  facet normal 0 0 -1
    outer loop
      vertex -1.47821 4.31229 0
      vertex -6.46716 6.37878 0
      vertex -5.82029 7.58899 0
    endloop
  endfacet
  facet normal 0 0 -1
    outer loop
      vertex -7 3.7 0
      vertex -1.6 3.7 0
      vertex -6.8655 2.33437 0
    endloop
  endfacet
  facet normal 0 0 -1
    outer loop
      vertex -1.47821 4.31229 0
      vertex -6.8655 5.06563 0
      vertex -6.46716 6.37878 0
    endloop
  endfacet
  facet normal 0 0 -1
    outer loop
      vertex -1.6 3.7 0
      vertex -7 3.7 0
      vertex -6.8655 5.06563 0
    endloop
  endfacet
  facet normal 0 -1 0
    outer loop
      vertex 5.9213 0 0
      vertex 10.5 0 7
      vertex 5.9213 0 7
    endloop
  endfacet
  facet normal 0 -1 0
    outer loop
      vertex 10.5 0 7
      vertex 20.2014 0 5.44093
      vertex 19.8267 0 6.59411
    endloop
  endfacet
  facet normal -0 -1 0
    outer loop
      vertex 20.8077 0 4.39085
      vertex 10.5 0 7
      vertex 5.9213 0 0
    endloop
  endfacet
  facet normal 0 -1 0
    outer loop
      vertex 10.5 0 7
      vertex 20.8077 0 4.39085
      vertex 20.2014 0 5.44093
    endloop
  endfacet
  facet normal 0 -1 -0
    outer loop
      vertex 20.8077 0 4.39085
      vertex 5.9213 0 0
      vertex 21.619 0 3.48976
    endloop
  endfacet
  facet normal 0 -1 -0
    outer loop
      vertex 21.619 0 3.48976
      vertex 5.9213 0 0
      vertex 22.6 0 2.77705
    endloop
  endfacet
  facet normal 0 -1 0
    outer loop
      vertex 40.5 0 0
      vertex 24.8937 0 2.03177
      vertex 5.9213 0 0
    endloop
  endfacet
  facet normal 0 -1 -0
    outer loop
      vertex 23.7077 0 2.28387
      vertex 5.9213 0 0
      vertex 24.8937 0 2.03177
    endloop
  endfacet
  facet normal 0 -1 -0
    outer loop
      vertex 22.6 0 2.77705
      vertex 5.9213 0 0
      vertex 23.7077 0 2.28387
    endloop
  endfacet
  facet normal 0 -1 0
    outer loop
      vertex 16.8019 0 16
      vertex 24.8937 0 13.5682
      vertex 34.1981 0 16
    endloop
  endfacet
  facet normal 0 -1 0
    outer loop
      vertex 16.8019 0 16
      vertex 23.7077 0 13.3161
      vertex 24.8937 0 13.5682
    endloop
  endfacet
  facet normal 0 -1 0
    outer loop
      vertex 16.8019 0 16
      vertex 22.6 0 12.8229
      vertex 23.7077 0 13.3161
    endloop
  endfacet
  facet normal 0 -1 0
    outer loop
      vertex 16.8019 0 16
      vertex 21.619 0 12.1102
      vertex 22.6 0 12.8229
    endloop
  endfacet
  facet normal 0 -1 0
    outer loop
      vertex 16.8019 0 16
      vertex 20.8077 0 11.2092
      vertex 21.619 0 12.1102
    endloop
  endfacet
  facet normal 0 -1 0
    outer loop
      vertex 16.8019 0 16
      vertex 20.2014 0 10.1591
      vertex 20.8077 0 11.2092
    endloop
  endfacet
  facet normal 0 -1 0
    outer loop
      vertex 16.8019 0 16
      vertex 19.8267 0 9.00589
      vertex 20.2014 0 10.1591
    endloop
  endfacet
  facet normal 0 -1 0
    outer loop
      vertex 10.5 0 7
      vertex 19.8267 0 9.00589
      vertex 16.8019 0 16
    endloop
  endfacet
  facet normal 0 -1 0
    outer loop
      vertex 19.8267 0 9.00589
      vertex 10.5 0 7
      vertex 19.7 0 7.8
    endloop
  endfacet
  facet normal 0 -1 -0
    outer loop
      vertex 19.7 0 7.8
      vertex 10.5 0 7
      vertex 19.8267 0 6.59411
    endloop
  endfacet
  facet normal 0 -1 0
    outer loop
      vertex 26.1063 0 13.5682
      vertex 34.1981 0 16
      vertex 24.8937 0 13.5682
    endloop
  endfacet
  facet normal 0 -1 0
    outer loop
      vertex 27.2923 0 13.3161
      vertex 34.1981 0 16
      vertex 26.1063 0 13.5682
    endloop
  endfacet
  facet normal 0 -1 0
    outer loop
      vertex 28.4 0 12.8229
      vertex 34.1981 0 16
      vertex 27.2923 0 13.3161
    endloop
  endfacet
  facet normal 0 -1 0
    outer loop
      vertex 29.381 0 12.1102
      vertex 34.1981 0 16
      vertex 28.4 0 12.8229
    endloop
  endfacet
  facet normal 0 -1 0
    outer loop
      vertex 30.1923 0 11.2092
      vertex 34.1981 0 16
      vertex 29.381 0 12.1102
    endloop
  endfacet
  facet normal 0 -1 0
    outer loop
      vertex 30.7986 0 10.1591
      vertex 34.1981 0 16
      vertex 30.1923 0 11.2092
    endloop
  endfacet
  facet normal 0 -1 0
    outer loop
      vertex 31.1733 0 9.00589
      vertex 34.1981 0 16
      vertex 30.7986 0 10.1591
    endloop
  endfacet
  facet normal 0 -1 0
    outer loop
      vertex 40.5 0 7
      vertex 31.1733 0 9.00589
      vertex 31.3 0 7.8
    endloop
  endfacet
  facet normal 0 -1 0
    outer loop
      vertex 31.1733 0 9.00589
      vertex 40.5 0 7
      vertex 34.1981 0 16
    endloop
  endfacet
  facet normal 0 -1 0
    outer loop
      vertex 31.1733 0 6.59411
      vertex 40.5 0 7
      vertex 31.3 0 7.8
    endloop
  endfacet
  facet normal 0 -1 0
    outer loop
      vertex 30.7986 0 5.44093
      vertex 40.5 0 7
      vertex 31.1733 0 6.59411
    endloop
  endfacet
  facet normal 0 -1 0
    outer loop
      vertex 40.5 0 0
      vertex 30.7986 0 5.44093
      vertex 30.1923 0 4.39085
    endloop
  endfacet
  facet normal 0 -1 0
    outer loop
      vertex 40.5 0 0
      vertex 30.1923 0 4.39085
      vertex 29.381 0 3.48976
    endloop
  endfacet
  facet normal 0 -1 0
    outer loop
      vertex 40.5 0 0
      vertex 29.381 0 3.48976
      vertex 28.4 0 2.77705
    endloop
  endfacet
  facet normal 0 -1 0
    outer loop
      vertex 40.5 0 0
      vertex 28.4 0 2.77705
      vertex 27.2923 0 2.28387
    endloop
  endfacet
  facet normal 0 -1 0
    outer loop
      vertex 30.7986 0 5.44093
      vertex 40.5 0 0
      vertex 40.5 0 7
    endloop
  endfacet
  facet normal 0 -1 0
    outer loop
      vertex 26.1063 0 2.03177
      vertex 40.5 0 0
      vertex 27.2923 0 2.28387
    endloop
  endfacet
  facet normal 0 -1 0
    outer loop
      vertex 24.8937 0 2.03177
      vertex 40.5 0 0
      vertex 26.1063 0 2.03177
    endloop
  endfacet
  facet normal -1 0 0
    outer loop
      vertex 21.5 8 0
      vertex 21.5 9.5 16
      vertex 21.5 9.5 0
    endloop
  endfacet
  facet normal -1 -0 0
    outer loop
      vertex 21.5 9.5 16
      vertex 21.5 8 0
      vertex 21.5 8 16
    endloop
  endfacet
  facet normal 1 -0 0
    outer loop
      vertex 29.5 8 16
      vertex 29.5 9.5 0
      vertex 29.5 9.5 16
    endloop
  endfacet
  facet normal 1 0 0
    outer loop
      vertex 29.5 9.5 0
      vertex 29.5 8 16
      vertex 29.5 8 0
    endloop
  endfacet
  facet normal 0 1 0
    outer loop
      vertex 29.5 9.5 16
      vertex 25.8293 9.5 10.9327
      vertex 21.5 9.5 16
    endloop
  endfacet
  facet normal 0 1 0
    outer loop
      vertex 29.5 9.5 16
      vertex 26.4734 9.5 10.7958
      vertex 25.8293 9.5 10.9327
    endloop
  endfacet
  facet normal 0 1 0
    outer loop
      vertex 29.5 9.5 16
      vertex 27.075 9.5 10.528
      vertex 26.4734 9.5 10.7958
    endloop
  endfacet
  facet normal 0 1 0
    outer loop
      vertex 29.5 9.5 16
      vertex 27.6078 9.5 10.1409
      vertex 27.075 9.5 10.528
    endloop
  endfacet
  facet normal 0 1 0
    outer loop
      vertex 29.5 9.5 16
      vertex 28.0484 9.5 9.65152
      vertex 27.6078 9.5 10.1409
    endloop
  endfacet
  facet normal 0 1 0
    outer loop
      vertex 29.5 9.5 16
      vertex 28.3777 9.5 9.08122
      vertex 28.0484 9.5 9.65152
    endloop
  endfacet
  facet normal 0 1 0
    outer loop
      vertex 29.5 9.5 16
      vertex 28.5812 9.5 8.45492
      vertex 28.3777 9.5 9.08122
    endloop
  endfacet
  facet normal 0 1 0
    outer loop
      vertex 29.5 9.5 16
      vertex 28.65 9.5 7.8
      vertex 28.5812 9.5 8.45492
    endloop
  endfacet
  facet normal 0 1 0
    outer loop
      vertex 25.8293 9.5 4.66726
      vertex 29.5 9.5 0
      vertex 25.1707 9.5 4.66726
    endloop
  endfacet
  facet normal 0 1 0
    outer loop
      vertex 26.4734 9.5 4.80417
      vertex 29.5 9.5 0
      vertex 25.8293 9.5 4.66726
    endloop
  endfacet
  facet normal 0 1 0
    outer loop
      vertex 27.075 9.5 5.07202
      vertex 29.5 9.5 0
      vertex 26.4734 9.5 4.80417
    endloop
  endfacet
  facet normal 0 1 0
    outer loop
      vertex 27.6078 9.5 5.45909
      vertex 29.5 9.5 0
      vertex 27.075 9.5 5.07202
    endloop
  endfacet
  facet normal 0 1 0
    outer loop
      vertex 28.0484 9.5 5.94848
      vertex 29.5 9.5 0
      vertex 27.6078 9.5 5.45909
    endloop
  endfacet
  facet normal 0 1 0
    outer loop
      vertex 28.3777 9.5 6.51878
      vertex 29.5 9.5 0
      vertex 28.0484 9.5 5.94848
    endloop
  endfacet
  facet normal 0 1 0
    outer loop
      vertex 28.5812 9.5 7.14508
      vertex 29.5 9.5 0
      vertex 28.3777 9.5 6.51878
    endloop
  endfacet
  facet normal 0 1 0
    outer loop
      vertex 28.65 9.5 7.8
      vertex 29.5 9.5 0
      vertex 28.5812 9.5 7.14508
    endloop
  endfacet
  facet normal 0 1 -0
    outer loop
      vertex 29.5 9.5 0
      vertex 28.65 9.5 7.8
      vertex 29.5 9.5 16
    endloop
  endfacet
  facet normal 0 1 -0
    outer loop
      vertex 25.1707 9.5 10.9327
      vertex 21.5 9.5 16
      vertex 25.8293 9.5 10.9327
    endloop
  endfacet
  facet normal 0 1 -0
    outer loop
      vertex 24.5266 9.5 10.7958
      vertex 21.5 9.5 16
      vertex 25.1707 9.5 10.9327
    endloop
  endfacet
  facet normal 0 1 -0
    outer loop
      vertex 23.925 9.5 10.528
      vertex 21.5 9.5 16
      vertex 24.5266 9.5 10.7958
    endloop
  endfacet
  facet normal 0 1 -0
    outer loop
      vertex 23.3922 9.5 10.1409
      vertex 21.5 9.5 16
      vertex 23.925 9.5 10.528
    endloop
  endfacet
  facet normal 0 1 -0
    outer loop
      vertex 22.9516 9.5 9.65152
      vertex 21.5 9.5 16
      vertex 23.3922 9.5 10.1409
    endloop
  endfacet
  facet normal 0 1 -0
    outer loop
      vertex 22.6223 9.5 9.08122
      vertex 21.5 9.5 16
      vertex 22.9516 9.5 9.65152
    endloop
  endfacet
  facet normal 0 1 -0
    outer loop
      vertex 22.4188 9.5 8.45492
      vertex 21.5 9.5 16
      vertex 22.6223 9.5 9.08122
    endloop
  endfacet
  facet normal 0 1 -0
    outer loop
      vertex 22.35 9.5 7.8
      vertex 21.5 9.5 16
      vertex 22.4188 9.5 8.45492
    endloop
  endfacet
  facet normal 0 1 0
    outer loop
      vertex 21.5 9.5 0
      vertex 25.1707 9.5 4.66726
      vertex 29.5 9.5 0
    endloop
  endfacet
  facet normal 0 1 0
    outer loop
      vertex 25.1707 9.5 4.66726
      vertex 21.5 9.5 0
      vertex 24.5266 9.5 4.80417
    endloop
  endfacet
  facet normal 0 1 0
    outer loop
      vertex 24.5266 9.5 4.80417
      vertex 21.5 9.5 0
      vertex 23.925 9.5 5.07202
    endloop
  endfacet
  facet normal 0 1 0
    outer loop
      vertex 22.35 9.5 7.8
      vertex 21.5 9.5 0
      vertex 21.5 9.5 16
    endloop
  endfacet
  facet normal 0 1 0
    outer loop
      vertex 22.4188 9.5 7.14508
      vertex 21.5 9.5 0
      vertex 22.35 9.5 7.8
    endloop
  endfacet
  facet normal 0 1 0
    outer loop
      vertex 22.6223 9.5 6.51878
      vertex 21.5 9.5 0
      vertex 22.4188 9.5 7.14508
    endloop
  endfacet
  facet normal 0 1 0
    outer loop
      vertex 22.9516 9.5 5.94848
      vertex 21.5 9.5 0
      vertex 22.6223 9.5 6.51878
    endloop
  endfacet
  facet normal 0 1 0
    outer loop
      vertex 23.3922 9.5 5.45909
      vertex 21.5 9.5 0
      vertex 22.9516 9.5 5.94848
    endloop
  endfacet
  facet normal 0 1 0
    outer loop
      vertex 23.925 9.5 5.07202
      vertex 21.5 9.5 0
      vertex 23.3922 9.5 5.45909
    endloop
  endfacet
  facet normal 0 0 1
    outer loop
      vertex 10.5 8 7
      vertex 5.9213 0 7
      vertex 10.5 0 7
    endloop
  endfacet
  facet normal -0 0 1
    outer loop
      vertex 5.48298 8 7
      vertex 5.9213 0 7
      vertex 10.5 8 7
    endloop
  endfacet
  facet normal -0 0 1
    outer loop
      vertex 3.3 3.7 7
      vertex 5.9213 0 7
      vertex 5.48298 8 7
    endloop
  endfacet
  facet normal 0 0 1
    outer loop
      vertex 1.65 6.55788 7
      vertex 5.48298 8 7
      vertex 4.94975 8.64975 7
    endloop
  endfacet
  facet normal -0 0 1
    outer loop
      vertex 1.65 0.842115 7
      vertex 5.9213 0 7
      vertex 3.3 3.7 7
    endloop
  endfacet
  facet normal 0 0 1
    outer loop
      vertex 1.65 6.55788 7
      vertex 4.94975 8.64975 7
      vertex 3.88899 9.52029 7
    endloop
  endfacet
  facet normal 0 0 1
    outer loop
      vertex 5.9213 0 7
      vertex 1.65 0.842115 7
      vertex 5.82029 -0.188992 7
    endloop
  endfacet
  facet normal 0 0 1
    outer loop
      vertex 5.82029 -0.188992 7
      vertex 1.65 0.842115 7
      vertex 4.94975 -1.24975 7
    endloop
  endfacet
  facet normal 0 0 1
    outer loop
      vertex 1.65 6.55788 7
      vertex 3.88899 9.52029 7
      vertex 2.67878 10.1672 7
    endloop
  endfacet
  facet normal 0 0 1
    outer loop
      vertex 5.48298 8 7
      vertex 1.65 6.55788 7
      vertex 3.3 3.7 7
    endloop
  endfacet
  facet normal 0 0 1
    outer loop
      vertex 1.36563 10.5655 7
      vertex 1.65 6.55788 7
      vertex 2.67878 10.1672 7
    endloop
  endfacet
  facet normal 0 0 1
    outer loop
      vertex 0 10.7 7
      vertex 1.65 6.55788 7
      vertex 1.36563 10.5655 7
    endloop
  endfacet
  facet normal 0 0 1
    outer loop
      vertex -1.65 6.55788 7
      vertex 0 10.7 7
      vertex -1.36563 10.5655 7
    endloop
  endfacet
  facet normal 0 0 1
    outer loop
      vertex 0 10.7 7
      vertex -1.65 6.55788 7
      vertex 1.65 6.55788 7
    endloop
  endfacet
  facet normal -0 0 1
    outer loop
      vertex -2.67878 10.1672 7
      vertex -1.65 6.55788 7
      vertex -1.36563 10.5655 7
    endloop
  endfacet
  facet normal -0 0 1
    outer loop
      vertex -3.88899 9.52029 7
      vertex -1.65 6.55788 7
      vertex -2.67878 10.1672 7
    endloop
  endfacet
  facet normal -0 0 1
    outer loop
      vertex -4.94975 8.64975 7
      vertex -1.65 6.55788 7
      vertex -3.88899 9.52029 7
    endloop
  endfacet
  facet normal 0 0 1
    outer loop
      vertex 4.94975 -1.24975 7
      vertex 1.65 0.842115 7
      vertex 3.88899 -2.12029 7
    endloop
  endfacet
  facet normal 0 0 1
    outer loop
      vertex 3.88899 -2.12029 7
      vertex 1.65 0.842115 7
      vertex 2.67878 -2.76716 7
    endloop
  endfacet
  facet normal 0 0 1
    outer loop
      vertex 1.65 0.842115 7
      vertex 1.36563 -3.1655 7
      vertex 2.67878 -2.76716 7
    endloop
  endfacet
  facet normal 0 0 1
    outer loop
      vertex 1.65 0.842115 7
      vertex 0 -3.3 7
      vertex 1.36563 -3.1655 7
    endloop
  endfacet
  facet normal -0 0 1
    outer loop
      vertex -1.65 0.842115 7
      vertex 0 -3.3 7
      vertex 1.65 0.842115 7
    endloop
  endfacet
  facet normal 0 0 1
    outer loop
      vertex 0 -3.3 7
      vertex -1.65 0.842115 7
      vertex -1.36563 -3.1655 7
    endloop
  endfacet
  facet normal 0 0 1
    outer loop
      vertex -1.65 0.842115 7
      vertex -2.67878 -2.76716 7
      vertex -1.36563 -3.1655 7
    endloop
  endfacet
  facet normal 0 0 1
    outer loop
      vertex -5.82029 -0.188992 7
      vertex -1.65 0.842115 7
      vertex -3.3 3.7 7
    endloop
  endfacet
  facet normal -0 0 1
    outer loop
      vertex -5.82029 7.58899 7
      vertex -1.65 6.55788 7
      vertex -4.94975 8.64975 7
    endloop
  endfacet
  facet normal 0 0 1
    outer loop
      vertex -1.65 0.842115 7
      vertex -3.88899 -2.12029 7
      vertex -2.67878 -2.76716 7
    endloop
  endfacet
  facet normal 0 0 1
    outer loop
      vertex -1.65 6.55788 7
      vertex -5.82029 7.58899 7
      vertex -3.3 3.7 7
    endloop
  endfacet
  facet normal 0 0 1
    outer loop
      vertex -1.65 0.842115 7
      vertex -4.94975 -1.24975 7
      vertex -3.88899 -2.12029 7
    endloop
  endfacet
  facet normal -0 0 1
    outer loop
      vertex -6.46716 6.37878 7
      vertex -3.3 3.7 7
      vertex -5.82029 7.58899 7
    endloop
  endfacet
  facet normal 0 0 1
    outer loop
      vertex -1.65 0.842115 7
      vertex -5.82029 -0.188992 7
      vertex -4.94975 -1.24975 7
    endloop
  endfacet
  facet normal -0 0 1
    outer loop
      vertex -6.8655 5.06563 7
      vertex -3.3 3.7 7
      vertex -6.46716 6.37878 7
    endloop
  endfacet
  facet normal 0 0 1
    outer loop
      vertex -3.3 3.7 7
      vertex -6.46716 1.02122 7
      vertex -5.82029 -0.188992 7
    endloop
  endfacet
  facet normal 0 0 1
    outer loop
      vertex -7 3.7 7
      vertex -3.3 3.7 7
      vertex -6.8655 5.06563 7
    endloop
  endfacet
  facet normal 0 0 1
    outer loop
      vertex -3.3 3.7 7
      vertex -6.8655 2.33437 7
      vertex -6.46716 1.02122 7
    endloop
  endfacet
  facet normal 0 0 1
    outer loop
      vertex -3.3 3.7 7
      vertex -7 3.7 7
      vertex -6.8655 2.33437 7
    endloop
  endfacet
  facet normal -0.0980174 0.995185 0
    outer loop
      vertex 0 10.7 0
      vertex -1.36563 10.5655 7
      vertex 0 10.7 7
    endloop
  endfacet
  facet normal -0.0980174 0.995185 0
    outer loop
      vertex -1.36563 10.5655 7
      vertex 0 10.7 0
      vertex -1.36563 10.5655 0
    endloop
  endfacet
  facet normal -0.634393 -0.77301 0
    outer loop
      vertex -4.94975 -1.24975 0
      vertex -3.88899 -2.12029 7
      vertex -4.94975 -1.24975 7
    endloop
  endfacet
  facet normal -0.634393 -0.77301 -0
    outer loop
      vertex -3.88899 -2.12029 7
      vertex -4.94975 -1.24975 0
      vertex -3.88899 -2.12029 0
    endloop
  endfacet
  facet normal 0.634393 0.77301 -0
    outer loop
      vertex 4.94975 8.64975 0
      vertex 3.88899 9.52029 7
      vertex 4.94975 8.64975 7
    endloop
  endfacet
  facet normal 0.634393 0.77301 0
    outer loop
      vertex 3.88899 9.52029 7
      vertex 4.94975 8.64975 0
      vertex 3.88899 9.52029 0
    endloop
  endfacet
  facet normal -0.77301 0.634393 0
    outer loop
      vertex -5.82029 7.58899 0
      vertex -4.94975 8.64975 7
      vertex -4.94975 8.64975 0
    endloop
  endfacet
  facet normal -0.77301 0.634393 0
    outer loop
      vertex -4.94975 8.64975 7
      vertex -5.82029 7.58899 0
      vertex -5.82029 7.58899 7
    endloop
  endfacet
  facet normal -0.471397 0.881921 0
    outer loop
      vertex -2.67878 10.1672 0
      vertex -3.88899 9.52029 7
      vertex -2.67878 10.1672 7
    endloop
  endfacet
  facet normal -0.471397 0.881921 0
    outer loop
      vertex -3.88899 9.52029 7
      vertex -2.67878 10.1672 0
      vertex -3.88899 9.52029 0
    endloop
  endfacet
  facet normal 0.77301 -0.634393 0
    outer loop
      vertex 4.94975 -1.24975 7
      vertex 5.82029 -0.188992 0
      vertex 5.82029 -0.188992 7
    endloop
  endfacet
  facet normal 0.77301 -0.634393 0
    outer loop
      vertex 5.82029 -0.188992 0
      vertex 4.94975 -1.24975 7
      vertex 4.94975 -1.24975 0
    endloop
  endfacet
  facet normal 0.77301 0.634393 0
    outer loop
      vertex 5.48298 8 7
      vertex 4.94975 8.64975 0
      vertex 4.94975 8.64975 7
    endloop
  endfacet
  facet normal 0.77301 0.634393 0
    outer loop
      vertex 4.94975 8.64975 0
      vertex 5.48298 8 7
      vertex 5.48298 8 0
    endloop
  endfacet
  facet normal 0.290285 0.95694 -0
    outer loop
      vertex 2.67878 10.1672 0
      vertex 1.36563 10.5655 7
      vertex 2.67878 10.1672 7
    endloop
  endfacet
  facet normal 0.290285 0.95694 0
    outer loop
      vertex 1.36563 10.5655 7
      vertex 2.67878 10.1672 0
      vertex 1.36563 10.5655 0
    endloop
  endfacet
  facet normal 0.0980174 0.995185 -0
    outer loop
      vertex 1.36563 10.5655 0
      vertex 0 10.7 7
      vertex 1.36563 10.5655 7
    endloop
  endfacet
  facet normal 0.0980174 0.995185 0
    outer loop
      vertex 0 10.7 7
      vertex 1.36563 10.5655 0
      vertex 0 10.7 0
    endloop
  endfacet
  facet normal 0.471397 0.881921 -0
    outer loop
      vertex 3.88899 9.52029 0
      vertex 2.67878 10.1672 7
      vertex 3.88899 9.52029 7
    endloop
  endfacet
  facet normal 0.471397 0.881921 0
    outer loop
      vertex 2.67878 10.1672 7
      vertex 3.88899 9.52029 0
      vertex 2.67878 10.1672 0
    endloop
  endfacet
  facet normal -0.95694 0.290285 0
    outer loop
      vertex -6.8655 5.06563 0
      vertex -6.46716 6.37878 7
      vertex -6.46716 6.37878 0
    endloop
  endfacet
  facet normal -0.95694 0.290285 0
    outer loop
      vertex -6.46716 6.37878 7
      vertex -6.8655 5.06563 0
      vertex -6.8655 5.06563 7
    endloop
  endfacet
  facet normal -0.881921 0.471397 0
    outer loop
      vertex -6.46716 6.37878 0
      vertex -5.82029 7.58899 7
      vertex -5.82029 7.58899 0
    endloop
  endfacet
  facet normal -0.881921 0.471397 0
    outer loop
      vertex -5.82029 7.58899 7
      vertex -6.46716 6.37878 0
      vertex -6.46716 6.37878 7
    endloop
  endfacet
  facet normal -0.995185 0.0980174 0
    outer loop
      vertex -7 3.7 0
      vertex -6.8655 5.06563 7
      vertex -6.8655 5.06563 0
    endloop
  endfacet
  facet normal -0.995185 0.0980174 0
    outer loop
      vertex -6.8655 5.06563 7
      vertex -7 3.7 0
      vertex -7 3.7 7
    endloop
  endfacet
  facet normal -0.634393 0.77301 0
    outer loop
      vertex -3.88899 9.52029 0
      vertex -4.94975 8.64975 7
      vertex -3.88899 9.52029 7
    endloop
  endfacet
  facet normal -0.634393 0.77301 0
    outer loop
      vertex -4.94975 8.64975 7
      vertex -3.88899 9.52029 0
      vertex -4.94975 8.64975 0
    endloop
  endfacet
  facet normal -0.290285 0.95694 0
    outer loop
      vertex -1.36563 10.5655 0
      vertex -2.67878 10.1672 7
      vertex -1.36563 10.5655 7
    endloop
  endfacet
  facet normal -0.290285 0.95694 0
    outer loop
      vertex -2.67878 10.1672 7
      vertex -1.36563 10.5655 0
      vertex -2.67878 10.1672 0
    endloop
  endfacet
  facet normal 0.290285 -0.95694 0
    outer loop
      vertex 1.36563 -3.1655 0
      vertex 2.67878 -2.76716 7
      vertex 1.36563 -3.1655 7
    endloop
  endfacet
  facet normal 0.290285 -0.95694 0
    outer loop
      vertex 2.67878 -2.76716 7
      vertex 1.36563 -3.1655 0
      vertex 2.67878 -2.76716 0
    endloop
  endfacet
  facet normal 0.634393 -0.77301 0
    outer loop
      vertex 3.88899 -2.12029 0
      vertex 4.94975 -1.24975 7
      vertex 3.88899 -2.12029 7
    endloop
  endfacet
  facet normal 0.634393 -0.77301 0
    outer loop
      vertex 4.94975 -1.24975 7
      vertex 3.88899 -2.12029 0
      vertex 4.94975 -1.24975 0
    endloop
  endfacet
  facet normal -0.471397 -0.881921 0
    outer loop
      vertex -3.88899 -2.12029 0
      vertex -2.67878 -2.76716 7
      vertex -3.88899 -2.12029 7
    endloop
  endfacet
  facet normal -0.471397 -0.881921 -0
    outer loop
      vertex -2.67878 -2.76716 7
      vertex -3.88899 -2.12029 0
      vertex -2.67878 -2.76716 0
    endloop
  endfacet
  facet normal -0.0980167 -0.995185 0
    outer loop
      vertex -1.36563 -3.1655 0
      vertex 0 -3.3 7
      vertex -1.36563 -3.1655 7
    endloop
  endfacet
  facet normal -0.0980167 -0.995185 -0
    outer loop
      vertex 0 -3.3 7
      vertex -1.36563 -3.1655 0
      vertex 0 -3.3 0
    endloop
  endfacet
  facet normal -0.77301 -0.634393 0
    outer loop
      vertex -4.94975 -1.24975 0
      vertex -5.82029 -0.188992 7
      vertex -5.82029 -0.188992 0
    endloop
  endfacet
  facet normal -0.77301 -0.634393 0
    outer loop
      vertex -5.82029 -0.188992 7
      vertex -4.94975 -1.24975 0
      vertex -4.94975 -1.24975 7
    endloop
  endfacet
  facet normal -0.95694 -0.290285 0
    outer loop
      vertex -6.46716 1.02122 0
      vertex -6.8655 2.33437 7
      vertex -6.8655 2.33437 0
    endloop
  endfacet
  facet normal -0.95694 -0.290285 0
    outer loop
      vertex -6.8655 2.33437 7
      vertex -6.46716 1.02122 0
      vertex -6.46716 1.02122 7
    endloop
  endfacet
  facet normal -0.995185 -0.0980173 0
    outer loop
      vertex -6.8655 2.33437 0
      vertex -7 3.7 7
      vertex -7 3.7 0
    endloop
  endfacet
  facet normal -0.995185 -0.0980173 0
    outer loop
      vertex -7 3.7 7
      vertex -6.8655 2.33437 0
      vertex -6.8655 2.33437 7
    endloop
  endfacet
  facet normal 0.471397 -0.881921 0
    outer loop
      vertex 2.67878 -2.76716 0
      vertex 3.88899 -2.12029 7
      vertex 2.67878 -2.76716 7
    endloop
  endfacet
  facet normal 0.471397 -0.881921 0
    outer loop
      vertex 3.88899 -2.12029 7
      vertex 2.67878 -2.76716 0
      vertex 3.88899 -2.12029 0
    endloop
  endfacet
  facet normal 0.881922 -0.471396 0
    outer loop
      vertex 5.82029 -0.188992 7
      vertex 5.9213 0 0
      vertex 5.9213 0 7
    endloop
  endfacet
  facet normal 0.881922 -0.471396 0
    outer loop
      vertex 5.9213 0 0
      vertex 5.82029 -0.188992 7
      vertex 5.82029 -0.188992 0
    endloop
  endfacet
  facet normal -0.290285 -0.95694 0
    outer loop
      vertex -2.67878 -2.76716 0
      vertex -1.36563 -3.1655 7
      vertex -2.67878 -2.76716 7
    endloop
  endfacet
  facet normal -0.290285 -0.95694 -0
    outer loop
      vertex -1.36563 -3.1655 7
      vertex -2.67878 -2.76716 0
      vertex -1.36563 -3.1655 0
    endloop
  endfacet
  facet normal 0.0980167 -0.995185 0
    outer loop
      vertex 0 -3.3 0
      vertex 1.36563 -3.1655 7
      vertex 0 -3.3 7
    endloop
  endfacet
  facet normal 0.0980167 -0.995185 0
    outer loop
      vertex 1.36563 -3.1655 7
      vertex 0 -3.3 0
      vertex 1.36563 -3.1655 0
    endloop
  endfacet
  facet normal -0.881921 -0.471397 0
    outer loop
      vertex -5.82029 -0.188992 0
      vertex -6.46716 1.02122 7
      vertex -6.46716 1.02122 0
    endloop
  endfacet
  facet normal -0.881921 -0.471397 0
    outer loop
      vertex -6.46716 1.02122 7
      vertex -5.82029 -0.188992 0
      vertex -5.82029 -0.188992 7
    endloop
  endfacet
  facet normal -0.994522 0 -0.104528
    outer loop
      vertex 31.3 0 7.8
      vertex 31.1733 3.6 9.00589
      vertex 31.3 3.6 7.8
    endloop
  endfacet
  facet normal -0.994522 -0 -0.104528
    outer loop
      vertex 31.1733 3.6 9.00589
      vertex 31.3 0 7.8
      vertex 31.1733 0 9.00589
    endloop
  endfacet
  facet normal -0.951056 0 -0.309017
    outer loop
      vertex 31.1733 0 9.00589
      vertex 30.7986 3.6 10.1591
      vertex 31.1733 3.6 9.00589
    endloop
  endfacet
  facet normal -0.951056 -0 -0.309017
    outer loop
      vertex 30.7986 3.6 10.1591
      vertex 31.1733 0 9.00589
      vertex 30.7986 0 10.1591
    endloop
  endfacet
  facet normal 0.994522 0 -0.104528
    outer loop
      vertex 19.8267 0 9.00589
      vertex 19.7 3.6 7.8
      vertex 19.8267 3.6 9.00589
    endloop
  endfacet
  facet normal 0.994522 0 -0.104528
    outer loop
      vertex 19.7 3.6 7.8
      vertex 19.8267 0 9.00589
      vertex 19.7 0 7.8
    endloop
  endfacet
  facet normal 0 0 -1
    outer loop
      vertex 24.8937 0 13.5682
      vertex 26.1063 3.6 13.5682
      vertex 26.1063 0 13.5682
    endloop
  endfacet
  facet normal -0 0 -1
    outer loop
      vertex 26.1063 3.6 13.5682
      vertex 24.8937 0 13.5682
      vertex 24.8937 3.6 13.5682
    endloop
  endfacet
  facet normal -0.743144 0 -0.669131
    outer loop
      vertex 30.1923 0 11.2092
      vertex 29.381 3.6 12.1102
      vertex 30.1923 3.6 11.2092
    endloop
  endfacet
  facet normal -0.743144 -0 -0.669131
    outer loop
      vertex 29.381 3.6 12.1102
      vertex 30.1923 0 11.2092
      vertex 29.381 0 12.1102
    endloop
  endfacet
  facet normal 0.406737 0 -0.913545
    outer loop
      vertex 22.6 0 12.8229
      vertex 23.7077 3.6 13.3161
      vertex 23.7077 0 13.3161
    endloop
  endfacet
  facet normal 0.406737 0 -0.913545
    outer loop
      vertex 23.7077 3.6 13.3161
      vertex 22.6 0 12.8229
      vertex 22.6 3.6 12.8229
    endloop
  endfacet
  facet normal -0.866026 0 0.5
    outer loop
      vertex 30.1923 0 4.39085
      vertex 30.7986 3.6 5.44093
      vertex 30.1923 3.6 4.39085
    endloop
  endfacet
  facet normal -0.866026 0 0.5
    outer loop
      vertex 30.7986 3.6 5.44093
      vertex 30.1923 0 4.39085
      vertex 30.7986 0 5.44093
    endloop
  endfacet
  facet normal -0.866026 0 -0.499999
    outer loop
      vertex 30.7986 0 10.1591
      vertex 30.1923 3.6 11.2092
      vertex 30.7986 3.6 10.1591
    endloop
  endfacet
  facet normal -0.866026 -0 -0.499999
    outer loop
      vertex 30.1923 3.6 11.2092
      vertex 30.7986 0 10.1591
      vertex 30.1923 0 11.2092
    endloop
  endfacet
  facet normal -0.406737 0 -0.913545
    outer loop
      vertex 27.2923 0 13.3161
      vertex 28.4 3.6 12.8229
      vertex 28.4 0 12.8229
    endloop
  endfacet
  facet normal -0.406737 0 -0.913545
    outer loop
      vertex 28.4 3.6 12.8229
      vertex 27.2923 0 13.3161
      vertex 27.2923 3.6 13.3161
    endloop
  endfacet
  facet normal -0.587785 0 -0.809017
    outer loop
      vertex 28.4 0 12.8229
      vertex 29.381 3.6 12.1102
      vertex 29.381 0 12.1102
    endloop
  endfacet
  facet normal -0.587785 0 -0.809017
    outer loop
      vertex 29.381 3.6 12.1102
      vertex 28.4 0 12.8229
      vertex 28.4 3.6 12.8229
    endloop
  endfacet
  facet normal 0.866025 0 -0.5
    outer loop
      vertex 20.8077 0 11.2092
      vertex 20.2014 3.6 10.1591
      vertex 20.8077 3.6 11.2092
    endloop
  endfacet
  facet normal 0.866025 0 -0.5
    outer loop
      vertex 20.2014 3.6 10.1591
      vertex 20.8077 0 11.2092
      vertex 20.2014 0 10.1591
    endloop
  endfacet
  facet normal 0.951057 0 -0.309016
    outer loop
      vertex 20.2014 0 10.1591
      vertex 19.8267 3.6 9.00589
      vertex 20.2014 3.6 10.1591
    endloop
  endfacet
  facet normal 0.951057 0 -0.309016
    outer loop
      vertex 19.8267 3.6 9.00589
      vertex 20.2014 0 10.1591
      vertex 19.8267 0 9.00589
    endloop
  endfacet
  facet normal 0.207912 0 -0.978148
    outer loop
      vertex 23.7077 0 13.3161
      vertex 24.8937 3.6 13.5682
      vertex 24.8937 0 13.5682
    endloop
  endfacet
  facet normal 0.207912 0 -0.978148
    outer loop
      vertex 24.8937 3.6 13.5682
      vertex 23.7077 0 13.3161
      vertex 23.7077 3.6 13.3161
    endloop
  endfacet
  facet normal 0.994522 -0 0.104528
    outer loop
      vertex 19.7 0 7.8
      vertex 19.8267 3.6 6.59411
      vertex 19.7 3.6 7.8
    endloop
  endfacet
  facet normal 0.994522 0 0.104528
    outer loop
      vertex 19.8267 3.6 6.59411
      vertex 19.7 0 7.8
      vertex 19.8267 0 6.59411
    endloop
  endfacet
  facet normal -0 0 1
    outer loop
      vertex 24.8937 3.6 2.03177
      vertex 26.1063 0 2.03177
      vertex 26.1063 3.6 2.03177
    endloop
  endfacet
  facet normal 0 0 1
    outer loop
      vertex 26.1063 0 2.03177
      vertex 24.8937 3.6 2.03177
      vertex 24.8937 0 2.03177
    endloop
  endfacet
  facet normal -0.406736 0 0.913546
    outer loop
      vertex 27.2923 3.6 2.28387
      vertex 28.4 0 2.77705
      vertex 28.4 3.6 2.77705
    endloop
  endfacet
  facet normal -0.406736 0 0.913546
    outer loop
      vertex 28.4 0 2.77705
      vertex 27.2923 3.6 2.28387
      vertex 27.2923 0 2.28387
    endloop
  endfacet
  facet normal -0.207912 0 -0.978148
    outer loop
      vertex 26.1063 0 13.5682
      vertex 27.2923 3.6 13.3161
      vertex 27.2923 0 13.3161
    endloop
  endfacet
  facet normal -0.207912 0 -0.978148
    outer loop
      vertex 27.2923 3.6 13.3161
      vertex 26.1063 0 13.5682
      vertex 26.1063 3.6 13.5682
    endloop
  endfacet
  facet normal 0.587785 0 -0.809017
    outer loop
      vertex 21.619 0 12.1102
      vertex 22.6 3.6 12.8229
      vertex 22.6 0 12.8229
    endloop
  endfacet
  facet normal 0.587785 0 -0.809017
    outer loop
      vertex 22.6 3.6 12.8229
      vertex 21.619 0 12.1102
      vertex 21.619 3.6 12.1102
    endloop
  endfacet
  facet normal 0.743145 0 -0.66913
    outer loop
      vertex 21.619 0 12.1102
      vertex 20.8077 3.6 11.2092
      vertex 21.619 3.6 12.1102
    endloop
  endfacet
  facet normal 0.743145 0 -0.66913
    outer loop
      vertex 20.8077 3.6 11.2092
      vertex 21.619 0 12.1102
      vertex 20.8077 0 11.2092
    endloop
  endfacet
  facet normal -0.587786 0 0.809017
    outer loop
      vertex 28.4 3.6 2.77705
      vertex 29.381 0 3.48976
      vertex 29.381 3.6 3.48976
    endloop
  endfacet
  facet normal -0.587786 0 0.809017
    outer loop
      vertex 29.381 0 3.48976
      vertex 28.4 3.6 2.77705
      vertex 28.4 0 2.77705
    endloop
  endfacet
  facet normal -0.951056 0 0.309017
    outer loop
      vertex 30.7986 0 5.44093
      vertex 31.1733 3.6 6.59411
      vertex 30.7986 3.6 5.44093
    endloop
  endfacet
  facet normal -0.951056 0 0.309017
    outer loop
      vertex 31.1733 3.6 6.59411
      vertex 30.7986 0 5.44093
      vertex 31.1733 0 6.59411
    endloop
  endfacet
  facet normal -0.994522 0 0.104528
    outer loop
      vertex 31.1733 0 6.59411
      vertex 31.3 3.6 7.8
      vertex 31.1733 3.6 6.59411
    endloop
  endfacet
  facet normal -0.994522 0 0.104528
    outer loop
      vertex 31.3 3.6 7.8
      vertex 31.1733 0 6.59411
      vertex 31.3 0 7.8
    endloop
  endfacet
  facet normal 0.743145 -0 0.66913
    outer loop
      vertex 20.8077 0 4.39085
      vertex 21.619 3.6 3.48976
      vertex 20.8077 3.6 4.39085
    endloop
  endfacet
  facet normal 0.743145 0 0.66913
    outer loop
      vertex 21.619 3.6 3.48976
      vertex 20.8077 0 4.39085
      vertex 21.619 0 3.48976
    endloop
  endfacet
  facet normal 0 -1 0
    outer loop
      vertex 25.1707 3.6 10.9327
      vertex 24.8937 3.6 13.5682
      vertex 23.7077 3.6 13.3161
    endloop
  endfacet
  facet normal 0 -1 0
    outer loop
      vertex 24.8937 3.6 13.5682
      vertex 25.1707 3.6 10.9327
      vertex 26.1063 3.6 13.5682
    endloop
  endfacet
  facet normal 0 -1 0
    outer loop
      vertex 24.5266 3.6 10.7958
      vertex 23.7077 3.6 13.3161
      vertex 22.6 3.6 12.8229
    endloop
  endfacet
  facet normal 0 -1 0
    outer loop
      vertex 25.8293 3.6 10.9327
      vertex 26.1063 3.6 13.5682
      vertex 25.1707 3.6 10.9327
    endloop
  endfacet
  facet normal 0 -1 0
    outer loop
      vertex 23.925 3.6 10.528
      vertex 22.6 3.6 12.8229
      vertex 21.619 3.6 12.1102
    endloop
  endfacet
  facet normal 0 -1 -0
    outer loop
      vertex 26.1063 3.6 13.5682
      vertex 25.8293 3.6 10.9327
      vertex 27.2923 3.6 13.3161
    endloop
  endfacet
  facet normal 0 -1 0
    outer loop
      vertex 23.3922 3.6 10.1409
      vertex 21.619 3.6 12.1102
      vertex 20.8077 3.6 11.2092
    endloop
  endfacet
  facet normal 0 -1 0
    outer loop
      vertex 26.4734 3.6 10.7958
      vertex 27.2923 3.6 13.3161
      vertex 25.8293 3.6 10.9327
    endloop
  endfacet
  facet normal 0 -1 -0
    outer loop
      vertex 27.2923 3.6 13.3161
      vertex 26.4734 3.6 10.7958
      vertex 28.4 3.6 12.8229
    endloop
  endfacet
  facet normal 0 -1 0
    outer loop
      vertex 23.7077 3.6 13.3161
      vertex 24.5266 3.6 10.7958
      vertex 25.1707 3.6 10.9327
    endloop
  endfacet
  facet normal 0 -1 0
    outer loop
      vertex 22.6 3.6 12.8229
      vertex 23.925 3.6 10.528
      vertex 24.5266 3.6 10.7958
    endloop
  endfacet
  facet normal 0 -1 0
    outer loop
      vertex 22.9516 3.6 9.65152
      vertex 20.8077 3.6 11.2092
      vertex 20.2014 3.6 10.1591
    endloop
  endfacet
  facet normal 0 -1 0
    outer loop
      vertex 21.619 3.6 12.1102
      vertex 23.3922 3.6 10.1409
      vertex 23.925 3.6 10.528
    endloop
  endfacet
  facet normal 0 -1 0
    outer loop
      vertex 20.8077 3.6 11.2092
      vertex 22.9516 3.6 9.65152
      vertex 23.3922 3.6 10.1409
    endloop
  endfacet
  facet normal 0 -1 0
    outer loop
      vertex 20.2014 3.6 10.1591
      vertex 22.6223 3.6 9.08122
      vertex 22.9516 3.6 9.65152
    endloop
  endfacet
  facet normal 0 -1 0
    outer loop
      vertex 19.8267 3.6 9.00589
      vertex 22.6223 3.6 9.08122
      vertex 20.2014 3.6 10.1591
    endloop
  endfacet
  facet normal 0 -1 0
    outer loop
      vertex 19.8267 3.6 9.00589
      vertex 22.4188 3.6 8.45492
      vertex 22.6223 3.6 9.08122
    endloop
  endfacet
  facet normal 0 -1 0
    outer loop
      vertex 19.7 3.6 7.8
      vertex 22.4188 3.6 8.45492
      vertex 19.8267 3.6 9.00589
    endloop
  endfacet
  facet normal 0 -1 0
    outer loop
      vertex 19.7 3.6 7.8
      vertex 22.35 3.6 7.8
      vertex 22.4188 3.6 8.45492
    endloop
  endfacet
  facet normal 0 -1 0
    outer loop
      vertex 19.7 3.6 7.8
      vertex 22.4188 3.6 7.14508
      vertex 22.35 3.6 7.8
    endloop
  endfacet
  facet normal 0 -1 0
    outer loop
      vertex 19.8267 3.6 6.59411
      vertex 22.4188 3.6 7.14508
      vertex 19.7 3.6 7.8
    endloop
  endfacet
  facet normal 0 -1 0
    outer loop
      vertex 19.8267 3.6 6.59411
      vertex 22.6223 3.6 6.51878
      vertex 22.4188 3.6 7.14508
    endloop
  endfacet
  facet normal 0 -1 0
    outer loop
      vertex 20.2014 3.6 5.44093
      vertex 22.6223 3.6 6.51878
      vertex 19.8267 3.6 6.59411
    endloop
  endfacet
  facet normal 0 -1 -0
    outer loop
      vertex 22.6223 3.6 6.51878
      vertex 20.2014 3.6 5.44093
      vertex 22.9516 3.6 5.94848
    endloop
  endfacet
  facet normal 0 -1 0
    outer loop
      vertex 20.8077 3.6 4.39085
      vertex 22.9516 3.6 5.94848
      vertex 20.2014 3.6 5.44093
    endloop
  endfacet
  facet normal 0 -1 -0
    outer loop
      vertex 22.9516 3.6 5.94848
      vertex 20.8077 3.6 4.39085
      vertex 23.3922 3.6 5.45909
    endloop
  endfacet
  facet normal 0 -1 0
    outer loop
      vertex 21.619 3.6 3.48976
      vertex 23.3922 3.6 5.45909
      vertex 20.8077 3.6 4.39085
    endloop
  endfacet
  facet normal 0 -1 -0
    outer loop
      vertex 23.3922 3.6 5.45909
      vertex 21.619 3.6 3.48976
      vertex 23.925 3.6 5.07202
    endloop
  endfacet
  facet normal 0 -1 -0
    outer loop
      vertex 23.925 3.6 5.07202
      vertex 22.6 3.6 2.77705
      vertex 24.5266 3.6 4.80417
    endloop
  endfacet
  facet normal 0 -1 0
    outer loop
      vertex 22.6 3.6 2.77705
      vertex 23.925 3.6 5.07202
      vertex 21.619 3.6 3.48976
    endloop
  endfacet
  facet normal 0 -1 0
    outer loop
      vertex 27.075 3.6 10.528
      vertex 28.4 3.6 12.8229
      vertex 26.4734 3.6 10.7958
    endloop
  endfacet
  facet normal 0 -1 -0
    outer loop
      vertex 28.4 3.6 12.8229
      vertex 27.075 3.6 10.528
      vertex 29.381 3.6 12.1102
    endloop
  endfacet
  facet normal 0 -1 0
    outer loop
      vertex 27.6078 3.6 10.1409
      vertex 29.381 3.6 12.1102
      vertex 27.075 3.6 10.528
    endloop
  endfacet
  facet normal 0 -1 -0
    outer loop
      vertex 29.381 3.6 12.1102
      vertex 27.6078 3.6 10.1409
      vertex 30.1923 3.6 11.2092
    endloop
  endfacet
  facet normal 0 -1 0
    outer loop
      vertex 28.0484 3.6 9.65152
      vertex 30.1923 3.6 11.2092
      vertex 27.6078 3.6 10.1409
    endloop
  endfacet
  facet normal 0 -1 -0
    outer loop
      vertex 30.1923 3.6 11.2092
      vertex 28.0484 3.6 9.65152
      vertex 30.7986 3.6 10.1591
    endloop
  endfacet
  facet normal 0 -1 0
    outer loop
      vertex 28.3777 3.6 9.08122
      vertex 30.7986 3.6 10.1591
      vertex 28.0484 3.6 9.65152
    endloop
  endfacet
  facet normal 0 -1 0
    outer loop
      vertex 28.3777 3.6 9.08122
      vertex 31.1733 3.6 9.00589
      vertex 30.7986 3.6 10.1591
    endloop
  endfacet
  facet normal 0 -1 0
    outer loop
      vertex 28.5812 3.6 8.45492
      vertex 31.1733 3.6 9.00589
      vertex 28.3777 3.6 9.08122
    endloop
  endfacet
  facet normal 0 -1 0
    outer loop
      vertex 28.65 3.6 7.8
      vertex 31.1733 3.6 9.00589
      vertex 28.5812 3.6 8.45492
    endloop
  endfacet
  facet normal 0 -1 0
    outer loop
      vertex 28.65 3.6 7.8
      vertex 31.3 3.6 7.8
      vertex 31.1733 3.6 9.00589
    endloop
  endfacet
  facet normal 0 -1 0
    outer loop
      vertex 28.5812 3.6 7.14508
      vertex 31.3 3.6 7.8
      vertex 28.65 3.6 7.8
    endloop
  endfacet
  facet normal 0 -1 0
    outer loop
      vertex 28.5812 3.6 7.14508
      vertex 31.1733 3.6 6.59411
      vertex 31.3 3.6 7.8
    endloop
  endfacet
  facet normal 0 -1 0
    outer loop
      vertex 28.3777 3.6 6.51878
      vertex 31.1733 3.6 6.59411
      vertex 28.5812 3.6 7.14508
    endloop
  endfacet
  facet normal 0 -1 0
    outer loop
      vertex 30.7986 3.6 5.44093
      vertex 28.3777 3.6 6.51878
      vertex 28.0484 3.6 5.94848
    endloop
  endfacet
  facet normal 0 -1 0
    outer loop
      vertex 30.1923 3.6 4.39085
      vertex 28.0484 3.6 5.94848
      vertex 27.6078 3.6 5.45909
    endloop
  endfacet
  facet normal 0 -1 0
    outer loop
      vertex 28.3777 3.6 6.51878
      vertex 30.7986 3.6 5.44093
      vertex 31.1733 3.6 6.59411
    endloop
  endfacet
  facet normal 0 -1 0
    outer loop
      vertex 29.381 3.6 3.48976
      vertex 27.6078 3.6 5.45909
      vertex 27.075 3.6 5.07202
    endloop
  endfacet
  facet normal 0 -1 0
    outer loop
      vertex 28.4 3.6 2.77705
      vertex 27.075 3.6 5.07202
      vertex 26.4734 3.6 4.80417
    endloop
  endfacet
  facet normal 0 -1 0
    outer loop
      vertex 27.2923 3.6 2.28387
      vertex 26.4734 3.6 4.80417
      vertex 25.8293 3.6 4.66726
    endloop
  endfacet
  facet normal 0 -1 0
    outer loop
      vertex 28.0484 3.6 5.94848
      vertex 30.1923 3.6 4.39085
      vertex 30.7986 3.6 5.44093
    endloop
  endfacet
  facet normal 0 -1 0
    outer loop
      vertex 23.7077 3.6 2.28387
      vertex 24.5266 3.6 4.80417
      vertex 22.6 3.6 2.77705
    endloop
  endfacet
  facet normal 0 -1 -0
    outer loop
      vertex 24.5266 3.6 4.80417
      vertex 23.7077 3.6 2.28387
      vertex 25.1707 3.6 4.66726
    endloop
  endfacet
  facet normal 0 -1 0
    outer loop
      vertex 27.6078 3.6 5.45909
      vertex 29.381 3.6 3.48976
      vertex 30.1923 3.6 4.39085
    endloop
  endfacet
  facet normal 0 -1 0
    outer loop
      vertex 24.8937 3.6 2.03177
      vertex 25.1707 3.6 4.66726
      vertex 23.7077 3.6 2.28387
    endloop
  endfacet
  facet normal 0 -1 0
    outer loop
      vertex 27.075 3.6 5.07202
      vertex 28.4 3.6 2.77705
      vertex 29.381 3.6 3.48976
    endloop
  endfacet
  facet normal 0 -1 -0
    outer loop
      vertex 25.1707 3.6 4.66726
      vertex 24.8937 3.6 2.03177
      vertex 25.8293 3.6 4.66726
    endloop
  endfacet
  facet normal 0 -1 0
    outer loop
      vertex 26.4734 3.6 4.80417
      vertex 27.2923 3.6 2.28387
      vertex 28.4 3.6 2.77705
    endloop
  endfacet
  facet normal 0 -1 0
    outer loop
      vertex 26.1063 3.6 2.03177
      vertex 25.8293 3.6 4.66726
      vertex 24.8937 3.6 2.03177
    endloop
  endfacet
  facet normal 0 -1 0
    outer loop
      vertex 25.8293 3.6 4.66726
      vertex 26.1063 3.6 2.03177
      vertex 27.2923 3.6 2.28387
    endloop
  endfacet
  facet normal -0.207912 0 0.978148
    outer loop
      vertex 26.1063 3.6 2.03177
      vertex 27.2923 0 2.28387
      vertex 27.2923 3.6 2.28387
    endloop
  endfacet
  facet normal -0.207912 0 0.978148
    outer loop
      vertex 27.2923 0 2.28387
      vertex 26.1063 3.6 2.03177
      vertex 26.1063 0 2.03177
    endloop
  endfacet
  facet normal -0.743144 0 0.669131
    outer loop
      vertex 29.381 0 3.48976
      vertex 30.1923 3.6 4.39085
      vertex 29.381 3.6 3.48976
    endloop
  endfacet
  facet normal -0.743144 0 0.669131
    outer loop
      vertex 30.1923 3.6 4.39085
      vertex 29.381 0 3.48976
      vertex 30.1923 0 4.39085
    endloop
  endfacet
  facet normal 0.951057 -0 0.309016
    outer loop
      vertex 19.8267 0 6.59411
      vertex 20.2014 3.6 5.44093
      vertex 19.8267 3.6 6.59411
    endloop
  endfacet
  facet normal 0.951057 0 0.309016
    outer loop
      vertex 20.2014 3.6 5.44093
      vertex 19.8267 0 6.59411
      vertex 20.2014 0 5.44093
    endloop
  endfacet
  facet normal 0.866025 -0 0.500001
    outer loop
      vertex 20.2014 0 5.44093
      vertex 20.8077 3.6 4.39085
      vertex 20.2014 3.6 5.44093
    endloop
  endfacet
  facet normal 0.866025 0 0.500001
    outer loop
      vertex 20.8077 3.6 4.39085
      vertex 20.2014 0 5.44093
      vertex 20.8077 0 4.39085
    endloop
  endfacet
  facet normal 0.587786 0 0.809017
    outer loop
      vertex 21.619 3.6 3.48976
      vertex 22.6 0 2.77705
      vertex 22.6 3.6 2.77705
    endloop
  endfacet
  facet normal 0.587786 0 0.809017
    outer loop
      vertex 22.6 0 2.77705
      vertex 21.619 3.6 3.48976
      vertex 21.619 0 3.48976
    endloop
  endfacet
  facet normal 0.406736 0 0.913546
    outer loop
      vertex 22.6 3.6 2.77705
      vertex 23.7077 0 2.28387
      vertex 23.7077 3.6 2.28387
    endloop
  endfacet
  facet normal 0.406736 0 0.913546
    outer loop
      vertex 23.7077 0 2.28387
      vertex 22.6 3.6 2.77705
      vertex 22.6 0 2.77705
    endloop
  endfacet
  facet normal 0.207912 0 0.978148
    outer loop
      vertex 23.7077 3.6 2.28387
      vertex 24.8937 0 2.03177
      vertex 24.8937 3.6 2.03177
    endloop
  endfacet
  facet normal 0.207912 0 0.978148
    outer loop
      vertex 24.8937 0 2.03177
      vertex 23.7077 3.6 2.28387
      vertex 23.7077 0 2.28387
    endloop
  endfacet
  facet normal -0.994522 0 0.104527
    outer loop
      vertex 28.5812 3.6 7.14508
      vertex 28.65 9.5 7.8
      vertex 28.5812 9.5 7.14508
    endloop
  endfacet
  facet normal -0.994522 0 0.104527
    outer loop
      vertex 28.65 9.5 7.8
      vertex 28.5812 3.6 7.14508
      vertex 28.65 3.6 7.8
    endloop
  endfacet
  facet normal -0 0 1
    outer loop
      vertex 25.1707 9.5 4.66726
      vertex 25.8293 3.6 4.66726
      vertex 25.8293 9.5 4.66726
    endloop
  endfacet
  facet normal 0 0 1
    outer loop
      vertex 25.8293 3.6 4.66726
      vertex 25.1707 9.5 4.66726
      vertex 25.1707 3.6 4.66726
    endloop
  endfacet
  facet normal -0.207911 0 -0.978148
    outer loop
      vertex 25.8293 3.6 10.9327
      vertex 26.4734 9.5 10.7958
      vertex 26.4734 3.6 10.7958
    endloop
  endfacet
  facet normal -0.207911 0 -0.978148
    outer loop
      vertex 26.4734 9.5 10.7958
      vertex 25.8293 3.6 10.9327
      vertex 25.8293 9.5 10.9327
    endloop
  endfacet
  facet normal -0.743145 0 0.66913
    outer loop
      vertex 27.6078 3.6 5.45909
      vertex 28.0484 9.5 5.94848
      vertex 27.6078 9.5 5.45909
    endloop
  endfacet
  facet normal -0.743145 0 0.66913
    outer loop
      vertex 28.0484 9.5 5.94848
      vertex 27.6078 3.6 5.45909
      vertex 28.0484 3.6 5.94848
    endloop
  endfacet
  facet normal -0.951056 0 0.30902
    outer loop
      vertex 28.3777 3.6 6.51878
      vertex 28.5812 9.5 7.14508
      vertex 28.3777 9.5 6.51878
    endloop
  endfacet
  facet normal -0.951056 0 0.30902
    outer loop
      vertex 28.5812 9.5 7.14508
      vertex 28.3777 3.6 6.51878
      vertex 28.5812 3.6 7.14508
    endloop
  endfacet
  facet normal 0.743144 -0 0.669132
    outer loop
      vertex 22.9516 3.6 5.94848
      vertex 23.3922 9.5 5.45909
      vertex 22.9516 9.5 5.94848
    endloop
  endfacet
  facet normal 0.743144 0 0.669132
    outer loop
      vertex 23.3922 9.5 5.45909
      vertex 22.9516 3.6 5.94848
      vertex 23.3922 3.6 5.45909
    endloop
  endfacet
  facet normal 0.406736 0 0.913546
    outer loop
      vertex 23.925 9.5 5.07202
      vertex 24.5266 3.6 4.80417
      vertex 24.5266 9.5 4.80417
    endloop
  endfacet
  facet normal 0.406736 0 0.913546
    outer loop
      vertex 24.5266 3.6 4.80417
      vertex 23.925 9.5 5.07202
      vertex 23.925 3.6 5.07202
    endloop
  endfacet
  facet normal -0.866026 0 0.499999
    outer loop
      vertex 28.0484 3.6 5.94848
      vertex 28.3777 9.5 6.51878
      vertex 28.0484 9.5 5.94848
    endloop
  endfacet
  facet normal -0.866026 0 0.499999
    outer loop
      vertex 28.3777 9.5 6.51878
      vertex 28.0484 3.6 5.94848
      vertex 28.3777 3.6 6.51878
    endloop
  endfacet
  facet normal -0.406736 0 0.913546
    outer loop
      vertex 26.4734 9.5 4.80417
      vertex 27.075 3.6 5.07202
      vertex 27.075 9.5 5.07202
    endloop
  endfacet
  facet normal -0.406736 0 0.913546
    outer loop
      vertex 27.075 3.6 5.07202
      vertex 26.4734 9.5 4.80417
      vertex 26.4734 3.6 4.80417
    endloop
  endfacet
  facet normal -0.207912 0 0.978147
    outer loop
      vertex 25.8293 9.5 4.66726
      vertex 26.4734 3.6 4.80417
      vertex 26.4734 9.5 4.80417
    endloop
  endfacet
  facet normal -0.207912 0 0.978147
    outer loop
      vertex 26.4734 3.6 4.80417
      vertex 25.8293 9.5 4.66726
      vertex 25.8293 3.6 4.66726
    endloop
  endfacet
  facet normal -0.587786 0 0.809017
    outer loop
      vertex 27.075 9.5 5.07202
      vertex 27.6078 3.6 5.45909
      vertex 27.6078 9.5 5.45909
    endloop
  endfacet
  facet normal -0.587786 0 0.809017
    outer loop
      vertex 27.6078 3.6 5.45909
      vertex 27.075 9.5 5.07202
      vertex 27.075 3.6 5.07202
    endloop
  endfacet
  facet normal 0.951056 -0 0.309017
    outer loop
      vertex 22.4188 3.6 7.14508
      vertex 22.6223 9.5 6.51878
      vertex 22.4188 9.5 7.14508
    endloop
  endfacet
  facet normal 0.951056 0 0.309017
    outer loop
      vertex 22.6223 9.5 6.51878
      vertex 22.4188 3.6 7.14508
      vertex 22.6223 3.6 6.51878
    endloop
  endfacet
  facet normal 0.866026 -0 0.499999
    outer loop
      vertex 22.6223 3.6 6.51878
      vertex 22.9516 9.5 5.94848
      vertex 22.6223 9.5 6.51878
    endloop
  endfacet
  facet normal 0.866026 0 0.499999
    outer loop
      vertex 22.9516 9.5 5.94848
      vertex 22.6223 3.6 6.51878
      vertex 22.9516 3.6 5.94848
    endloop
  endfacet
  facet normal 0.994522 -0 0.10453
    outer loop
      vertex 22.35 3.6 7.8
      vertex 22.4188 9.5 7.14508
      vertex 22.35 9.5 7.8
    endloop
  endfacet
  facet normal 0.994522 0 0.10453
    outer loop
      vertex 22.4188 9.5 7.14508
      vertex 22.35 3.6 7.8
      vertex 22.4188 3.6 7.14508
    endloop
  endfacet
  facet normal 0.587786 0 0.809017
    outer loop
      vertex 23.3922 9.5 5.45909
      vertex 23.925 3.6 5.07202
      vertex 23.925 9.5 5.07202
    endloop
  endfacet
  facet normal 0.587786 0 0.809017
    outer loop
      vertex 23.925 3.6 5.07202
      vertex 23.3922 9.5 5.45909
      vertex 23.3922 3.6 5.45909
    endloop
  endfacet
  facet normal 0.207912 0 0.978147
    outer loop
      vertex 24.5266 9.5 4.80417
      vertex 25.1707 3.6 4.66726
      vertex 25.1707 9.5 4.66726
    endloop
  endfacet
  facet normal 0.207912 0 0.978147
    outer loop
      vertex 25.1707 3.6 4.66726
      vertex 24.5266 9.5 4.80417
      vertex 24.5266 3.6 4.80417
    endloop
  endfacet
  facet normal -0.994522 0 -0.104527
    outer loop
      vertex 28.65 3.6 7.8
      vertex 28.5812 9.5 8.45492
      vertex 28.65 9.5 7.8
    endloop
  endfacet
  facet normal -0.994522 -0 -0.104527
    outer loop
      vertex 28.5812 9.5 8.45492
      vertex 28.65 3.6 7.8
      vertex 28.5812 3.6 8.45492
    endloop
  endfacet
  facet normal -0.406736 0 -0.913546
    outer loop
      vertex 26.4734 3.6 10.7958
      vertex 27.075 9.5 10.528
      vertex 27.075 3.6 10.528
    endloop
  endfacet
  facet normal -0.406736 0 -0.913546
    outer loop
      vertex 27.075 9.5 10.528
      vertex 26.4734 3.6 10.7958
      vertex 26.4734 9.5 10.7958
    endloop
  endfacet
  facet normal -0.951055 0 -0.30902
    outer loop
      vertex 28.5812 3.6 8.45492
      vertex 28.3777 9.5 9.08122
      vertex 28.5812 9.5 8.45492
    endloop
  endfacet
  facet normal -0.951055 -0 -0.30902
    outer loop
      vertex 28.3777 9.5 9.08122
      vertex 28.5812 3.6 8.45492
      vertex 28.3777 3.6 9.08122
    endloop
  endfacet
  facet normal 0.994522 0 -0.10453
    outer loop
      vertex 22.4188 3.6 8.45492
      vertex 22.35 9.5 7.8
      vertex 22.4188 9.5 8.45492
    endloop
  endfacet
  facet normal 0.994522 0 -0.10453
    outer loop
      vertex 22.35 9.5 7.8
      vertex 22.4188 3.6 8.45492
      vertex 22.35 3.6 7.8
    endloop
  endfacet
  facet normal 0.743144 0 -0.669132
    outer loop
      vertex 23.3922 3.6 10.1409
      vertex 22.9516 9.5 9.65152
      vertex 23.3922 9.5 10.1409
    endloop
  endfacet
  facet normal 0.743144 0 -0.669132
    outer loop
      vertex 22.9516 9.5 9.65152
      vertex 23.3922 3.6 10.1409
      vertex 22.9516 3.6 9.65152
    endloop
  endfacet
  facet normal 0.587786 0 -0.809016
    outer loop
      vertex 23.3922 3.6 10.1409
      vertex 23.925 9.5 10.528
      vertex 23.925 3.6 10.528
    endloop
  endfacet
  facet normal 0.587786 0 -0.809016
    outer loop
      vertex 23.925 9.5 10.528
      vertex 23.3922 3.6 10.1409
      vertex 23.3922 9.5 10.1409
    endloop
  endfacet
  facet normal -0.743145 0 -0.66913
    outer loop
      vertex 28.0484 3.6 9.65152
      vertex 27.6078 9.5 10.1409
      vertex 28.0484 9.5 9.65152
    endloop
  endfacet
  facet normal -0.743145 -0 -0.66913
    outer loop
      vertex 27.6078 9.5 10.1409
      vertex 28.0484 3.6 9.65152
      vertex 27.6078 3.6 10.1409
    endloop
  endfacet
  facet normal -0.587786 0 -0.809016
    outer loop
      vertex 27.075 3.6 10.528
      vertex 27.6078 9.5 10.1409
      vertex 27.6078 3.6 10.1409
    endloop
  endfacet
  facet normal -0.587786 0 -0.809016
    outer loop
      vertex 27.6078 9.5 10.1409
      vertex 27.075 3.6 10.528
      vertex 27.075 9.5 10.528
    endloop
  endfacet
  facet normal 0 0 -1
    outer loop
      vertex 25.1707 3.6 10.9327
      vertex 25.8293 9.5 10.9327
      vertex 25.8293 3.6 10.9327
    endloop
  endfacet
  facet normal -0 0 -1
    outer loop
      vertex 25.8293 9.5 10.9327
      vertex 25.1707 3.6 10.9327
      vertex 25.1707 9.5 10.9327
    endloop
  endfacet
  facet normal 0.866026 0 -0.499999
    outer loop
      vertex 22.9516 3.6 9.65152
      vertex 22.6223 9.5 9.08122
      vertex 22.9516 9.5 9.65152
    endloop
  endfacet
  facet normal 0.866026 0 -0.499999
    outer loop
      vertex 22.6223 9.5 9.08122
      vertex 22.9516 3.6 9.65152
      vertex 22.6223 3.6 9.08122
    endloop
  endfacet
  facet normal 0.951056 0 -0.309018
    outer loop
      vertex 22.6223 3.6 9.08122
      vertex 22.4188 9.5 8.45492
      vertex 22.6223 9.5 9.08122
    endloop
  endfacet
  facet normal 0.951056 0 -0.309018
    outer loop
      vertex 22.4188 9.5 8.45492
      vertex 22.6223 3.6 9.08122
      vertex 22.4188 3.6 8.45492
    endloop
  endfacet
  facet normal -0.866026 0 -0.499999
    outer loop
      vertex 28.3777 3.6 9.08122
      vertex 28.0484 9.5 9.65152
      vertex 28.3777 9.5 9.08122
    endloop
  endfacet
  facet normal -0.866026 -0 -0.499999
    outer loop
      vertex 28.0484 9.5 9.65152
      vertex 28.3777 3.6 9.08122
      vertex 28.0484 3.6 9.65152
    endloop
  endfacet
  facet normal 0.207911 0 -0.978148
    outer loop
      vertex 24.5266 3.6 10.7958
      vertex 25.1707 9.5 10.9327
      vertex 25.1707 3.6 10.9327
    endloop
  endfacet
  facet normal 0.207911 0 -0.978148
    outer loop
      vertex 25.1707 9.5 10.9327
      vertex 24.5266 3.6 10.7958
      vertex 24.5266 9.5 10.7958
    endloop
  endfacet
  facet normal 0.406736 0 -0.913546
    outer loop
      vertex 23.925 3.6 10.528
      vertex 24.5266 9.5 10.7958
      vertex 24.5266 3.6 10.7958
    endloop
  endfacet
  facet normal 0.406736 0 -0.913546
    outer loop
      vertex 24.5266 9.5 10.7958
      vertex 23.925 3.6 10.528
      vertex 23.925 9.5 10.528
    endloop
  endfacet
  facet normal -0.980785 -0.19509 0
    outer loop
      vertex 1.6 3.7 0
      vertex 1.47821 4.31229 4.6
      vertex 1.47821 4.31229 0
    endloop
  endfacet
  facet normal -0.980785 -0.19509 0
    outer loop
      vertex 1.47821 4.31229 4.6
      vertex 1.6 3.7 0
      vertex 1.6 3.7 4.6
    endloop
  endfacet
  facet normal 0.19509 -0.980785 0
    outer loop
      vertex -0.612293 5.17821 0
      vertex 0 5.3 4.6
      vertex -0.612293 5.17821 4.6
    endloop
  endfacet
  facet normal 0.19509 -0.980785 0
    outer loop
      vertex 0 5.3 4.6
      vertex -0.612293 5.17821 0
      vertex 0 5.3 0
    endloop
  endfacet
  facet normal -0.19509 0.980785 0
    outer loop
      vertex 0.612293 2.22179 0
      vertex 0 2.1 4.6
      vertex 0.612293 2.22179 4.6
    endloop
  endfacet
  facet normal -0.19509 0.980785 0
    outer loop
      vertex 0 2.1 4.6
      vertex 0.612293 2.22179 0
      vertex 0 2.1 0
    endloop
  endfacet
  facet normal -0.55557 0.83147 0
    outer loop
      vertex 1.13137 2.56863 0
      vertex 0.612293 2.22179 4.6
      vertex 1.13137 2.56863 4.6
    endloop
  endfacet
  facet normal -0.55557 0.83147 0
    outer loop
      vertex 0.612293 2.22179 4.6
      vertex 1.13137 2.56863 0
      vertex 0.612293 2.22179 0
    endloop
  endfacet
  facet normal -0.55557 -0.83147 0
    outer loop
      vertex 0.612293 5.17821 0
      vertex 1.13137 4.83137 4.6
      vertex 0.612293 5.17821 4.6
    endloop
  endfacet
  facet normal -0.55557 -0.83147 -0
    outer loop
      vertex 1.13137 4.83137 4.6
      vertex 0.612293 5.17821 0
      vertex 1.13137 4.83137 0
    endloop
  endfacet
  facet normal -0.83147 -0.55557 0
    outer loop
      vertex 1.47821 4.31229 0
      vertex 1.13137 4.83137 4.6
      vertex 1.13137 4.83137 0
    endloop
  endfacet
  facet normal -0.83147 -0.55557 0
    outer loop
      vertex 1.13137 4.83137 4.6
      vertex 1.47821 4.31229 0
      vertex 1.47821 4.31229 4.6
    endloop
  endfacet
  facet normal -0.19509 -0.980785 0
    outer loop
      vertex 0 5.3 0
      vertex 0.612293 5.17821 4.6
      vertex 0 5.3 4.6
    endloop
  endfacet
  facet normal -0.19509 -0.980785 -0
    outer loop
      vertex 0.612293 5.17821 4.6
      vertex 0 5.3 0
      vertex 0.612293 5.17821 0
    endloop
  endfacet
  facet normal 0.83147 -0.55557 0
    outer loop
      vertex -1.47821 4.31229 4.6
      vertex -1.13137 4.83137 0
      vertex -1.13137 4.83137 4.6
    endloop
  endfacet
  facet normal 0.83147 -0.55557 0
    outer loop
      vertex -1.13137 4.83137 0
      vertex -1.47821 4.31229 4.6
      vertex -1.47821 4.31229 0
    endloop
  endfacet
  facet normal 0.980785 -0.19509 0
    outer loop
      vertex -1.6 3.7 4.6
      vertex -1.47821 4.31229 0
      vertex -1.47821 4.31229 4.6
    endloop
  endfacet
  facet normal 0.980785 -0.19509 0
    outer loop
      vertex -1.47821 4.31229 0
      vertex -1.6 3.7 4.6
      vertex -1.6 3.7 0
    endloop
  endfacet
  facet normal 0.55557 -0.83147 0
    outer loop
      vertex -1.13137 4.83137 0
      vertex -0.612293 5.17821 4.6
      vertex -1.13137 4.83137 4.6
    endloop
  endfacet
  facet normal 0.55557 -0.83147 0
    outer loop
      vertex -0.612293 5.17821 4.6
      vertex -1.13137 4.83137 0
      vertex -0.612293 5.17821 0
    endloop
  endfacet
  facet normal 0.19509 0.980785 -0
    outer loop
      vertex 0 2.1 0
      vertex -0.612293 2.22179 4.6
      vertex 0 2.1 4.6
    endloop
  endfacet
  facet normal 0.19509 0.980785 0
    outer loop
      vertex -0.612293 2.22179 4.6
      vertex 0 2.1 0
      vertex -0.612293 2.22179 0
    endloop
  endfacet
  facet normal 0.83147 0.55557 0
    outer loop
      vertex -1.13137 2.56863 4.6
      vertex -1.47821 3.08771 0
      vertex -1.47821 3.08771 4.6
    endloop
  endfacet
  facet normal 0.83147 0.55557 0
    outer loop
      vertex -1.47821 3.08771 0
      vertex -1.13137 2.56863 4.6
      vertex -1.13137 2.56863 0
    endloop
  endfacet
  facet normal 0.980785 0.19509 0
    outer loop
      vertex -1.47821 3.08771 4.6
      vertex -1.6 3.7 0
      vertex -1.6 3.7 4.6
    endloop
  endfacet
  facet normal 0.980785 0.19509 0
    outer loop
      vertex -1.6 3.7 0
      vertex -1.47821 3.08771 4.6
      vertex -1.47821 3.08771 0
    endloop
  endfacet
  facet normal -0.83147 0.55557 0
    outer loop
      vertex 1.13137 2.56863 0
      vertex 1.47821 3.08771 4.6
      vertex 1.47821 3.08771 0
    endloop
  endfacet
  facet normal -0.83147 0.55557 0
    outer loop
      vertex 1.47821 3.08771 4.6
      vertex 1.13137 2.56863 0
      vertex 1.13137 2.56863 4.6
    endloop
  endfacet
  facet normal 0.55557 0.83147 -0
    outer loop
      vertex -0.612293 2.22179 0
      vertex -1.13137 2.56863 4.6
      vertex -0.612293 2.22179 4.6
    endloop
  endfacet
  facet normal 0.55557 0.83147 0
    outer loop
      vertex -1.13137 2.56863 4.6
      vertex -0.612293 2.22179 0
      vertex -1.13137 2.56863 0
    endloop
  endfacet
  facet normal -0.980785 0.19509 0
    outer loop
      vertex 1.47821 3.08771 0
      vertex 1.6 3.7 4.6
      vertex 1.6 3.7 0
    endloop
  endfacet
  facet normal -0.980785 0.19509 0
    outer loop
      vertex 1.6 3.7 4.6
      vertex 1.47821 3.08771 0
      vertex 1.47821 3.08771 4.6
    endloop
  endfacet
  facet normal -0 0 1
    outer loop
      vertex 1.47821 4.31229 4.6
      vertex 3.3 3.7 4.6
      vertex 1.65 6.55788 4.6
    endloop
  endfacet
  facet normal 0 0 1
    outer loop
      vertex 1.47821 3.08771 4.6
      vertex 3.3 3.7 4.6
      vertex 1.6 3.7 4.6
    endloop
  endfacet
  facet normal 0 0 1
    outer loop
      vertex 3.3 3.7 4.6
      vertex 1.47821 4.31229 4.6
      vertex 1.6 3.7 4.6
    endloop
  endfacet
  facet normal 0 0 1
    outer loop
      vertex 1.65 6.55788 4.6
      vertex 1.13137 4.83137 4.6
      vertex 1.47821 4.31229 4.6
    endloop
  endfacet
  facet normal 0 0 1
    outer loop
      vertex 1.65 6.55788 4.6
      vertex 0.612293 5.17821 4.6
      vertex 1.13137 4.83137 4.6
    endloop
  endfacet
  facet normal 0 0 1
    outer loop
      vertex 1.65 6.55788 4.6
      vertex 0 5.3 4.6
      vertex 0.612293 5.17821 4.6
    endloop
  endfacet
  facet normal -0 0 1
    outer loop
      vertex -1.65 6.55788 4.6
      vertex 0 5.3 4.6
      vertex 1.65 6.55788 4.6
    endloop
  endfacet
  facet normal 0 0 1
    outer loop
      vertex -3.3 3.7 4.6
      vertex -1.47821 4.31229 4.6
      vertex -1.65 6.55788 4.6
    endloop
  endfacet
  facet normal 0 0 1
    outer loop
      vertex -1.13137 4.83137 4.6
      vertex -1.65 6.55788 4.6
      vertex -1.47821 4.31229 4.6
    endloop
  endfacet
  facet normal 0 0 1
    outer loop
      vertex -0.612293 5.17821 4.6
      vertex -1.65 6.55788 4.6
      vertex -1.13137 4.83137 4.6
    endloop
  endfacet
  facet normal 0 0 1
    outer loop
      vertex 0 5.3 4.6
      vertex -1.65 6.55788 4.6
      vertex -0.612293 5.17821 4.6
    endloop
  endfacet
  facet normal 0 0 1
    outer loop
      vertex 3.3 3.7 4.6
      vertex 1.47821 3.08771 4.6
      vertex 1.65 0.842115 4.6
    endloop
  endfacet
  facet normal -0 0 1
    outer loop
      vertex 1.13137 2.56863 4.6
      vertex 1.65 0.842115 4.6
      vertex 1.47821 3.08771 4.6
    endloop
  endfacet
  facet normal -0 0 1
    outer loop
      vertex 0.612293 2.22179 4.6
      vertex 1.65 0.842115 4.6
      vertex 1.13137 2.56863 4.6
    endloop
  endfacet
  facet normal -0 0 1
    outer loop
      vertex 0 2.1 4.6
      vertex 1.65 0.842115 4.6
      vertex 0.612293 2.22179 4.6
    endloop
  endfacet
  facet normal 0 0 1
    outer loop
      vertex -1.65 0.842115 4.6
      vertex 0 2.1 4.6
      vertex -0.612293 2.22179 4.6
    endloop
  endfacet
  facet normal 0 0 1
    outer loop
      vertex 0 2.1 4.6
      vertex -1.65 0.842115 4.6
      vertex 1.65 0.842115 4.6
    endloop
  endfacet
  facet normal 0 0 1
    outer loop
      vertex -1.13137 2.56863 4.6
      vertex -1.65 0.842115 4.6
      vertex -0.612293 2.22179 4.6
    endloop
  endfacet
  facet normal 0 0 1
    outer loop
      vertex -1.47821 3.08771 4.6
      vertex -1.65 0.842115 4.6
      vertex -1.13137 2.56863 4.6
    endloop
  endfacet
  facet normal -0 0 1
    outer loop
      vertex -3.3 3.7 4.6
      vertex -1.47821 3.08771 4.6
      vertex -1.6 3.7 4.6
    endloop
  endfacet
  facet normal 0 0 1
    outer loop
      vertex -1.47821 4.31229 4.6
      vertex -3.3 3.7 4.6
      vertex -1.6 3.7 4.6
    endloop
  endfacet
  facet normal 0 0 1
    outer loop
      vertex -1.47821 3.08771 4.6
      vertex -3.3 3.7 4.6
      vertex -1.65 0.842115 4.6
    endloop
  endfacet
  facet normal -0.866025 -0.5 0
    outer loop
      vertex 3.3 3.7 4.6
      vertex 1.65 6.55788 7
      vertex 1.65 6.55788 4.6
    endloop
  endfacet
  facet normal -0.866025 -0.5 0
    outer loop
      vertex 1.65 6.55788 7
      vertex 3.3 3.7 4.6
      vertex 3.3 3.7 7
    endloop
  endfacet
  facet normal 0 1 -0
    outer loop
      vertex 1.65 0.842115 4.6
      vertex -1.65 0.842115 7
      vertex 1.65 0.842115 7
    endloop
  endfacet
  facet normal 0 1 0
    outer loop
      vertex -1.65 0.842115 7
      vertex 1.65 0.842115 4.6
      vertex -1.65 0.842115 4.6
    endloop
  endfacet
  facet normal 0.866025 -0.5 0
    outer loop
      vertex -3.3 3.7 7
      vertex -1.65 6.55788 4.6
      vertex -1.65 6.55788 7
    endloop
  endfacet
  facet normal 0.866025 -0.5 0
    outer loop
      vertex -1.65 6.55788 4.6
      vertex -3.3 3.7 7
      vertex -3.3 3.7 4.6
    endloop
  endfacet
  facet normal 0 -1 0
    outer loop
      vertex -1.65 6.55788 4.6
      vertex 1.65 6.55788 7
      vertex -1.65 6.55788 7
    endloop
  endfacet
  facet normal 0 -1 -0
    outer loop
      vertex 1.65 6.55788 7
      vertex -1.65 6.55788 4.6
      vertex 1.65 6.55788 4.6
    endloop
  endfacet
  facet normal 0.866025 0.5 0
    outer loop
      vertex -1.65 0.842115 7
      vertex -3.3 3.7 4.6
      vertex -3.3 3.7 7
    endloop
  endfacet
  facet normal 0.866025 0.5 0
    outer loop
      vertex -3.3 3.7 4.6
      vertex -1.65 0.842115 7
      vertex -1.65 0.842115 4.6
    endloop
  endfacet
  facet normal -0.866025 0.5 0
    outer loop
      vertex 1.65 0.842115 4.6
      vertex 3.3 3.7 7
      vertex 3.3 3.7 4.6
    endloop
  endfacet
  facet normal -0.866025 0.5 0
    outer loop
      vertex 3.3 3.7 7
      vertex 1.65 0.842115 4.6
      vertex 1.65 0.842115 7
    endloop
  endfacet
  facet normal -0.819152 0 0.573576
    outer loop
      vertex 10.5 0 7
      vertex 16.8019 8 16
      vertex 10.5 8 7
    endloop
  endfacet
  facet normal -0.819152 0 0.573576
    outer loop
      vertex 16.8019 8 16
      vertex 10.5 0 7
      vertex 16.8019 0 16
    endloop
  endfacet
  facet normal 0.819152 -0 0.573576
    outer loop
      vertex 34.1981 0 16
      vertex 40.5 8 7
      vertex 34.1981 8 16
    endloop
  endfacet
  facet normal 0.819152 0 0.573576
    outer loop
      vertex 40.5 8 7
      vertex 34.1981 0 16
      vertex 40.5 0 7
    endloop
  endfacet
endsolid OpenSCAD_Model
