solid OpenSCAD_Model
  facet normal 0.980786 0.195089 0
    outer loop
      vertex 9.09134 -0.45922 1.75
      vertex 9 0 -1.75
      vertex 9 0 1.75
    endloop
  endfacet
  facet normal 0.980786 0.195089 0
    outer loop
      vertex 9 0 -1.75
      vertex 9.09134 -0.45922 1.75
      vertex 9.09134 -0.45922 -1.75
    endloop
  endfacet
  facet normal 0.195091 -0.980785 0
    outer loop
      vertex 9.74078 1.10865 -1.75
      vertex 9.88055 1.13646 1.75
      vertex 9.74078 1.10865 1.75
    endloop
  endfacet
  facet normal 0.195091 -0.980785 0
    outer loop
      vertex 9.88055 1.13646 1.75
      vertex 9.74078 1.10865 -1.75
      vertex 9.88055 1.13646 -1.75
    endloop
  endfacet
  facet normal 0.83147 -0.55557 0
    outer loop
      vertex 9.09134 0.45922 1.75
      vertex 9.35147 0.848528 -1.75
      vertex 9.35147 0.848528 1.75
    endloop
  endfacet
  facet normal 0.83147 -0.55557 0
    outer loop
      vertex 9.35147 0.848528 -1.75
      vertex 9.09134 0.45922 1.75
      vertex 9.09134 0.45922 -1.75
    endloop
  endfacet
  facet normal 0.980786 -0.195089 0
    outer loop
      vertex 9 0 1.75
      vertex 9.09134 0.45922 -1.75
      vertex 9.09134 0.45922 1.75
    endloop
  endfacet
  facet normal 0.980786 -0.195089 0
    outer loop
      vertex 9.09134 0.45922 -1.75
      vertex 9 0 1.75
      vertex 9 0 -1.75
    endloop
  endfacet
  facet normal 0.555569 -0.83147 0
    outer loop
      vertex 9.35147 0.848528 -1.75
      vertex 9.74078 1.10865 1.75
      vertex 9.35147 0.848528 1.75
    endloop
  endfacet
  facet normal 0.555569 -0.83147 0
    outer loop
      vertex 9.74078 1.10865 1.75
      vertex 9.35147 0.848528 -1.75
      vertex 9.74078 1.10865 -1.75
    endloop
  endfacet
  facet normal 0.83147 0.55557 0
    outer loop
      vertex 9.35147 -0.848528 1.75
      vertex 9.09134 -0.45922 -1.75
      vertex 9.09134 -0.45922 1.75
    endloop
  endfacet
  facet normal 0.83147 0.55557 0
    outer loop
      vertex 9.09134 -0.45922 -1.75
      vertex 9.35147 -0.848528 1.75
      vertex 9.35147 -0.848528 -1.75
    endloop
  endfacet
  facet normal 0.195091 0.980785 -0
    outer loop
      vertex 9.88055 -1.13646 -1.75
      vertex 9.74078 -1.10865 1.75
      vertex 9.88055 -1.13646 1.75
    endloop
  endfacet
  facet normal 0.195091 0.980785 0
    outer loop
      vertex 9.74078 -1.10865 1.75
      vertex 9.88055 -1.13646 -1.75
      vertex 9.74078 -1.10865 -1.75
    endloop
  endfacet
  facet normal 0.555569 0.83147 -0
    outer loop
      vertex 9.74078 -1.10865 -1.75
      vertex 9.35147 -0.848528 1.75
      vertex 9.74078 -1.10865 1.75
    endloop
  endfacet
  facet normal 0.555569 0.83147 0
    outer loop
      vertex 9.35147 -0.848528 1.75
      vertex 9.74078 -1.10865 -1.75
      vertex 9.35147 -0.848528 -1.75
    endloop
  endfacet
  facet normal 0.659346 -0.75184 0
    outer loop
      vertex 7.88143 5.83051 -1.75
      vertex 8.02189 5.95369 1.75
      vertex 7.88143 5.83051 1.75
    endloop
  endfacet
  facet normal 0.659346 -0.75184 0
    outer loop
      vertex 8.02189 5.95369 1.75
      vertex 7.88143 5.83051 -1.75
      vertex 8.02189 5.95369 -1.75
    endloop
  endfacet
  facet normal 0.997859 -0.0654044 0
    outer loop
      vertex 7.64372 4.94337 1.75
      vertex 7.67435 5.41058 -1.75
      vertex 7.67435 5.41058 1.75
    endloop
  endfacet
  facet normal 0.997859 -0.0654044 0
    outer loop
      vertex 7.67435 5.41058 -1.75
      vertex 7.64372 4.94337 1.75
      vertex 7.64372 4.94337 -1.75
    endloop
  endfacet
  facet normal 0.94693 0.321441 0
    outer loop
      vertex 7.79423 4.5 1.75
      vertex 7.64372 4.94337 -1.75
      vertex 7.64372 4.94337 1.75
    endloop
  endfacet
  facet normal 0.94693 0.321441 0
    outer loop
      vertex 7.64372 4.94337 -1.75
      vertex 7.79423 4.5 1.75
      vertex 7.79423 4.5 -1.75
    endloop
  endfacet
  facet normal 0.896873 -0.442288 0
    outer loop
      vertex 7.67435 5.41058 1.75
      vertex 7.88143 5.83051 -1.75
      vertex 7.88143 5.83051 1.75
    endloop
  endfacet
  facet normal 0.896873 -0.442288 0
    outer loop
      vertex 7.88143 5.83051 -1.75
      vertex 7.67435 5.41058 1.75
      vertex 7.67435 5.41058 -1.75
    endloop
  endfacet
  facet normal 0.44229 0.896872 -0
    outer loop
      vertex 8.52288 3.94089 -1.75
      vertex 8.10295 4.14798 1.75
      vertex 8.52288 3.94089 1.75
    endloop
  endfacet
  facet normal 0.44229 0.896872 0
    outer loop
      vertex 8.10295 4.14798 1.75
      vertex 8.52288 3.94089 -1.75
      vertex 8.10295 4.14798 -1.75
    endloop
  endfacet
  facet normal 0.751839 0.659347 0
    outer loop
      vertex 8.10295 4.14798 1.75
      vertex 7.79423 4.5 -1.75
      vertex 7.79423 4.5 1.75
    endloop
  endfacet
  facet normal 0.751839 0.659347 0
    outer loop
      vertex 7.79423 4.5 -1.75
      vertex 8.10295 4.14798 1.75
      vertex 8.10295 4.14798 -1.75
    endloop
  endfacet
  facet normal -0.321439 0.94693 0
    outer loop
      vertex 9.16699 3.97031 -1.75
      vertex 8.99009 3.91027 1.75
      vertex 9.16699 3.97031 1.75
    endloop
  endfacet
  facet normal -0.321439 0.94693 0
    outer loop
      vertex 8.99009 3.91027 1.75
      vertex 9.16699 3.97031 -1.75
      vertex 8.99009 3.91027 -1.75
    endloop
  endfacet
  facet normal 0.0654023 0.997859 -0
    outer loop
      vertex 8.99009 3.91027 -1.75
      vertex 8.52288 3.94089 1.75
      vertex 8.99009 3.91027 1.75
    endloop
  endfacet
  facet normal 0.0654023 0.997859 0
    outer loop
      vertex 8.52288 3.94089 1.75
      vertex 8.99009 3.91027 -1.75
      vertex 8.52288 3.94089 -1.75
    endloop
  endfacet
  facet normal 0.94693 -0.321439 0
    outer loop
      vertex 3.91027 8.99009 1.75
      vertex 3.95607 9.12504 -1.75
      vertex 3.95607 9.12504 1.75
    endloop
  endfacet
  facet normal 0.94693 -0.321439 0
    outer loop
      vertex 3.95607 9.12504 -1.75
      vertex 3.91027 8.99009 1.75
      vertex 3.91027 8.99009 -1.75
    endloop
  endfacet
  facet normal 0.659346 0.75184 -0
    outer loop
      vertex 4.5 7.79423 -1.75
      vertex 4.14798 8.10295 1.75
      vertex 4.5 7.79423 1.75
    endloop
  endfacet
  facet normal 0.659346 0.75184 0
    outer loop
      vertex 4.14798 8.10295 1.75
      vertex 4.5 7.79423 -1.75
      vertex 4.14798 8.10295 -1.75
    endloop
  endfacet
  facet normal 0.997859 0.0654023 0
    outer loop
      vertex 3.94089 8.52288 1.75
      vertex 3.91027 8.99009 -1.75
      vertex 3.91027 8.99009 1.75
    endloop
  endfacet
  facet normal 0.997859 0.0654023 0
    outer loop
      vertex 3.91027 8.99009 -1.75
      vertex 3.94089 8.52288 1.75
      vertex 3.94089 8.52288 -1.75
    endloop
  endfacet
  facet normal 0.321441 0.946929 -0
    outer loop
      vertex 4.94337 7.64372 -1.75
      vertex 4.5 7.79423 1.75
      vertex 4.94337 7.64372 1.75
    endloop
  endfacet
  facet normal 0.321441 0.946929 0
    outer loop
      vertex 4.5 7.79423 1.75
      vertex 4.94337 7.64372 -1.75
      vertex 4.5 7.79423 -1.75
    endloop
  endfacet
  facet normal 0.896872 0.44229 0
    outer loop
      vertex 4.14798 8.10295 1.75
      vertex 3.94089 8.52288 -1.75
      vertex 3.94089 8.52288 1.75
    endloop
  endfacet
  facet normal 0.896872 0.44229 0
    outer loop
      vertex 3.94089 8.52288 -1.75
      vertex 4.14798 8.10295 1.75
      vertex 4.14798 8.10295 -1.75
    endloop
  endfacet
  facet normal -0.751839 0.659347 0
    outer loop
      vertex 5.83051 7.88143 -1.75
      vertex 5.92448 7.98858 1.75
      vertex 5.92448 7.98858 -1.75
    endloop
  endfacet
  facet normal -0.751839 0.659347 0
    outer loop
      vertex 5.92448 7.98858 1.75
      vertex 5.83051 7.88143 -1.75
      vertex 5.83051 7.88143 1.75
    endloop
  endfacet
  facet normal -0.442288 0.896873 0
    outer loop
      vertex 5.83051 7.88143 -1.75
      vertex 5.41058 7.67435 1.75
      vertex 5.83051 7.88143 1.75
    endloop
  endfacet
  facet normal -0.442288 0.896873 0
    outer loop
      vertex 5.41058 7.67435 1.75
      vertex 5.83051 7.88143 -1.75
      vertex 5.41058 7.67435 -1.75
    endloop
  endfacet
  facet normal -0.0654044 0.997859 0
    outer loop
      vertex 5.41058 7.67435 -1.75
      vertex 4.94337 7.64372 1.75
      vertex 5.41058 7.67435 1.75
    endloop
  endfacet
  facet normal -0.0654044 0.997859 0
    outer loop
      vertex 4.94337 7.64372 1.75
      vertex 5.41058 7.67435 -1.75
      vertex 4.94337 7.64372 -1.75
    endloop
  endfacet
  facet normal 0.195089 0.980786 -0
    outer loop
      vertex 0 9 -1.75
      vertex -0.45922 9.09134 1.75
      vertex 0 9 1.75
    endloop
  endfacet
  facet normal 0.195089 0.980786 0
    outer loop
      vertex -0.45922 9.09134 1.75
      vertex 0 9 -1.75
      vertex -0.45922 9.09134 -1.75
    endloop
  endfacet
  facet normal 0.83147 0.555569 0
    outer loop
      vertex -0.848528 9.35147 1.75
      vertex -1.10865 9.74078 -1.75
      vertex -1.10865 9.74078 1.75
    endloop
  endfacet
  facet normal 0.83147 0.555569 0
    outer loop
      vertex -1.10865 9.74078 -1.75
      vertex -0.848528 9.35147 1.75
      vertex -0.848528 9.35147 -1.75
    endloop
  endfacet
  facet normal 0.980785 0.195091 0
    outer loop
      vertex -1.10865 9.74078 1.75
      vertex -1.1451 9.924 -1.75
      vertex -1.1451 9.924 1.75
    endloop
  endfacet
  facet normal 0.980785 0.195091 0
    outer loop
      vertex -1.1451 9.924 -1.75
      vertex -1.10865 9.74078 1.75
      vertex -1.10865 9.74078 -1.75
    endloop
  endfacet
  facet normal -0.195089 0.980786 0
    outer loop
      vertex 0.45922 9.09134 -1.75
      vertex 0 9 1.75
      vertex 0.45922 9.09134 1.75
    endloop
  endfacet
  facet normal -0.195089 0.980786 0
    outer loop
      vertex 0 9 1.75
      vertex 0.45922 9.09134 -1.75
      vertex 0 9 -1.75
    endloop
  endfacet
  facet normal 0.55557 0.83147 -0
    outer loop
      vertex -0.45922 9.09134 -1.75
      vertex -0.848528 9.35147 1.75
      vertex -0.45922 9.09134 1.75
    endloop
  endfacet
  facet normal 0.55557 0.83147 0
    outer loop
      vertex -0.848528 9.35147 1.75
      vertex -0.45922 9.09134 -1.75
      vertex -0.848528 9.35147 -1.75
    endloop
  endfacet
  facet normal -0.980785 0.195091 0
    outer loop
      vertex 1.10865 9.74078 -1.75
      vertex 1.1451 9.924 1.75
      vertex 1.1451 9.924 -1.75
    endloop
  endfacet
  facet normal -0.980785 0.195091 0
    outer loop
      vertex 1.1451 9.924 1.75
      vertex 1.10865 9.74078 -1.75
      vertex 1.10865 9.74078 1.75
    endloop
  endfacet
  facet normal -0.83147 0.555569 0
    outer loop
      vertex 0.848528 9.35147 -1.75
      vertex 1.10865 9.74078 1.75
      vertex 1.10865 9.74078 -1.75
    endloop
  endfacet
  facet normal -0.83147 0.555569 0
    outer loop
      vertex 1.10865 9.74078 1.75
      vertex 0.848528 9.35147 -1.75
      vertex 0.848528 9.35147 1.75
    endloop
  endfacet
  facet normal -0.55557 0.83147 0
    outer loop
      vertex 0.848528 9.35147 -1.75
      vertex 0.45922 9.09134 1.75
      vertex 0.848528 9.35147 1.75
    endloop
  endfacet
  facet normal -0.55557 0.83147 0
    outer loop
      vertex 0.45922 9.09134 1.75
      vertex 0.848528 9.35147 -1.75
      vertex 0.45922 9.09134 -1.75
    endloop
  endfacet
  facet normal -0.321441 0.94693 0
    outer loop
      vertex -4.5 7.79423 -1.75
      vertex -4.94337 7.64372 1.75
      vertex -4.5 7.79423 1.75
    endloop
  endfacet
  facet normal -0.321441 0.94693 0
    outer loop
      vertex -4.94337 7.64372 1.75
      vertex -4.5 7.79423 -1.75
      vertex -4.94337 7.64372 -1.75
    endloop
  endfacet
  facet normal 0.442288 0.896873 -0
    outer loop
      vertex -5.41058 7.67435 -1.75
      vertex -5.83051 7.88143 1.75
      vertex -5.41058 7.67435 1.75
    endloop
  endfacet
  facet normal 0.442288 0.896873 0
    outer loop
      vertex -5.83051 7.88143 1.75
      vertex -5.41058 7.67435 -1.75
      vertex -5.83051 7.88143 -1.75
    endloop
  endfacet
  facet normal 0.75184 0.659345 0
    outer loop
      vertex -5.83051 7.88143 1.75
      vertex -5.92448 7.98858 -1.75
      vertex -5.92448 7.98858 1.75
    endloop
  endfacet
  facet normal 0.75184 0.659345 0
    outer loop
      vertex -5.92448 7.98858 -1.75
      vertex -5.83051 7.88143 1.75
      vertex -5.83051 7.88143 -1.75
    endloop
  endfacet
  facet normal 0.0654044 0.997859 -0
    outer loop
      vertex -4.94337 7.64372 -1.75
      vertex -5.41058 7.67435 1.75
      vertex -4.94337 7.64372 1.75
    endloop
  endfacet
  facet normal 0.0654044 0.997859 0
    outer loop
      vertex -5.41058 7.67435 1.75
      vertex -4.94337 7.64372 -1.75
      vertex -5.41058 7.67435 -1.75
    endloop
  endfacet
  facet normal -0.659347 0.751839 0
    outer loop
      vertex -4.14798 8.10295 -1.75
      vertex -4.5 7.79423 1.75
      vertex -4.14798 8.10295 1.75
    endloop
  endfacet
  facet normal -0.659347 0.751839 0
    outer loop
      vertex -4.5 7.79423 1.75
      vertex -4.14798 8.10295 -1.75
      vertex -4.5 7.79423 -1.75
    endloop
  endfacet
  facet normal -0.896872 0.44229 0
    outer loop
      vertex -4.14798 8.10295 -1.75
      vertex -3.94089 8.52288 1.75
      vertex -3.94089 8.52288 -1.75
    endloop
  endfacet
  facet normal -0.896872 0.44229 0
    outer loop
      vertex -3.94089 8.52288 1.75
      vertex -4.14798 8.10295 -1.75
      vertex -4.14798 8.10295 1.75
    endloop
  endfacet
  facet normal -0.94693 -0.321439 0
    outer loop
      vertex -3.91027 8.99009 -1.75
      vertex -3.95607 9.12504 1.75
      vertex -3.95607 9.12504 -1.75
    endloop
  endfacet
  facet normal -0.94693 -0.321439 0
    outer loop
      vertex -3.95607 9.12504 1.75
      vertex -3.91027 8.99009 -1.75
      vertex -3.91027 8.99009 1.75
    endloop
  endfacet
  facet normal -0.997859 0.0654023 0
    outer loop
      vertex -3.94089 8.52288 -1.75
      vertex -3.91027 8.99009 1.75
      vertex -3.91027 8.99009 -1.75
    endloop
  endfacet
  facet normal -0.997859 0.0654023 0
    outer loop
      vertex -3.91027 8.99009 1.75
      vertex -3.94089 8.52288 -1.75
      vertex -3.94089 8.52288 1.75
    endloop
  endfacet
  facet normal -0.751839 0.659347 0
    outer loop
      vertex -8.10295 4.14798 -1.75
      vertex -7.79423 4.5 1.75
      vertex -7.79423 4.5 -1.75
    endloop
  endfacet
  facet normal -0.751839 0.659347 0
    outer loop
      vertex -7.79423 4.5 1.75
      vertex -8.10295 4.14798 -1.75
      vertex -8.10295 4.14798 1.75
    endloop
  endfacet
  facet normal -0.0654023 0.997859 0
    outer loop
      vertex -8.52288 3.94089 -1.75
      vertex -8.99009 3.91027 1.75
      vertex -8.52288 3.94089 1.75
    endloop
  endfacet
  facet normal -0.0654023 0.997859 0
    outer loop
      vertex -8.99009 3.91027 1.75
      vertex -8.52288 3.94089 -1.75
      vertex -8.99009 3.91027 -1.75
    endloop
  endfacet
  facet normal 0.321439 0.94693 -0
    outer loop
      vertex -8.99009 3.91027 -1.75
      vertex -9.16699 3.97031 1.75
      vertex -8.99009 3.91027 1.75
    endloop
  endfacet
  facet normal 0.321439 0.94693 0
    outer loop
      vertex -9.16699 3.97031 1.75
      vertex -8.99009 3.91027 -1.75
      vertex -9.16699 3.97031 -1.75
    endloop
  endfacet
  facet normal -0.94693 0.321441 0
    outer loop
      vertex -7.79423 4.5 -1.75
      vertex -7.64372 4.94337 1.75
      vertex -7.64372 4.94337 -1.75
    endloop
  endfacet
  facet normal -0.94693 0.321441 0
    outer loop
      vertex -7.64372 4.94337 1.75
      vertex -7.79423 4.5 -1.75
      vertex -7.79423 4.5 1.75
    endloop
  endfacet
  facet normal -0.44229 0.896872 0
    outer loop
      vertex -8.10295 4.14798 -1.75
      vertex -8.52288 3.94089 1.75
      vertex -8.10295 4.14798 1.75
    endloop
  endfacet
  facet normal -0.44229 0.896872 0
    outer loop
      vertex -8.52288 3.94089 1.75
      vertex -8.10295 4.14798 -1.75
      vertex -8.52288 3.94089 -1.75
    endloop
  endfacet
  facet normal -0.659346 -0.75184 0
    outer loop
      vertex -8.02189 5.95369 -1.75
      vertex -7.88143 5.83051 1.75
      vertex -8.02189 5.95369 1.75
    endloop
  endfacet
  facet normal -0.659346 -0.75184 -0
    outer loop
      vertex -7.88143 5.83051 1.75
      vertex -8.02189 5.95369 -1.75
      vertex -7.88143 5.83051 -1.75
    endloop
  endfacet
  facet normal -0.896873 -0.442288 0
    outer loop
      vertex -7.67435 5.41058 -1.75
      vertex -7.88143 5.83051 1.75
      vertex -7.88143 5.83051 -1.75
    endloop
  endfacet
  facet normal -0.896873 -0.442288 0
    outer loop
      vertex -7.88143 5.83051 1.75
      vertex -7.67435 5.41058 -1.75
      vertex -7.67435 5.41058 1.75
    endloop
  endfacet
  facet normal -0.997859 -0.0654044 0
    outer loop
      vertex -7.64372 4.94337 -1.75
      vertex -7.67435 5.41058 1.75
      vertex -7.67435 5.41058 -1.75
    endloop
  endfacet
  facet normal -0.997859 -0.0654044 0
    outer loop
      vertex -7.67435 5.41058 1.75
      vertex -7.64372 4.94337 -1.75
      vertex -7.64372 4.94337 1.75
    endloop
  endfacet
  facet normal -0.980786 -0.195089 0
    outer loop
      vertex -9 0 -1.75
      vertex -9.09134 0.45922 1.75
      vertex -9.09134 0.45922 -1.75
    endloop
  endfacet
  facet normal -0.980786 -0.195089 0
    outer loop
      vertex -9.09134 0.45922 1.75
      vertex -9 0 -1.75
      vertex -9 0 1.75
    endloop
  endfacet
  facet normal -0.980786 0.195089 0
    outer loop
      vertex -9.09134 -0.45922 -1.75
      vertex -9 0 1.75
      vertex -9 0 -1.75
    endloop
  endfacet
  facet normal -0.980786 0.195089 0
    outer loop
      vertex -9 0 1.75
      vertex -9.09134 -0.45922 -1.75
      vertex -9.09134 -0.45922 1.75
    endloop
  endfacet
  facet normal -0.555569 0.83147 0
    outer loop
      vertex -9.35147 -0.848528 -1.75
      vertex -9.74078 -1.10865 1.75
      vertex -9.35147 -0.848528 1.75
    endloop
  endfacet
  facet normal -0.555569 0.83147 0
    outer loop
      vertex -9.74078 -1.10865 1.75
      vertex -9.35147 -0.848528 -1.75
      vertex -9.74078 -1.10865 -1.75
    endloop
  endfacet
  facet normal -0.195091 0.980785 0
    outer loop
      vertex -9.74078 -1.10865 -1.75
      vertex -9.88055 -1.13646 1.75
      vertex -9.74078 -1.10865 1.75
    endloop
  endfacet
  facet normal -0.195091 0.980785 0
    outer loop
      vertex -9.88055 -1.13646 1.75
      vertex -9.74078 -1.10865 -1.75
      vertex -9.88055 -1.13646 -1.75
    endloop
  endfacet
  facet normal -0.83147 0.55557 0
    outer loop
      vertex -9.35147 -0.848528 -1.75
      vertex -9.09134 -0.45922 1.75
      vertex -9.09134 -0.45922 -1.75
    endloop
  endfacet
  facet normal -0.83147 0.55557 0
    outer loop
      vertex -9.09134 -0.45922 1.75
      vertex -9.35147 -0.848528 -1.75
      vertex -9.35147 -0.848528 1.75
    endloop
  endfacet
  facet normal -0.195091 -0.980785 0
    outer loop
      vertex -9.88055 1.13646 -1.75
      vertex -9.74078 1.10865 1.75
      vertex -9.88055 1.13646 1.75
    endloop
  endfacet
  facet normal -0.195091 -0.980785 -0
    outer loop
      vertex -9.74078 1.10865 1.75
      vertex -9.88055 1.13646 -1.75
      vertex -9.74078 1.10865 -1.75
    endloop
  endfacet
  facet normal -0.555569 -0.83147 0
    outer loop
      vertex -9.74078 1.10865 -1.75
      vertex -9.35147 0.848528 1.75
      vertex -9.74078 1.10865 1.75
    endloop
  endfacet
  facet normal -0.555569 -0.83147 -0
    outer loop
      vertex -9.35147 0.848528 1.75
      vertex -9.74078 1.10865 -1.75
      vertex -9.35147 0.848528 -1.75
    endloop
  endfacet
  facet normal -0.83147 -0.55557 0
    outer loop
      vertex -9.09134 0.45922 -1.75
      vertex -9.35147 0.848528 1.75
      vertex -9.35147 0.848528 -1.75
    endloop
  endfacet
  facet normal -0.83147 -0.55557 0
    outer loop
      vertex -9.35147 0.848528 1.75
      vertex -9.09134 0.45922 -1.75
      vertex -9.09134 0.45922 1.75
    endloop
  endfacet
  facet normal -0.946929 -0.321441 0
    outer loop
      vertex -7.64372 -4.94337 -1.75
      vertex -7.79423 -4.5 1.75
      vertex -7.79423 -4.5 -1.75
    endloop
  endfacet
  facet normal -0.946929 -0.321441 0
    outer loop
      vertex -7.79423 -4.5 1.75
      vertex -7.64372 -4.94337 -1.75
      vertex -7.64372 -4.94337 1.75
    endloop
  endfacet
  facet normal -0.896873 0.442288 0
    outer loop
      vertex -7.88143 -5.83051 -1.75
      vertex -7.67435 -5.41058 1.75
      vertex -7.67435 -5.41058 -1.75
    endloop
  endfacet
  facet normal -0.896873 0.442288 0
    outer loop
      vertex -7.67435 -5.41058 1.75
      vertex -7.88143 -5.83051 -1.75
      vertex -7.88143 -5.83051 1.75
    endloop
  endfacet
  facet normal -0.659346 0.75184 0
    outer loop
      vertex -7.88143 -5.83051 -1.75
      vertex -8.02189 -5.95369 1.75
      vertex -7.88143 -5.83051 1.75
    endloop
  endfacet
  facet normal -0.659346 0.75184 0
    outer loop
      vertex -8.02189 -5.95369 1.75
      vertex -7.88143 -5.83051 -1.75
      vertex -8.02189 -5.95369 -1.75
    endloop
  endfacet
  facet normal -0.997859 0.0654044 0
    outer loop
      vertex -7.67435 -5.41058 -1.75
      vertex -7.64372 -4.94337 1.75
      vertex -7.64372 -4.94337 -1.75
    endloop
  endfacet
  facet normal -0.997859 0.0654044 0
    outer loop
      vertex -7.64372 -4.94337 1.75
      vertex -7.67435 -5.41058 -1.75
      vertex -7.67435 -5.41058 1.75
    endloop
  endfacet
  facet normal -0.44229 -0.896872 0
    outer loop
      vertex -8.52288 -3.94089 -1.75
      vertex -8.10295 -4.14798 1.75
      vertex -8.52288 -3.94089 1.75
    endloop
  endfacet
  facet normal -0.44229 -0.896872 -0
    outer loop
      vertex -8.10295 -4.14798 1.75
      vertex -8.52288 -3.94089 -1.75
      vertex -8.10295 -4.14798 -1.75
    endloop
  endfacet
  facet normal -0.75184 -0.659346 0
    outer loop
      vertex -7.79423 -4.5 -1.75
      vertex -8.10295 -4.14798 1.75
      vertex -8.10295 -4.14798 -1.75
    endloop
  endfacet
  facet normal -0.75184 -0.659346 0
    outer loop
      vertex -8.10295 -4.14798 1.75
      vertex -7.79423 -4.5 -1.75
      vertex -7.79423 -4.5 1.75
    endloop
  endfacet
  facet normal 0.321439 -0.94693 0
    outer loop
      vertex -9.16699 -3.97031 -1.75
      vertex -8.99009 -3.91027 1.75
      vertex -9.16699 -3.97031 1.75
    endloop
  endfacet
  facet normal 0.321439 -0.94693 0
    outer loop
      vertex -8.99009 -3.91027 1.75
      vertex -9.16699 -3.97031 -1.75
      vertex -8.99009 -3.91027 -1.75
    endloop
  endfacet
  facet normal -0.0654023 -0.997859 0
    outer loop
      vertex -8.99009 -3.91027 -1.75
      vertex -8.52288 -3.94089 1.75
      vertex -8.99009 -3.91027 1.75
    endloop
  endfacet
  facet normal -0.0654023 -0.997859 -0
    outer loop
      vertex -8.52288 -3.94089 1.75
      vertex -8.99009 -3.91027 -1.75
      vertex -8.52288 -3.94089 -1.75
    endloop
  endfacet
  facet normal -0.321441 -0.946929 0
    outer loop
      vertex -4.94337 -7.64372 -1.75
      vertex -4.5 -7.79423 1.75
      vertex -4.94337 -7.64372 1.75
    endloop
  endfacet
  facet normal -0.321441 -0.946929 -0
    outer loop
      vertex -4.5 -7.79423 1.75
      vertex -4.94337 -7.64372 -1.75
      vertex -4.5 -7.79423 -1.75
    endloop
  endfacet
  facet normal -0.94693 0.321439 0
    outer loop
      vertex -3.95607 -9.12504 -1.75
      vertex -3.91027 -8.99009 1.75
      vertex -3.91027 -8.99009 -1.75
    endloop
  endfacet
  facet normal -0.94693 0.321439 0
    outer loop
      vertex -3.91027 -8.99009 1.75
      vertex -3.95607 -9.12504 -1.75
      vertex -3.95607 -9.12504 1.75
    endloop
  endfacet
  facet normal -0.997859 -0.0654023 0
    outer loop
      vertex -3.91027 -8.99009 -1.75
      vertex -3.94089 -8.52288 1.75
      vertex -3.94089 -8.52288 -1.75
    endloop
  endfacet
  facet normal -0.997859 -0.0654023 0
    outer loop
      vertex -3.94089 -8.52288 1.75
      vertex -3.91027 -8.99009 -1.75
      vertex -3.91027 -8.99009 1.75
    endloop
  endfacet
  facet normal -0.659346 -0.75184 0
    outer loop
      vertex -4.5 -7.79423 -1.75
      vertex -4.14798 -8.10295 1.75
      vertex -4.5 -7.79423 1.75
    endloop
  endfacet
  facet normal -0.659346 -0.75184 -0
    outer loop
      vertex -4.14798 -8.10295 1.75
      vertex -4.5 -7.79423 -1.75
      vertex -4.14798 -8.10295 -1.75
    endloop
  endfacet
  facet normal -0.896872 -0.44229 0
    outer loop
      vertex -3.94089 -8.52288 -1.75
      vertex -4.14798 -8.10295 1.75
      vertex -4.14798 -8.10295 -1.75
    endloop
  endfacet
  facet normal -0.896872 -0.44229 0
    outer loop
      vertex -4.14798 -8.10295 1.75
      vertex -3.94089 -8.52288 -1.75
      vertex -3.94089 -8.52288 1.75
    endloop
  endfacet
  facet normal 0.442288 -0.896873 0
    outer loop
      vertex -5.83051 -7.88143 -1.75
      vertex -5.41058 -7.67435 1.75
      vertex -5.83051 -7.88143 1.75
    endloop
  endfacet
  facet normal 0.442288 -0.896873 0
    outer loop
      vertex -5.41058 -7.67435 1.75
      vertex -5.83051 -7.88143 -1.75
      vertex -5.41058 -7.67435 -1.75
    endloop
  endfacet
  facet normal 0.751839 -0.659347 0
    outer loop
      vertex -5.92448 -7.98858 1.75
      vertex -5.83051 -7.88143 -1.75
      vertex -5.83051 -7.88143 1.75
    endloop
  endfacet
  facet normal 0.751839 -0.659347 0
    outer loop
      vertex -5.83051 -7.88143 -1.75
      vertex -5.92448 -7.98858 1.75
      vertex -5.92448 -7.98858 -1.75
    endloop
  endfacet
  facet normal 0.0654044 -0.997859 0
    outer loop
      vertex -5.41058 -7.67435 -1.75
      vertex -4.94337 -7.64372 1.75
      vertex -5.41058 -7.67435 1.75
    endloop
  endfacet
  facet normal 0.0654044 -0.997859 0
    outer loop
      vertex -4.94337 -7.64372 1.75
      vertex -5.41058 -7.67435 -1.75
      vertex -4.94337 -7.64372 -1.75
    endloop
  endfacet
  facet normal 0.195089 -0.980786 0
    outer loop
      vertex -0.45922 -9.09134 -1.75
      vertex 0 -9 1.75
      vertex -0.45922 -9.09134 1.75
    endloop
  endfacet
  facet normal 0.195089 -0.980786 0
    outer loop
      vertex 0 -9 1.75
      vertex -0.45922 -9.09134 -1.75
      vertex 0 -9 -1.75
    endloop
  endfacet
  facet normal -0.980785 -0.195091 0
    outer loop
      vertex 1.1451 -9.924 -1.75
      vertex 1.10865 -9.74078 1.75
      vertex 1.10865 -9.74078 -1.75
    endloop
  endfacet
  facet normal -0.980785 -0.195091 0
    outer loop
      vertex 1.10865 -9.74078 1.75
      vertex 1.1451 -9.924 -1.75
      vertex 1.1451 -9.924 1.75
    endloop
  endfacet
  facet normal -0.55557 -0.83147 0
    outer loop
      vertex 0.45922 -9.09134 -1.75
      vertex 0.848528 -9.35147 1.75
      vertex 0.45922 -9.09134 1.75
    endloop
  endfacet
  facet normal -0.55557 -0.83147 -0
    outer loop
      vertex 0.848528 -9.35147 1.75
      vertex 0.45922 -9.09134 -1.75
      vertex 0.848528 -9.35147 -1.75
    endloop
  endfacet
  facet normal -0.195089 -0.980786 0
    outer loop
      vertex 0 -9 -1.75
      vertex 0.45922 -9.09134 1.75
      vertex 0 -9 1.75
    endloop
  endfacet
  facet normal -0.195089 -0.980786 -0
    outer loop
      vertex 0.45922 -9.09134 1.75
      vertex 0 -9 -1.75
      vertex 0.45922 -9.09134 -1.75
    endloop
  endfacet
  facet normal -0.83147 -0.555569 0
    outer loop
      vertex 1.10865 -9.74078 -1.75
      vertex 0.848528 -9.35147 1.75
      vertex 0.848528 -9.35147 -1.75
    endloop
  endfacet
  facet normal -0.83147 -0.555569 0
    outer loop
      vertex 0.848528 -9.35147 1.75
      vertex 1.10865 -9.74078 -1.75
      vertex 1.10865 -9.74078 1.75
    endloop
  endfacet
  facet normal 0.980785 -0.195091 0
    outer loop
      vertex -1.1451 -9.924 1.75
      vertex -1.10865 -9.74078 -1.75
      vertex -1.10865 -9.74078 1.75
    endloop
  endfacet
  facet normal 0.980785 -0.195091 0
    outer loop
      vertex -1.10865 -9.74078 -1.75
      vertex -1.1451 -9.924 1.75
      vertex -1.1451 -9.924 -1.75
    endloop
  endfacet
  facet normal 0.83147 -0.555569 0
    outer loop
      vertex -1.10865 -9.74078 1.75
      vertex -0.848528 -9.35147 -1.75
      vertex -0.848528 -9.35147 1.75
    endloop
  endfacet
  facet normal 0.83147 -0.555569 0
    outer loop
      vertex -0.848528 -9.35147 -1.75
      vertex -1.10865 -9.74078 1.75
      vertex -1.10865 -9.74078 -1.75
    endloop
  endfacet
  facet normal 0.55557 -0.83147 0
    outer loop
      vertex -0.848528 -9.35147 -1.75
      vertex -0.45922 -9.09134 1.75
      vertex -0.848528 -9.35147 1.75
    endloop
  endfacet
  facet normal 0.55557 -0.83147 0
    outer loop
      vertex -0.45922 -9.09134 1.75
      vertex -0.848528 -9.35147 -1.75
      vertex -0.45922 -9.09134 -1.75
    endloop
  endfacet
  facet normal 0.321441 -0.946929 0
    outer loop
      vertex 4.5 -7.79423 -1.75
      vertex 4.94337 -7.64372 1.75
      vertex 4.5 -7.79423 1.75
    endloop
  endfacet
  facet normal 0.321441 -0.946929 0
    outer loop
      vertex 4.94337 -7.64372 1.75
      vertex 4.5 -7.79423 -1.75
      vertex 4.94337 -7.64372 -1.75
    endloop
  endfacet
  facet normal -0.751839 -0.659347 0
    outer loop
      vertex 5.92448 -7.98858 -1.75
      vertex 5.83051 -7.88143 1.75
      vertex 5.83051 -7.88143 -1.75
    endloop
  endfacet
  facet normal -0.751839 -0.659347 0
    outer loop
      vertex 5.83051 -7.88143 1.75
      vertex 5.92448 -7.98858 -1.75
      vertex 5.92448 -7.98858 1.75
    endloop
  endfacet
  facet normal -0.0654044 -0.997859 0
    outer loop
      vertex 4.94337 -7.64372 -1.75
      vertex 5.41058 -7.67435 1.75
      vertex 4.94337 -7.64372 1.75
    endloop
  endfacet
  facet normal -0.0654044 -0.997859 -0
    outer loop
      vertex 5.41058 -7.67435 1.75
      vertex 4.94337 -7.64372 -1.75
      vertex 5.41058 -7.67435 -1.75
    endloop
  endfacet
  facet normal -0.442288 -0.896873 0
    outer loop
      vertex 5.41058 -7.67435 -1.75
      vertex 5.83051 -7.88143 1.75
      vertex 5.41058 -7.67435 1.75
    endloop
  endfacet
  facet normal -0.442288 -0.896873 -0
    outer loop
      vertex 5.83051 -7.88143 1.75
      vertex 5.41058 -7.67435 -1.75
      vertex 5.83051 -7.88143 -1.75
    endloop
  endfacet
  facet normal 0.896872 -0.44229 0
    outer loop
      vertex 3.94089 -8.52288 1.75
      vertex 4.14798 -8.10295 -1.75
      vertex 4.14798 -8.10295 1.75
    endloop
  endfacet
  facet normal 0.896872 -0.44229 0
    outer loop
      vertex 4.14798 -8.10295 -1.75
      vertex 3.94089 -8.52288 1.75
      vertex 3.94089 -8.52288 -1.75
    endloop
  endfacet
  facet normal 0.659346 -0.75184 0
    outer loop
      vertex 4.14798 -8.10295 -1.75
      vertex 4.5 -7.79423 1.75
      vertex 4.14798 -8.10295 1.75
    endloop
  endfacet
  facet normal 0.659346 -0.75184 0
    outer loop
      vertex 4.5 -7.79423 1.75
      vertex 4.14798 -8.10295 -1.75
      vertex 4.5 -7.79423 -1.75
    endloop
  endfacet
  facet normal 0.94693 0.321439 0
    outer loop
      vertex 3.95607 -9.12504 1.75
      vertex 3.91027 -8.99009 -1.75
      vertex 3.91027 -8.99009 1.75
    endloop
  endfacet
  facet normal 0.94693 0.321439 0
    outer loop
      vertex 3.91027 -8.99009 -1.75
      vertex 3.95607 -9.12504 1.75
      vertex 3.95607 -9.12504 -1.75
    endloop
  endfacet
  facet normal 0.997859 -0.0654023 0
    outer loop
      vertex 3.91027 -8.99009 1.75
      vertex 3.94089 -8.52288 -1.75
      vertex 3.94089 -8.52288 1.75
    endloop
  endfacet
  facet normal 0.997859 -0.0654023 0
    outer loop
      vertex 3.94089 -8.52288 -1.75
      vertex 3.91027 -8.99009 1.75
      vertex 3.91027 -8.99009 -1.75
    endloop
  endfacet
  facet normal 0.946929 -0.321441 0
    outer loop
      vertex 7.64372 -4.94337 1.75
      vertex 7.79423 -4.5 -1.75
      vertex 7.79423 -4.5 1.75
    endloop
  endfacet
  facet normal 0.946929 -0.321441 0
    outer loop
      vertex 7.79423 -4.5 -1.75
      vertex 7.64372 -4.94337 1.75
      vertex 7.64372 -4.94337 -1.75
    endloop
  endfacet
  facet normal -0.321439 -0.94693 0
    outer loop
      vertex 8.99009 -3.91027 -1.75
      vertex 9.16699 -3.97031 1.75
      vertex 8.99009 -3.91027 1.75
    endloop
  endfacet
  facet normal -0.321439 -0.94693 -0
    outer loop
      vertex 9.16699 -3.97031 1.75
      vertex 8.99009 -3.91027 -1.75
      vertex 9.16699 -3.97031 -1.75
    endloop
  endfacet
  facet normal 0.44229 -0.896872 0
    outer loop
      vertex 8.10295 -4.14798 -1.75
      vertex 8.52288 -3.94089 1.75
      vertex 8.10295 -4.14798 1.75
    endloop
  endfacet
  facet normal 0.44229 -0.896872 0
    outer loop
      vertex 8.52288 -3.94089 1.75
      vertex 8.10295 -4.14798 -1.75
      vertex 8.52288 -3.94089 -1.75
    endloop
  endfacet
  facet normal 0.75184 -0.659346 0
    outer loop
      vertex 7.79423 -4.5 1.75
      vertex 8.10295 -4.14798 -1.75
      vertex 8.10295 -4.14798 1.75
    endloop
  endfacet
  facet normal 0.75184 -0.659346 0
    outer loop
      vertex 8.10295 -4.14798 -1.75
      vertex 7.79423 -4.5 1.75
      vertex 7.79423 -4.5 -1.75
    endloop
  endfacet
  facet normal 0.0654023 -0.997859 0
    outer loop
      vertex 8.52288 -3.94089 -1.75
      vertex 8.99009 -3.91027 1.75
      vertex 8.52288 -3.94089 1.75
    endloop
  endfacet
  facet normal 0.0654023 -0.997859 0
    outer loop
      vertex 8.99009 -3.91027 1.75
      vertex 8.52288 -3.94089 -1.75
      vertex 8.99009 -3.91027 -1.75
    endloop
  endfacet
  facet normal 0.659346 0.75184 -0
    outer loop
      vertex 8.02189 -5.95369 -1.75
      vertex 7.88143 -5.83051 1.75
      vertex 8.02189 -5.95369 1.75
    endloop
  endfacet
  facet normal 0.659346 0.75184 0
    outer loop
      vertex 7.88143 -5.83051 1.75
      vertex 8.02189 -5.95369 -1.75
      vertex 7.88143 -5.83051 -1.75
    endloop
  endfacet
  facet normal 0.997859 0.0654044 0
    outer loop
      vertex 7.67435 -5.41058 1.75
      vertex 7.64372 -4.94337 -1.75
      vertex 7.64372 -4.94337 1.75
    endloop
  endfacet
  facet normal 0.997859 0.0654044 0
    outer loop
      vertex 7.64372 -4.94337 -1.75
      vertex 7.67435 -5.41058 1.75
      vertex 7.67435 -5.41058 -1.75
    endloop
  endfacet
  facet normal 0.896873 0.442288 0
    outer loop
      vertex 7.88143 -5.83051 1.75
      vertex 7.67435 -5.41058 -1.75
      vertex 7.67435 -5.41058 1.75
    endloop
  endfacet
  facet normal 0.896873 0.442288 0
    outer loop
      vertex 7.67435 -5.41058 -1.75
      vertex 7.88143 -5.83051 1.75
      vertex 7.88143 -5.83051 -1.75
    endloop
  endfacet
  facet normal 0.994522 0.104529 0
    outer loop
      vertex 9.88055 1.13646 1.75
      vertex 9.78148 2.07912 -1.75
      vertex 9.78148 2.07912 1.75
    endloop
  endfacet
  facet normal 0.994522 0.104529 0
    outer loop
      vertex 9.78148 2.07912 -1.75
      vertex 9.88055 1.13646 1.75
      vertex 9.88055 1.13646 -1.75
    endloop
  endfacet
  facet normal -0.994522 0.104529 0
    outer loop
      vertex -9.88055 1.13646 -1.75
      vertex -9.78148 2.07912 1.75
      vertex -9.78148 2.07912 -1.75
    endloop
  endfacet
  facet normal -0.994522 0.104529 0
    outer loop
      vertex -9.78148 2.07912 1.75
      vertex -9.88055 1.13646 -1.75
      vertex -9.88055 1.13646 1.75
    endloop
  endfacet
  facet normal 0.587785 0.809017 -0
    outer loop
      vertex 6.69131 7.43145 -1.75
      vertex 5.92448 7.98858 1.75
      vertex 6.69131 7.43145 1.75
    endloop
  endfacet
  facet normal 0.587785 0.809017 0
    outer loop
      vertex 5.92448 7.98858 1.75
      vertex 6.69131 7.43145 -1.75
      vertex 5.92448 7.98858 -1.75
    endloop
  endfacet
  facet normal 0.406737 0.913545 -0
    outer loop
      vertex 3.95607 9.12504 -1.75
      vertex 3.09017 9.51056 1.75
      vertex 3.95607 9.12504 1.75
    endloop
  endfacet
  facet normal 0.406737 0.913545 0
    outer loop
      vertex 3.09017 9.51056 1.75
      vertex 3.95607 9.12504 -1.75
      vertex 3.09017 9.51056 -1.75
    endloop
  endfacet
  facet normal -0.743145 0.669131 0
    outer loop
      vertex -8.02189 5.95369 -1.75
      vertex -6.69131 7.43145 1.75
      vertex -6.69131 7.43145 -1.75
    endloop
  endfacet
  facet normal -0.743145 0.669131 0
    outer loop
      vertex -6.69131 7.43145 1.75
      vertex -8.02189 5.95369 -1.75
      vertex -8.02189 5.95369 1.75
    endloop
  endfacet
  facet normal -0.406737 0.913545 0
    outer loop
      vertex -3.09017 9.51056 -1.75
      vertex -3.95607 9.12504 1.75
      vertex -3.09017 9.51056 1.75
    endloop
  endfacet
  facet normal -0.406737 0.913545 0
    outer loop
      vertex -3.95607 9.12504 1.75
      vertex -3.09017 9.51056 -1.75
      vertex -3.95607 9.12504 -1.75
    endloop
  endfacet
  facet normal 0.951057 -0.309017 0
    outer loop
      vertex 9.16699 -3.97031 1.75
      vertex 9.78148 -2.07912 -1.75
      vertex 9.78148 -2.07912 1.75
    endloop
  endfacet
  facet normal 0.951057 -0.309017 0
    outer loop
      vertex 9.78148 -2.07912 -1.75
      vertex 9.16699 -3.97031 1.75
      vertex 9.16699 -3.97031 -1.75
    endloop
  endfacet
  facet normal 0.951057 0.309017 0
    outer loop
      vertex 9.78148 2.07912 1.75
      vertex 9.16699 3.97031 -1.75
      vertex 9.16699 3.97031 1.75
    endloop
  endfacet
  facet normal 0.951057 0.309017 0
    outer loop
      vertex 9.16699 3.97031 -1.75
      vertex 9.78148 2.07912 1.75
      vertex 9.78148 2.07912 -1.75
    endloop
  endfacet
  facet normal 0.743145 0.669131 0
    outer loop
      vertex 8.02189 5.95369 1.75
      vertex 6.69131 7.43145 -1.75
      vertex 6.69131 7.43145 1.75
    endloop
  endfacet
  facet normal 0.743145 0.669131 0
    outer loop
      vertex 6.69131 7.43145 -1.75
      vertex 8.02189 5.95369 1.75
      vertex 8.02189 5.95369 -1.75
    endloop
  endfacet
  facet normal 0.207911 0.978148 -0
    outer loop
      vertex 3.09017 9.51056 -1.75
      vertex 1.1451 9.924 1.75
      vertex 3.09017 9.51056 1.75
    endloop
  endfacet
  facet normal 0.207911 0.978148 0
    outer loop
      vertex 1.1451 9.924 1.75
      vertex 3.09017 9.51056 -1.75
      vertex 1.1451 9.924 -1.75
    endloop
  endfacet
  facet normal -0.951057 0.309017 0
    outer loop
      vertex -9.78148 2.07912 -1.75
      vertex -9.16699 3.97031 1.75
      vertex -9.16699 3.97031 -1.75
    endloop
  endfacet
  facet normal -0.951057 0.309017 0
    outer loop
      vertex -9.16699 3.97031 1.75
      vertex -9.78148 2.07912 -1.75
      vertex -9.78148 2.07912 1.75
    endloop
  endfacet
  facet normal -0 0 1
    outer loop
      vertex -8.10295 4.14798 1.75
      vertex -3.3 0 1.75
      vertex -7.79423 4.5 1.75
    endloop
  endfacet
  facet normal 0 0 1
    outer loop
      vertex -3.3 0 1.75
      vertex -7.79423 -4.5 1.75
      vertex -7.64372 -4.94337 1.75
    endloop
  endfacet
  facet normal -0 0 1
    outer loop
      vertex -9.09134 0.45922 1.75
      vertex -3.3 0 1.75
      vertex -8.10295 4.14798 1.75
    endloop
  endfacet
  facet normal 0 0 1
    outer loop
      vertex -9.09134 -0.45922 1.75
      vertex -3.3 0 1.75
      vertex -9 0 1.75
    endloop
  endfacet
  facet normal 0 0 1
    outer loop
      vertex -9.09134 0.45922 1.75
      vertex -8.10295 4.14798 1.75
      vertex -8.52288 3.94089 1.75
    endloop
  endfacet
  facet normal 0 0 1
    outer loop
      vertex -3.3 0 1.75
      vertex -8.10295 -4.14798 1.75
      vertex -7.79423 -4.5 1.75
    endloop
  endfacet
  facet normal 0 0 1
    outer loop
      vertex -9.78148 2.07912 1.75
      vertex -8.52288 3.94089 1.75
      vertex -8.99009 3.91027 1.75
    endloop
  endfacet
  facet normal 0 0 1
    outer loop
      vertex -3.3 0 1.75
      vertex -9.09134 -0.45922 1.75
      vertex -8.10295 -4.14798 1.75
    endloop
  endfacet
  facet normal 0 0 1
    outer loop
      vertex -8.10295 -4.14798 1.75
      vertex -9.09134 -0.45922 1.75
      vertex -8.52288 -3.94089 1.75
    endloop
  endfacet
  facet normal 0 0 1
    outer loop
      vertex -3.3 0 1.75
      vertex -9.09134 0.45922 1.75
      vertex -9 0 1.75
    endloop
  endfacet
  facet normal 0 0 1
    outer loop
      vertex -9.78148 2.07912 1.75
      vertex -8.99009 3.91027 1.75
      vertex -9.16699 3.97031 1.75
    endloop
  endfacet
  facet normal 0 0 1
    outer loop
      vertex -8.52288 3.94089 1.75
      vertex -9.35147 0.848528 1.75
      vertex -9.09134 0.45922 1.75
    endloop
  endfacet
  facet normal 0 0 1
    outer loop
      vertex -8.52288 3.94089 1.75
      vertex -9.78148 2.07912 1.75
      vertex -9.35147 0.848528 1.75
    endloop
  endfacet
  facet normal 0 0 1
    outer loop
      vertex -9.35147 0.848528 1.75
      vertex -9.78148 2.07912 1.75
      vertex -9.74078 1.10865 1.75
    endloop
  endfacet
  facet normal 0 0 1
    outer loop
      vertex -9.74078 1.10865 1.75
      vertex -9.78148 2.07912 1.75
      vertex -9.88055 1.13646 1.75
    endloop
  endfacet
  facet normal -0 0 1
    outer loop
      vertex -4.5 7.79423 1.75
      vertex -1.65 2.85788 1.75
      vertex -4.14798 8.10295 1.75
    endloop
  endfacet
  facet normal 0 0 1
    outer loop
      vertex -3.3 0 1.75
      vertex -3.94089 -8.52288 1.75
      vertex -3.91027 -8.99009 1.75
    endloop
  endfacet
  facet normal -0 0 1
    outer loop
      vertex -4.94337 7.64372 1.75
      vertex -1.65 2.85788 1.75
      vertex -4.5 7.79423 1.75
    endloop
  endfacet
  facet normal 0 0 1
    outer loop
      vertex -3.3 0 1.75
      vertex -4.14798 -8.10295 1.75
      vertex -3.94089 -8.52288 1.75
    endloop
  endfacet
  facet normal -0 0 1
    outer loop
      vertex -7.64372 4.94337 1.75
      vertex -1.65 2.85788 1.75
      vertex -4.94337 7.64372 1.75
    endloop
  endfacet
  facet normal 0 0 1
    outer loop
      vertex -3.3 0 1.75
      vertex -4.5 -7.79423 1.75
      vertex -4.14798 -8.10295 1.75
    endloop
  endfacet
  facet normal -0 0 1
    outer loop
      vertex -7.79423 4.5 1.75
      vertex -1.65 2.85788 1.75
      vertex -7.64372 4.94337 1.75
    endloop
  endfacet
  facet normal 0 0 1
    outer loop
      vertex -1.65 2.85788 1.75
      vertex -7.79423 4.5 1.75
      vertex -3.3 0 1.75
    endloop
  endfacet
  facet normal 0 0 1
    outer loop
      vertex -7.64372 4.94337 1.75
      vertex -4.94337 7.64372 1.75
      vertex -5.41058 7.67435 1.75
    endloop
  endfacet
  facet normal 0 -0 1
    outer loop
      vertex -4.94337 -7.64372 1.75
      vertex -3.3 0 1.75
      vertex -7.64372 -4.94337 1.75
    endloop
  endfacet
  facet normal 0 0 1
    outer loop
      vertex -6.69131 7.43145 1.75
      vertex -5.41058 7.67435 1.75
      vertex -5.83051 7.88143 1.75
    endloop
  endfacet
  facet normal 0 0 1
    outer loop
      vertex -3.3 0 1.75
      vertex -4.94337 -7.64372 1.75
      vertex -4.5 -7.79423 1.75
    endloop
  endfacet
  facet normal 0 0 1
    outer loop
      vertex -6.69131 7.43145 1.75
      vertex -5.83051 7.88143 1.75
      vertex -5.92448 7.98858 1.75
    endloop
  endfacet
  facet normal 0 0 1
    outer loop
      vertex -4.94337 -7.64372 1.75
      vertex -7.64372 -4.94337 1.75
      vertex -5.41058 -7.67435 1.75
    endloop
  endfacet
  facet normal 0 0 1
    outer loop
      vertex -5.41058 7.67435 1.75
      vertex -6.69131 7.43145 1.75
      vertex -7.67435 5.41058 1.75
    endloop
  endfacet
  facet normal -0 0 1
    outer loop
      vertex -7.67435 -5.41058 1.75
      vertex -5.41058 -7.67435 1.75
      vertex -7.64372 -4.94337 1.75
    endloop
  endfacet
  facet normal -0 -0 1
    outer loop
      vertex -6.69131 -7.43145 1.75
      vertex -5.41058 -7.67435 1.75
      vertex -7.67435 -5.41058 1.75
    endloop
  endfacet
  facet normal 0 0 1
    outer loop
      vertex -5.41058 7.67435 1.75
      vertex -7.67435 5.41058 1.75
      vertex -7.64372 4.94337 1.75
    endloop
  endfacet
  facet normal 0 0 1
    outer loop
      vertex -6.69131 7.43145 1.75
      vertex -7.88143 5.83051 1.75
      vertex -7.67435 5.41058 1.75
    endloop
  endfacet
  facet normal 0 -0 1
    outer loop
      vertex -7.88143 5.83051 1.75
      vertex -6.69131 7.43145 1.75
      vertex -8.02189 5.95369 1.75
    endloop
  endfacet
  facet normal 0 0 1
    outer loop
      vertex 0.45922 -9.09134 1.75
      vertex 4.14798 -8.10295 1.75
      vertex 1.65 -2.85788 1.75
    endloop
  endfacet
  facet normal 0 0 1
    outer loop
      vertex 3.09017 9.51056 1.75
      vertex 3.91027 8.99009 1.75
      vertex 3.95607 9.12504 1.75
    endloop
  endfacet
  facet normal 0 0 1
    outer loop
      vertex 3.94089 8.52288 1.75
      vertex 3.09017 9.51056 1.75
      vertex 0.848528 9.35147 1.75
    endloop
  endfacet
  facet normal 0 0 1
    outer loop
      vertex 3.94089 8.52288 1.75
      vertex 1.65 2.85788 1.75
      vertex 3.3 0 1.75
    endloop
  endfacet
  facet normal -0 0 1
    outer loop
      vertex 1.10865 9.74078 1.75
      vertex 3.09017 9.51056 1.75
      vertex 1.1451 9.924 1.75
    endloop
  endfacet
  facet normal 0 0 1
    outer loop
      vertex 0.848528 9.35147 1.75
      vertex 3.09017 9.51056 1.75
      vertex 1.10865 9.74078 1.75
    endloop
  endfacet
  facet normal 0 0 1
    outer loop
      vertex 3.94089 8.52288 1.75
      vertex 0.848528 9.35147 1.75
      vertex 0.45922 9.09134 1.75
    endloop
  endfacet
  facet normal 0 0 1
    outer loop
      vertex 3.94089 8.52288 1.75
      vertex 0.45922 9.09134 1.75
      vertex 1.65 2.85788 1.75
    endloop
  endfacet
  facet normal -0 0 1
    outer loop
      vertex 0 9 1.75
      vertex 1.65 2.85788 1.75
      vertex 0.45922 9.09134 1.75
    endloop
  endfacet
  facet normal 0 0 1
    outer loop
      vertex -1.65 2.85788 1.75
      vertex 0 9 1.75
      vertex -0.45922 9.09134 1.75
    endloop
  endfacet
  facet normal 0 0 1
    outer loop
      vertex -3.09017 9.51056 1.75
      vertex -3.94089 8.52288 1.75
      vertex -0.848528 9.35147 1.75
    endloop
  endfacet
  facet normal -0 0 1
    outer loop
      vertex -3.09017 9.51056 1.75
      vertex -0.848528 9.35147 1.75
      vertex -1.10865 9.74078 1.75
    endloop
  endfacet
  facet normal 0 0 1
    outer loop
      vertex 0 9 1.75
      vertex -1.65 2.85788 1.75
      vertex 1.65 2.85788 1.75
    endloop
  endfacet
  facet normal 0 0 1
    outer loop
      vertex -3.09017 9.51056 1.75
      vertex -1.10865 9.74078 1.75
      vertex -1.1451 9.924 1.75
    endloop
  endfacet
  facet normal 0 0 1
    outer loop
      vertex -3.94089 8.52288 1.75
      vertex -3.09017 9.51056 1.75
      vertex -3.91027 8.99009 1.75
    endloop
  endfacet
  facet normal 0 0 1
    outer loop
      vertex -0.848528 9.35147 1.75
      vertex -3.94089 8.52288 1.75
      vertex -0.45922 9.09134 1.75
    endloop
  endfacet
  facet normal 0 0 1
    outer loop
      vertex -4.14798 8.10295 1.75
      vertex -0.45922 9.09134 1.75
      vertex -3.94089 8.52288 1.75
    endloop
  endfacet
  facet normal 0 -0 1
    outer loop
      vertex -3.91027 8.99009 1.75
      vertex -3.09017 9.51056 1.75
      vertex -3.95607 9.12504 1.75
    endloop
  endfacet
  facet normal 0 0 1
    outer loop
      vertex 7.67435 5.41058 1.75
      vertex 5.41058 7.67435 1.75
      vertex 7.64372 4.94337 1.75
    endloop
  endfacet
  facet normal 0 0 1
    outer loop
      vertex 5.41058 7.67435 1.75
      vertex 7.67435 5.41058 1.75
      vertex 6.69131 7.43145 1.75
    endloop
  endfacet
  facet normal 0 0 1
    outer loop
      vertex 7.88143 5.83051 1.75
      vertex 6.69131 7.43145 1.75
      vertex 7.67435 5.41058 1.75
    endloop
  endfacet
  facet normal 0 0 1
    outer loop
      vertex 6.69131 7.43145 1.75
      vertex 7.88143 5.83051 1.75
      vertex 8.02189 5.95369 1.75
    endloop
  endfacet
  facet normal 0 0 1
    outer loop
      vertex 9.78148 2.07912 1.75
      vertex 9.74078 1.10865 1.75
      vertex 9.88055 1.13646 1.75
    endloop
  endfacet
  facet normal 0 0 1
    outer loop
      vertex 9.78148 2.07912 1.75
      vertex 9.35147 0.848528 1.75
      vertex 9.74078 1.10865 1.75
    endloop
  endfacet
  facet normal -0 0 1
    outer loop
      vertex 8.99009 3.91027 1.75
      vertex 9.78148 2.07912 1.75
      vertex 9.16699 3.97031 1.75
    endloop
  endfacet
  facet normal 0 0 1
    outer loop
      vertex 8.52288 3.94089 1.75
      vertex 9.78148 2.07912 1.75
      vertex 8.99009 3.91027 1.75
    endloop
  endfacet
  facet normal 0 0 1
    outer loop
      vertex 9.78148 2.07912 1.75
      vertex 8.52288 3.94089 1.75
      vertex 9.35147 0.848528 1.75
    endloop
  endfacet
  facet normal 0 0 1
    outer loop
      vertex 9.35147 0.848528 1.75
      vertex 8.52288 3.94089 1.75
      vertex 9.09134 0.45922 1.75
    endloop
  endfacet
  facet normal 0 0 1
    outer loop
      vertex 9.74078 -1.10865 1.75
      vertex 9.78148 -2.07912 1.75
      vertex 9.88055 -1.13646 1.75
    endloop
  endfacet
  facet normal 0 0 1
    outer loop
      vertex 9.35147 -0.848528 1.75
      vertex 9.78148 -2.07912 1.75
      vertex 9.74078 -1.10865 1.75
    endloop
  endfacet
  facet normal 0 0 1
    outer loop
      vertex 8.52288 -3.94089 1.75
      vertex 9.78148 -2.07912 1.75
      vertex 9.35147 -0.848528 1.75
    endloop
  endfacet
  facet normal 0 0 1
    outer loop
      vertex 8.52288 -3.94089 1.75
      vertex 9.35147 -0.848528 1.75
      vertex 9.09134 -0.45922 1.75
    endloop
  endfacet
  facet normal -0 0 1
    outer loop
      vertex 3.3 0 1.75
      vertex 9.09134 -0.45922 1.75
      vertex 9 0 1.75
    endloop
  endfacet
  facet normal 0 0 1
    outer loop
      vertex 9.78148 -2.07912 1.75
      vertex 8.99009 -3.91027 1.75
      vertex 9.16699 -3.97031 1.75
    endloop
  endfacet
  facet normal 0 0 1
    outer loop
      vertex 8.10295 4.14798 1.75
      vertex 9.09134 0.45922 1.75
      vertex 8.52288 3.94089 1.75
    endloop
  endfacet
  facet normal 0 0 1
    outer loop
      vertex 3.3 0 1.75
      vertex 9.09134 0.45922 1.75
      vertex 8.10295 4.14798 1.75
    endloop
  endfacet
  facet normal 0 0 1
    outer loop
      vertex 9.78148 -2.07912 1.75
      vertex 8.52288 -3.94089 1.75
      vertex 8.99009 -3.91027 1.75
    endloop
  endfacet
  facet normal 0 0 1
    outer loop
      vertex 3.3 0 1.75
      vertex 8.10295 4.14798 1.75
      vertex 7.79423 4.5 1.75
    endloop
  endfacet
  facet normal 0 0 1
    outer loop
      vertex 9.09134 -0.45922 1.75
      vertex 8.10295 -4.14798 1.75
      vertex 8.52288 -3.94089 1.75
    endloop
  endfacet
  facet normal 0 0 1
    outer loop
      vertex 9.09134 0.45922 1.75
      vertex 3.3 0 1.75
      vertex 9 0 1.75
    endloop
  endfacet
  facet normal 0 0 1
    outer loop
      vertex 9.09134 -0.45922 1.75
      vertex 3.3 0 1.75
      vertex 8.10295 -4.14798 1.75
    endloop
  endfacet
  facet normal 0 0 1
    outer loop
      vertex 3.3 0 1.75
      vertex 7.79423 4.5 1.75
      vertex 7.64372 4.94337 1.75
    endloop
  endfacet
  facet normal 0 0 1
    outer loop
      vertex 8.10295 -4.14798 1.75
      vertex 3.3 0 1.75
      vertex 7.79423 -4.5 1.75
    endloop
  endfacet
  facet normal 0 0 1
    outer loop
      vertex 3.3 0 1.75
      vertex 4.94337 7.64372 1.75
      vertex 4.5 7.79423 1.75
    endloop
  endfacet
  facet normal 0 0 1
    outer loop
      vertex 7.88143 -5.83051 1.75
      vertex 6.69131 -7.43145 1.75
      vertex 8.02189 -5.95369 1.75
    endloop
  endfacet
  facet normal 0 0 1
    outer loop
      vertex 7.67435 -5.41058 1.75
      vertex 6.69131 -7.43145 1.75
      vertex 7.88143 -5.83051 1.75
    endloop
  endfacet
  facet normal 0 0 1
    outer loop
      vertex 4.94337 7.64372 1.75
      vertex 3.3 0 1.75
      vertex 7.64372 4.94337 1.75
    endloop
  endfacet
  facet normal -0 0 1
    outer loop
      vertex 5.83051 7.88143 1.75
      vertex 6.69131 7.43145 1.75
      vertex 5.92448 7.98858 1.75
    endloop
  endfacet
  facet normal -0 0 1
    outer loop
      vertex 5.41058 7.67435 1.75
      vertex 6.69131 7.43145 1.75
      vertex 5.83051 7.88143 1.75
    endloop
  endfacet
  facet normal 0 0 1
    outer loop
      vertex 7.64372 4.94337 1.75
      vertex 5.41058 7.67435 1.75
      vertex 4.94337 7.64372 1.75
    endloop
  endfacet
  facet normal 0 0 1
    outer loop
      vertex 6.69131 -7.43145 1.75
      vertex 5.83051 -7.88143 1.75
      vertex 5.92448 -7.98858 1.75
    endloop
  endfacet
  facet normal -0 0 1
    outer loop
      vertex 1.65 -2.85788 1.75
      vertex 7.79423 -4.5 1.75
      vertex 3.3 0 1.75
    endloop
  endfacet
  facet normal 0 0 1
    outer loop
      vertex 6.69131 -7.43145 1.75
      vertex 5.41058 -7.67435 1.75
      vertex 5.83051 -7.88143 1.75
    endloop
  endfacet
  facet normal 0 -0 1
    outer loop
      vertex 5.41058 -7.67435 1.75
      vertex 7.67435 -5.41058 1.75
      vertex 4.94337 -7.64372 1.75
    endloop
  endfacet
  facet normal 0 0 1
    outer loop
      vertex 7.67435 -5.41058 1.75
      vertex 5.41058 -7.67435 1.75
      vertex 6.69131 -7.43145 1.75
    endloop
  endfacet
  facet normal 0 0 1
    outer loop
      vertex 7.79423 -4.5 1.75
      vertex 1.65 -2.85788 1.75
      vertex 7.64372 -4.94337 1.75
    endloop
  endfacet
  facet normal 0 0 1
    outer loop
      vertex 7.64372 -4.94337 1.75
      vertex 4.94337 -7.64372 1.75
      vertex 7.67435 -5.41058 1.75
    endloop
  endfacet
  facet normal 0 0 1
    outer loop
      vertex 3.3 0 1.75
      vertex 4.5 7.79423 1.75
      vertex 4.14798 8.10295 1.75
    endloop
  endfacet
  facet normal 0 0 1
    outer loop
      vertex 7.64372 -4.94337 1.75
      vertex 1.65 -2.85788 1.75
      vertex 4.94337 -7.64372 1.75
    endloop
  endfacet
  facet normal 0 0 1
    outer loop
      vertex 3.3 0 1.75
      vertex 4.14798 8.10295 1.75
      vertex 3.94089 8.52288 1.75
    endloop
  endfacet
  facet normal 0 0 1
    outer loop
      vertex 4.94337 -7.64372 1.75
      vertex 1.65 -2.85788 1.75
      vertex 4.5 -7.79423 1.75
    endloop
  endfacet
  facet normal 0 0 1
    outer loop
      vertex 3.09017 9.51056 1.75
      vertex 3.94089 8.52288 1.75
      vertex 3.91027 8.99009 1.75
    endloop
  endfacet
  facet normal 0 0 1
    outer loop
      vertex 4.5 -7.79423 1.75
      vertex 1.65 -2.85788 1.75
      vertex 4.14798 -8.10295 1.75
    endloop
  endfacet
  facet normal 0 0 1
    outer loop
      vertex 3.91027 -8.99009 1.75
      vertex 3.09017 -9.51056 1.75
      vertex 3.95607 -9.12504 1.75
    endloop
  endfacet
  facet normal 0 0 1
    outer loop
      vertex 4.14798 -8.10295 1.75
      vertex 0.45922 -9.09134 1.75
      vertex 3.94089 -8.52288 1.75
    endloop
  endfacet
  facet normal 0 -0 1
    outer loop
      vertex 0.848528 -9.35147 1.75
      vertex 3.94089 -8.52288 1.75
      vertex 0.45922 -9.09134 1.75
    endloop
  endfacet
  facet normal 0 -0 1
    outer loop
      vertex 3.09017 -9.51056 1.75
      vertex 3.94089 -8.52288 1.75
      vertex 0.848528 -9.35147 1.75
    endloop
  endfacet
  facet normal 0 0 1
    outer loop
      vertex 3.09017 -9.51056 1.75
      vertex 1.10865 -9.74078 1.75
      vertex 1.1451 -9.924 1.75
    endloop
  endfacet
  facet normal 0 0 1
    outer loop
      vertex 3.09017 -9.51056 1.75
      vertex 0.848528 -9.35147 1.75
      vertex 1.10865 -9.74078 1.75
    endloop
  endfacet
  facet normal 0 0 1
    outer loop
      vertex 3.94089 -8.52288 1.75
      vertex 3.09017 -9.51056 1.75
      vertex 3.91027 -8.99009 1.75
    endloop
  endfacet
  facet normal 0 0 1
    outer loop
      vertex 1.65 -2.85788 1.75
      vertex 0 -9 1.75
      vertex 0.45922 -9.09134 1.75
    endloop
  endfacet
  facet normal -0 0 1
    outer loop
      vertex -1.65 -2.85788 1.75
      vertex 0 -9 1.75
      vertex 1.65 -2.85788 1.75
    endloop
  endfacet
  facet normal 0 0 1
    outer loop
      vertex 0 -9 1.75
      vertex -1.65 -2.85788 1.75
      vertex -0.45922 -9.09134 1.75
    endloop
  endfacet
  facet normal -0 0 1
    outer loop
      vertex -3.91027 -8.99009 1.75
      vertex -0.45922 -9.09134 1.75
      vertex -1.65 -2.85788 1.75
    endloop
  endfacet
  facet normal 0 0 1
    outer loop
      vertex -0.45922 -9.09134 1.75
      vertex -3.91027 -8.99009 1.75
      vertex -0.848528 -9.35147 1.75
    endloop
  endfacet
  facet normal 0 -0 1
    outer loop
      vertex -3.09017 -9.51056 1.75
      vertex -0.848528 -9.35147 1.75
      vertex -3.91027 -8.99009 1.75
    endloop
  endfacet
  facet normal 0 0 1
    outer loop
      vertex -1.10865 -9.74078 1.75
      vertex -3.09017 -9.51056 1.75
      vertex -1.1451 -9.924 1.75
    endloop
  endfacet
  facet normal 0 0 1
    outer loop
      vertex -3.91027 -8.99009 1.75
      vertex -1.65 -2.85788 1.75
      vertex -3.3 0 1.75
    endloop
  endfacet
  facet normal 0 0 1
    outer loop
      vertex -0.45922 9.09134 1.75
      vertex -4.14798 8.10295 1.75
      vertex -1.65 2.85788 1.75
    endloop
  endfacet
  facet normal 0 0 1
    outer loop
      vertex -0.848528 -9.35147 1.75
      vertex -3.09017 -9.51056 1.75
      vertex -1.10865 -9.74078 1.75
    endloop
  endfacet
  facet normal 0 0 1
    outer loop
      vertex -3.09017 -9.51056 1.75
      vertex -3.91027 -8.99009 1.75
      vertex -3.95607 -9.12504 1.75
    endloop
  endfacet
  facet normal 0 0 1
    outer loop
      vertex -5.83051 -7.88143 1.75
      vertex -6.69131 -7.43145 1.75
      vertex -5.92448 -7.98858 1.75
    endloop
  endfacet
  facet normal 0 0 1
    outer loop
      vertex -5.41058 -7.67435 1.75
      vertex -6.69131 -7.43145 1.75
      vertex -5.83051 -7.88143 1.75
    endloop
  endfacet
  facet normal -0 0 1
    outer loop
      vertex -7.88143 -5.83051 1.75
      vertex -6.69131 -7.43145 1.75
      vertex -7.67435 -5.41058 1.75
    endloop
  endfacet
  facet normal 0 0 1
    outer loop
      vertex -6.69131 -7.43145 1.75
      vertex -7.88143 -5.83051 1.75
      vertex -8.02189 -5.95369 1.75
    endloop
  endfacet
  facet normal -0 0 1
    outer loop
      vertex -9.35147 -0.848528 1.75
      vertex -8.52288 -3.94089 1.75
      vertex -9.09134 -0.45922 1.75
    endloop
  endfacet
  facet normal -0 0 1
    outer loop
      vertex -9.78148 -2.07912 1.75
      vertex -8.52288 -3.94089 1.75
      vertex -9.35147 -0.848528 1.75
    endloop
  endfacet
  facet normal 0 0 1
    outer loop
      vertex -8.52288 -3.94089 1.75
      vertex -9.78148 -2.07912 1.75
      vertex -8.99009 -3.91027 1.75
    endloop
  endfacet
  facet normal 0 0 1
    outer loop
      vertex -9.78148 -2.07912 1.75
      vertex -9.35147 -0.848528 1.75
      vertex -9.74078 -1.10865 1.75
    endloop
  endfacet
  facet normal 0 0 1
    outer loop
      vertex -8.99009 -3.91027 1.75
      vertex -9.78148 -2.07912 1.75
      vertex -9.16699 -3.97031 1.75
    endloop
  endfacet
  facet normal 0 -0 1
    outer loop
      vertex -9.78148 -2.07912 1.75
      vertex -9.74078 -1.10865 1.75
      vertex -9.88055 -1.13646 1.75
    endloop
  endfacet
  facet normal -0.587785 0.809017 0
    outer loop
      vertex -5.92448 7.98858 -1.75
      vertex -6.69131 7.43145 1.75
      vertex -5.92448 7.98858 1.75
    endloop
  endfacet
  facet normal -0.587785 0.809017 0
    outer loop
      vertex -6.69131 7.43145 1.75
      vertex -5.92448 7.98858 -1.75
      vertex -6.69131 7.43145 -1.75
    endloop
  endfacet
  facet normal -0.207911 0.978148 0
    outer loop
      vertex -1.1451 9.924 -1.75
      vertex -3.09017 9.51056 1.75
      vertex -1.1451 9.924 1.75
    endloop
  endfacet
  facet normal -0.207911 0.978148 0
    outer loop
      vertex -3.09017 9.51056 1.75
      vertex -1.1451 9.924 -1.75
      vertex -3.09017 9.51056 -1.75
    endloop
  endfacet
  facet normal 0.994522 -0.104529 0
    outer loop
      vertex 9.78148 -2.07912 1.75
      vertex 9.88055 -1.13646 -1.75
      vertex 9.88055 -1.13646 1.75
    endloop
  endfacet
  facet normal 0.994522 -0.104529 0
    outer loop
      vertex 9.88055 -1.13646 -1.75
      vertex 9.78148 -2.07912 1.75
      vertex 9.78148 -2.07912 -1.75
    endloop
  endfacet
  facet normal -0 0 -1
    outer loop
      vertex 4.94337 7.64372 -1.75
      vertex 1.20208 1.20208 -1.75
      vertex 4.5 7.79423 -1.75
    endloop
  endfacet
  facet normal 0 0 -1
    outer loop
      vertex 3.09017 -9.51056 -1.75
      vertex 3.91027 -8.99009 -1.75
      vertex 3.95607 -9.12504 -1.75
    endloop
  endfacet
  facet normal -0 0 -1
    outer loop
      vertex 7.67435 -5.41058 -1.75
      vertex 5.41058 -7.67435 -1.75
      vertex 7.64372 -4.94337 -1.75
    endloop
  endfacet
  facet normal 0 0 -1
    outer loop
      vertex 5.41058 -7.67435 -1.75
      vertex 7.67435 -5.41058 -1.75
      vertex 6.69131 -7.43145 -1.75
    endloop
  endfacet
  facet normal -0 0 -1
    outer loop
      vertex 7.88143 -5.83051 -1.75
      vertex 6.69131 -7.43145 -1.75
      vertex 7.67435 -5.41058 -1.75
    endloop
  endfacet
  facet normal 0 0 -1
    outer loop
      vertex 6.69131 -7.43145 -1.75
      vertex 7.88143 -5.83051 -1.75
      vertex 8.02189 -5.95369 -1.75
    endloop
  endfacet
  facet normal 0 0 -1
    outer loop
      vertex 9.78148 -2.07912 -1.75
      vertex 9.74078 -1.10865 -1.75
      vertex 9.88055 -1.13646 -1.75
    endloop
  endfacet
  facet normal 0 0 -1
    outer loop
      vertex 9.78148 -2.07912 -1.75
      vertex 9.35147 -0.848528 -1.75
      vertex 9.74078 -1.10865 -1.75
    endloop
  endfacet
  facet normal 0 0 -1
    outer loop
      vertex 8.99009 -3.91027 -1.75
      vertex 9.78148 -2.07912 -1.75
      vertex 9.16699 -3.97031 -1.75
    endloop
  endfacet
  facet normal 0 0 -1
    outer loop
      vertex 8.52288 -3.94089 -1.75
      vertex 9.78148 -2.07912 -1.75
      vertex 8.99009 -3.91027 -1.75
    endloop
  endfacet
  facet normal -0 0 -1
    outer loop
      vertex 9.78148 -2.07912 -1.75
      vertex 8.52288 -3.94089 -1.75
      vertex 9.35147 -0.848528 -1.75
    endloop
  endfacet
  facet normal -0 0 -1
    outer loop
      vertex 9.35147 -0.848528 -1.75
      vertex 8.52288 -3.94089 -1.75
      vertex 9.09134 -0.45922 -1.75
    endloop
  endfacet
  facet normal 0 0 -1
    outer loop
      vertex 9.74078 1.10865 -1.75
      vertex 9.78148 2.07912 -1.75
      vertex 9.88055 1.13646 -1.75
    endloop
  endfacet
  facet normal 0 0 -1
    outer loop
      vertex 9.35147 0.848528 -1.75
      vertex 9.78148 2.07912 -1.75
      vertex 9.74078 1.10865 -1.75
    endloop
  endfacet
  facet normal 0 0 -1
    outer loop
      vertex 8.52288 3.94089 -1.75
      vertex 9.78148 2.07912 -1.75
      vertex 9.35147 0.848528 -1.75
    endloop
  endfacet
  facet normal 0 0 -1
    outer loop
      vertex 8.52288 3.94089 -1.75
      vertex 9.35147 0.848528 -1.75
      vertex 9.09134 0.45922 -1.75
    endloop
  endfacet
  facet normal 0 0 -1
    outer loop
      vertex 1.7 0 -1.75
      vertex 9.09134 0.45922 -1.75
      vertex 9 0 -1.75
    endloop
  endfacet
  facet normal 0 0 -1
    outer loop
      vertex 9.78148 2.07912 -1.75
      vertex 8.99009 3.91027 -1.75
      vertex 9.16699 3.97031 -1.75
    endloop
  endfacet
  facet normal 0 0 -1
    outer loop
      vertex 8.10295 -4.14798 -1.75
      vertex 9.09134 -0.45922 -1.75
      vertex 8.52288 -3.94089 -1.75
    endloop
  endfacet
  facet normal 0 0 -1
    outer loop
      vertex 1.7 0 -1.75
      vertex 9.09134 -0.45922 -1.75
      vertex 8.10295 -4.14798 -1.75
    endloop
  endfacet
  facet normal 0 0 -1
    outer loop
      vertex 9.78148 2.07912 -1.75
      vertex 8.52288 3.94089 -1.75
      vertex 8.99009 3.91027 -1.75
    endloop
  endfacet
  facet normal 0 0 -1
    outer loop
      vertex 1.7 0 -1.75
      vertex 8.10295 -4.14798 -1.75
      vertex 7.79423 -4.5 -1.75
    endloop
  endfacet
  facet normal 0 0 -1
    outer loop
      vertex 9.09134 0.45922 -1.75
      vertex 8.10295 4.14798 -1.75
      vertex 8.52288 3.94089 -1.75
    endloop
  endfacet
  facet normal 0 0 -1
    outer loop
      vertex 9.09134 -0.45922 -1.75
      vertex 1.7 0 -1.75
      vertex 9 0 -1.75
    endloop
  endfacet
  facet normal 0 0 -1
    outer loop
      vertex 1.57059 0.650561 -1.75
      vertex 9.09134 0.45922 -1.75
      vertex 1.7 0 -1.75
    endloop
  endfacet
  facet normal 0 0 -1
    outer loop
      vertex 1.7 0 -1.75
      vertex 7.79423 -4.5 -1.75
      vertex 7.64372 -4.94337 -1.75
    endloop
  endfacet
  facet normal 0 0 -1
    outer loop
      vertex 9.09134 0.45922 -1.75
      vertex 1.57059 0.650561 -1.75
      vertex 8.10295 4.14798 -1.75
    endloop
  endfacet
  facet normal 0 0 -1
    outer loop
      vertex 1.7 0 -1.75
      vertex 4.94337 -7.64372 -1.75
      vertex 4.5 -7.79423 -1.75
    endloop
  endfacet
  facet normal 0 0 -1
    outer loop
      vertex 7.88143 5.83051 -1.75
      vertex 6.69131 7.43145 -1.75
      vertex 8.02189 5.95369 -1.75
    endloop
  endfacet
  facet normal 0 0 -1
    outer loop
      vertex 7.67435 5.41058 -1.75
      vertex 6.69131 7.43145 -1.75
      vertex 7.88143 5.83051 -1.75
    endloop
  endfacet
  facet normal 0 0 -1
    outer loop
      vertex 4.94337 -7.64372 -1.75
      vertex 1.7 0 -1.75
      vertex 7.64372 -4.94337 -1.75
    endloop
  endfacet
  facet normal 0 0 -1
    outer loop
      vertex 5.83051 -7.88143 -1.75
      vertex 6.69131 -7.43145 -1.75
      vertex 5.92448 -7.98858 -1.75
    endloop
  endfacet
  facet normal 0 0 -1
    outer loop
      vertex 5.41058 -7.67435 -1.75
      vertex 6.69131 -7.43145 -1.75
      vertex 5.83051 -7.88143 -1.75
    endloop
  endfacet
  facet normal 0 0 -1
    outer loop
      vertex 7.64372 -4.94337 -1.75
      vertex 5.41058 -7.67435 -1.75
      vertex 4.94337 -7.64372 -1.75
    endloop
  endfacet
  facet normal 0 0 -1
    outer loop
      vertex 6.69131 7.43145 -1.75
      vertex 5.83051 7.88143 -1.75
      vertex 5.92448 7.98858 -1.75
    endloop
  endfacet
  facet normal -0 0 -1
    outer loop
      vertex 8.10295 4.14798 -1.75
      vertex 1.57059 0.650561 -1.75
      vertex 7.79423 4.5 -1.75
    endloop
  endfacet
  facet normal 0 0 -1
    outer loop
      vertex 6.69131 7.43145 -1.75
      vertex 5.41058 7.67435 -1.75
      vertex 5.83051 7.88143 -1.75
    endloop
  endfacet
  facet normal 0 -0 -1
    outer loop
      vertex 5.41058 7.67435 -1.75
      vertex 7.67435 5.41058 -1.75
      vertex 4.94337 7.64372 -1.75
    endloop
  endfacet
  facet normal 0 0 -1
    outer loop
      vertex 7.67435 5.41058 -1.75
      vertex 5.41058 7.67435 -1.75
      vertex 6.69131 7.43145 -1.75
    endloop
  endfacet
  facet normal 0 0 -1
    outer loop
      vertex 1.20208 1.20208 -1.75
      vertex 7.79423 4.5 -1.75
      vertex 1.57059 0.650561 -1.75
    endloop
  endfacet
  facet normal 0 0 -1
    outer loop
      vertex 7.64372 4.94337 -1.75
      vertex 4.94337 7.64372 -1.75
      vertex 7.67435 5.41058 -1.75
    endloop
  endfacet
  facet normal 0 0 -1
    outer loop
      vertex 1.7 0 -1.75
      vertex 4.5 -7.79423 -1.75
      vertex 4.14798 -8.10295 -1.75
    endloop
  endfacet
  facet normal -0 0 -1
    outer loop
      vertex 7.79423 4.5 -1.75
      vertex 1.20208 1.20208 -1.75
      vertex 7.64372 4.94337 -1.75
    endloop
  endfacet
  facet normal 0 0 -1
    outer loop
      vertex 3.09017 -9.51056 -1.75
      vertex 4.14798 -8.10295 -1.75
      vertex 3.94089 -8.52288 -1.75
    endloop
  endfacet
  facet normal 0 0 -1
    outer loop
      vertex 1.7 0 -1.75
      vertex 4.14798 -8.10295 -1.75
      vertex 3.09017 -9.51056 -1.75
    endloop
  endfacet
  facet normal 0 0 -1
    outer loop
      vertex 3.09017 -9.51056 -1.75
      vertex 3.94089 -8.52288 -1.75
      vertex 3.91027 -8.99009 -1.75
    endloop
  endfacet
  facet normal -0 0 -1
    outer loop
      vertex 7.64372 4.94337 -1.75
      vertex 1.20208 1.20208 -1.75
      vertex 4.94337 7.64372 -1.75
    endloop
  endfacet
  facet normal 0 0 -1
    outer loop
      vertex 3.91027 8.99009 -1.75
      vertex 3.09017 9.51056 -1.75
      vertex 3.95607 9.12504 -1.75
    endloop
  endfacet
  facet normal 0 0 -1
    outer loop
      vertex 0.650561 1.57059 -1.75
      vertex 4.5 7.79423 -1.75
      vertex 1.20208 1.20208 -1.75
    endloop
  endfacet
  facet normal -0 0 -1
    outer loop
      vertex 4.5 7.79423 -1.75
      vertex 0.650561 1.57059 -1.75
      vertex 4.14798 8.10295 -1.75
    endloop
  endfacet
  facet normal 0 0 -1
    outer loop
      vertex 3.09017 -9.51056 -1.75
      vertex 1.57059 -0.650561 -1.75
      vertex 1.7 0 -1.75
    endloop
  endfacet
  facet normal 0 0 -1
    outer loop
      vertex 3.09017 -9.51056 -1.75
      vertex 1.20208 -1.20208 -1.75
      vertex 1.57059 -0.650561 -1.75
    endloop
  endfacet
  facet normal 0 0 -1
    outer loop
      vertex 1.10865 -9.74078 -1.75
      vertex 3.09017 -9.51056 -1.75
      vertex 1.1451 -9.924 -1.75
    endloop
  endfacet
  facet normal 0 0 -1
    outer loop
      vertex 0.848528 -9.35147 -1.75
      vertex 3.09017 -9.51056 -1.75
      vertex 1.10865 -9.74078 -1.75
    endloop
  endfacet
  facet normal 0 0 -1
    outer loop
      vertex 0.45922 -9.09134 -1.75
      vertex 3.09017 -9.51056 -1.75
      vertex 0.848528 -9.35147 -1.75
    endloop
  endfacet
  facet normal 0 0 -1
    outer loop
      vertex 3.09017 -9.51056 -1.75
      vertex 0.650561 -1.57059 -1.75
      vertex 1.20208 -1.20208 -1.75
    endloop
  endfacet
  facet normal 0 0 -1
    outer loop
      vertex 3.09017 -9.51056 -1.75
      vertex 0.45922 -9.09134 -1.75
      vertex 0.650561 -1.57059 -1.75
    endloop
  endfacet
  facet normal 0 0 -1
    outer loop
      vertex 0 -1.7 -1.75
      vertex 0.45922 -9.09134 -1.75
      vertex 0 -9 -1.75
    endloop
  endfacet
  facet normal 0 0 -1
    outer loop
      vertex 0.45922 -9.09134 -1.75
      vertex 0 -1.7 -1.75
      vertex 0.650561 -1.57059 -1.75
    endloop
  endfacet
  facet normal 0 0 -1
    outer loop
      vertex -0.45922 -9.09134 -1.75
      vertex 0 -1.7 -1.75
      vertex 0 -9 -1.75
    endloop
  endfacet
  facet normal 0 0 -1
    outer loop
      vertex -0.45922 -9.09134 -1.75
      vertex -0.650561 -1.57059 -1.75
      vertex 0 -1.7 -1.75
    endloop
  endfacet
  facet normal 0 0 -1
    outer loop
      vertex -4.14798 -8.10295 -1.75
      vertex -0.45922 -9.09134 -1.75
      vertex -0.848528 -9.35147 -1.75
    endloop
  endfacet
  facet normal 0 0 -1
    outer loop
      vertex -3.09017 -9.51056 -1.75
      vertex -0.848528 -9.35147 -1.75
      vertex -1.10865 -9.74078 -1.75
    endloop
  endfacet
  facet normal 0 0 -1
    outer loop
      vertex -3.09017 -9.51056 -1.75
      vertex -1.10865 -9.74078 -1.75
      vertex -1.1451 -9.924 -1.75
    endloop
  endfacet
  facet normal 0 0 -1
    outer loop
      vertex -0.45922 -9.09134 -1.75
      vertex -4.14798 -8.10295 -1.75
      vertex -0.650561 -1.57059 -1.75
    endloop
  endfacet
  facet normal 0 0 -1
    outer loop
      vertex -4.5 -7.79423 -1.75
      vertex -0.650561 -1.57059 -1.75
      vertex -4.14798 -8.10295 -1.75
    endloop
  endfacet
  facet normal -0 0 -1
    outer loop
      vertex -0.650561 -1.57059 -1.75
      vertex -4.5 -7.79423 -1.75
      vertex -1.20208 -1.20208 -1.75
    endloop
  endfacet
  facet normal -0 0 -1
    outer loop
      vertex -0.848528 -9.35147 -1.75
      vertex -3.09017 -9.51056 -1.75
      vertex -3.94089 -8.52288 -1.75
    endloop
  endfacet
  facet normal 0 0 -1
    outer loop
      vertex -9.09134 -0.45922 -1.75
      vertex -1.57059 -0.650561 -1.75
      vertex -8.10295 -4.14798 -1.75
    endloop
  endfacet
  facet normal 0 0 -1
    outer loop
      vertex -1.7 0 -1.75
      vertex -7.79423 4.5 -1.75
      vertex -7.64372 4.94337 -1.75
    endloop
  endfacet
  facet normal 0 0 -1
    outer loop
      vertex -1.57059 -0.650561 -1.75
      vertex -9.09134 -0.45922 -1.75
      vertex -1.7 0 -1.75
    endloop
  endfacet
  facet normal 0 0 -1
    outer loop
      vertex -9.09134 0.45922 -1.75
      vertex -1.7 0 -1.75
      vertex -9 0 -1.75
    endloop
  endfacet
  facet normal 0 0 -1
    outer loop
      vertex -9.09134 -0.45922 -1.75
      vertex -8.10295 -4.14798 -1.75
      vertex -8.52288 -3.94089 -1.75
    endloop
  endfacet
  facet normal 0 0 -1
    outer loop
      vertex -1.7 0 -1.75
      vertex -8.10295 4.14798 -1.75
      vertex -7.79423 4.5 -1.75
    endloop
  endfacet
  facet normal 0 0 -1
    outer loop
      vertex -9.78148 -2.07912 -1.75
      vertex -8.52288 -3.94089 -1.75
      vertex -8.99009 -3.91027 -1.75
    endloop
  endfacet
  facet normal 0 0 -1
    outer loop
      vertex -1.7 0 -1.75
      vertex -9.09134 0.45922 -1.75
      vertex -8.10295 4.14798 -1.75
    endloop
  endfacet
  facet normal 0 0 -1
    outer loop
      vertex -8.10295 4.14798 -1.75
      vertex -9.09134 0.45922 -1.75
      vertex -8.52288 3.94089 -1.75
    endloop
  endfacet
  facet normal -0 0 -1
    outer loop
      vertex -1.7 0 -1.75
      vertex -9.09134 -0.45922 -1.75
      vertex -9 0 -1.75
    endloop
  endfacet
  facet normal 0 0 -1
    outer loop
      vertex -9.78148 -2.07912 -1.75
      vertex -8.99009 -3.91027 -1.75
      vertex -9.16699 -3.97031 -1.75
    endloop
  endfacet
  facet normal 0 0 -1
    outer loop
      vertex -8.52288 -3.94089 -1.75
      vertex -9.35147 -0.848528 -1.75
      vertex -9.09134 -0.45922 -1.75
    endloop
  endfacet
  facet normal 0 0 -1
    outer loop
      vertex -8.52288 -3.94089 -1.75
      vertex -9.78148 -2.07912 -1.75
      vertex -9.35147 -0.848528 -1.75
    endloop
  endfacet
  facet normal 0 0 -1
    outer loop
      vertex -9.35147 -0.848528 -1.75
      vertex -9.78148 -2.07912 -1.75
      vertex -9.74078 -1.10865 -1.75
    endloop
  endfacet
  facet normal 0 0 -1
    outer loop
      vertex -9.74078 -1.10865 -1.75
      vertex -9.78148 -2.07912 -1.75
      vertex -9.88055 -1.13646 -1.75
    endloop
  endfacet
  facet normal 0 0 -1
    outer loop
      vertex -4.94337 -7.64372 -1.75
      vertex -1.20208 -1.20208 -1.75
      vertex -4.5 -7.79423 -1.75
    endloop
  endfacet
  facet normal 0 0 -1
    outer loop
      vertex -1.7 0 -1.75
      vertex -3.94089 8.52288 -1.75
      vertex -3.91027 8.99009 -1.75
    endloop
  endfacet
  facet normal 0 0 -1
    outer loop
      vertex -7.64372 -4.94337 -1.75
      vertex -1.20208 -1.20208 -1.75
      vertex -4.94337 -7.64372 -1.75
    endloop
  endfacet
  facet normal 0 0 -1
    outer loop
      vertex -1.7 0 -1.75
      vertex -4.14798 8.10295 -1.75
      vertex -3.94089 8.52288 -1.75
    endloop
  endfacet
  facet normal 0 0 -1
    outer loop
      vertex -1.7 0 -1.75
      vertex -4.5 7.79423 -1.75
      vertex -4.14798 8.10295 -1.75
    endloop
  endfacet
  facet normal 0 0 -1
    outer loop
      vertex -7.79423 -4.5 -1.75
      vertex -1.20208 -1.20208 -1.75
      vertex -7.64372 -4.94337 -1.75
    endloop
  endfacet
  facet normal -0 0 -1
    outer loop
      vertex -1.20208 -1.20208 -1.75
      vertex -7.79423 -4.5 -1.75
      vertex -1.57059 -0.650561 -1.75
    endloop
  endfacet
  facet normal 0 0 -1
    outer loop
      vertex -8.10295 -4.14798 -1.75
      vertex -1.57059 -0.650561 -1.75
      vertex -7.79423 -4.5 -1.75
    endloop
  endfacet
  facet normal 0 0 -1
    outer loop
      vertex -7.64372 -4.94337 -1.75
      vertex -4.94337 -7.64372 -1.75
      vertex -5.41058 -7.67435 -1.75
    endloop
  endfacet
  facet normal 0 -0 -1
    outer loop
      vertex -4.94337 7.64372 -1.75
      vertex -1.7 0 -1.75
      vertex -7.64372 4.94337 -1.75
    endloop
  endfacet
  facet normal 0 0 -1
    outer loop
      vertex -6.69131 -7.43145 -1.75
      vertex -5.41058 -7.67435 -1.75
      vertex -5.83051 -7.88143 -1.75
    endloop
  endfacet
  facet normal 0 0 -1
    outer loop
      vertex -1.7 0 -1.75
      vertex -4.94337 7.64372 -1.75
      vertex -4.5 7.79423 -1.75
    endloop
  endfacet
  facet normal 0 0 -1
    outer loop
      vertex -7.67435 5.41058 -1.75
      vertex -5.41058 7.67435 -1.75
      vertex -7.64372 4.94337 -1.75
    endloop
  endfacet
  facet normal 0 0 -1
    outer loop
      vertex -6.69131 -7.43145 -1.75
      vertex -5.83051 -7.88143 -1.75
      vertex -5.92448 -7.98858 -1.75
    endloop
  endfacet
  facet normal 0 0 -1
    outer loop
      vertex -5.41058 -7.67435 -1.75
      vertex -6.69131 -7.43145 -1.75
      vertex -7.67435 -5.41058 -1.75
    endloop
  endfacet
  facet normal -0 0 -1
    outer loop
      vertex -4.94337 7.64372 -1.75
      vertex -7.64372 4.94337 -1.75
      vertex -5.41058 7.67435 -1.75
    endloop
  endfacet
  facet normal 0 -0 -1
    outer loop
      vertex -6.69131 7.43145 -1.75
      vertex -5.41058 7.67435 -1.75
      vertex -7.67435 5.41058 -1.75
    endloop
  endfacet
  facet normal 0 0 -1
    outer loop
      vertex -5.41058 -7.67435 -1.75
      vertex -7.67435 -5.41058 -1.75
      vertex -7.64372 -4.94337 -1.75
    endloop
  endfacet
  facet normal 0 0 -1
    outer loop
      vertex -6.69131 -7.43145 -1.75
      vertex -7.88143 -5.83051 -1.75
      vertex -7.67435 -5.41058 -1.75
    endloop
  endfacet
  facet normal 0 -0 -1
    outer loop
      vertex -7.88143 -5.83051 -1.75
      vertex -6.69131 -7.43145 -1.75
      vertex -8.02189 -5.95369 -1.75
    endloop
  endfacet
  facet normal -0 0 -1
    outer loop
      vertex -0.848528 9.35147 -1.75
      vertex -3.91027 8.99009 -1.75
      vertex -3.09017 9.51056 -1.75
    endloop
  endfacet
  facet normal 0 0 -1
    outer loop
      vertex -3.09017 9.51056 -1.75
      vertex -3.91027 8.99009 -1.75
      vertex -3.95607 9.12504 -1.75
    endloop
  endfacet
  facet normal -0 0 -1
    outer loop
      vertex -5.83051 7.88143 -1.75
      vertex -6.69131 7.43145 -1.75
      vertex -5.92448 7.98858 -1.75
    endloop
  endfacet
  facet normal -0 0 -1
    outer loop
      vertex -5.41058 7.67435 -1.75
      vertex -6.69131 7.43145 -1.75
      vertex -5.83051 7.88143 -1.75
    endloop
  endfacet
  facet normal 0 0 -1
    outer loop
      vertex -7.88143 5.83051 -1.75
      vertex -6.69131 7.43145 -1.75
      vertex -7.67435 5.41058 -1.75
    endloop
  endfacet
  facet normal 0 0 -1
    outer loop
      vertex -6.69131 7.43145 -1.75
      vertex -7.88143 5.83051 -1.75
      vertex -8.02189 5.95369 -1.75
    endloop
  endfacet
  facet normal 0 0 -1
    outer loop
      vertex -9.35147 0.848528 -1.75
      vertex -8.52288 3.94089 -1.75
      vertex -9.09134 0.45922 -1.75
    endloop
  endfacet
  facet normal 0 0 -1
    outer loop
      vertex -9.78148 2.07912 -1.75
      vertex -8.52288 3.94089 -1.75
      vertex -9.35147 0.848528 -1.75
    endloop
  endfacet
  facet normal 0 0 -1
    outer loop
      vertex -8.52288 3.94089 -1.75
      vertex -9.78148 2.07912 -1.75
      vertex -8.99009 3.91027 -1.75
    endloop
  endfacet
  facet normal 0 0 -1
    outer loop
      vertex -9.78148 2.07912 -1.75
      vertex -9.35147 0.848528 -1.75
      vertex -9.74078 1.10865 -1.75
    endloop
  endfacet
  facet normal -0 0 -1
    outer loop
      vertex -8.99009 3.91027 -1.75
      vertex -9.78148 2.07912 -1.75
      vertex -9.16699 3.97031 -1.75
    endloop
  endfacet
  facet normal 0 -0 -1
    outer loop
      vertex -9.78148 2.07912 -1.75
      vertex -9.74078 1.10865 -1.75
      vertex -9.88055 1.13646 -1.75
    endloop
  endfacet
  facet normal 0 0 -1
    outer loop
      vertex 0.45922 9.09134 -1.75
      vertex 4.14798 8.10295 -1.75
      vertex 0.650561 1.57059 -1.75
    endloop
  endfacet
  facet normal 0 0 -1
    outer loop
      vertex 4.14798 8.10295 -1.75
      vertex 0.45922 9.09134 -1.75
      vertex 3.94089 8.52288 -1.75
    endloop
  endfacet
  facet normal 0 -0 -1
    outer loop
      vertex 0.848528 9.35147 -1.75
      vertex 3.94089 8.52288 -1.75
      vertex 0.45922 9.09134 -1.75
    endloop
  endfacet
  facet normal 0 0 -1
    outer loop
      vertex 3.09017 9.51056 -1.75
      vertex 1.10865 9.74078 -1.75
      vertex 1.1451 9.924 -1.75
    endloop
  endfacet
  facet normal -0 0 -1
    outer loop
      vertex 3.09017 9.51056 -1.75
      vertex 0.848528 9.35147 -1.75
      vertex 1.10865 9.74078 -1.75
    endloop
  endfacet
  facet normal 0 -0 -1
    outer loop
      vertex 3.09017 9.51056 -1.75
      vertex 3.94089 8.52288 -1.75
      vertex 0.848528 9.35147 -1.75
    endloop
  endfacet
  facet normal 0 0 -1
    outer loop
      vertex 3.94089 8.52288 -1.75
      vertex 3.09017 9.51056 -1.75
      vertex 3.91027 8.99009 -1.75
    endloop
  endfacet
  facet normal 0 0 -1
    outer loop
      vertex 0 1.7 -1.75
      vertex 0.45922 9.09134 -1.75
      vertex 0.650561 1.57059 -1.75
    endloop
  endfacet
  facet normal 0 0 -1
    outer loop
      vertex 0 1.7 -1.75
      vertex 0 9 -1.75
      vertex 0.45922 9.09134 -1.75
    endloop
  endfacet
  facet normal 0 0 -1
    outer loop
      vertex 0 1.7 -1.75
      vertex -0.45922 9.09134 -1.75
      vertex 0 9 -1.75
    endloop
  endfacet
  facet normal 0 0 -1
    outer loop
      vertex -0.650561 1.57059 -1.75
      vertex -0.45922 9.09134 -1.75
      vertex 0 1.7 -1.75
    endloop
  endfacet
  facet normal 0 0 -1
    outer loop
      vertex -3.91027 8.99009 -1.75
      vertex -0.45922 9.09134 -1.75
      vertex -0.650561 1.57059 -1.75
    endloop
  endfacet
  facet normal 0 0 -1
    outer loop
      vertex -3.91027 8.99009 -1.75
      vertex -0.848528 9.35147 -1.75
      vertex -0.45922 9.09134 -1.75
    endloop
  endfacet
  facet normal 0 0 -1
    outer loop
      vertex -0.848528 9.35147 -1.75
      vertex -3.09017 9.51056 -1.75
      vertex -1.10865 9.74078 -1.75
    endloop
  endfacet
  facet normal 0 0 -1
    outer loop
      vertex -3.91027 8.99009 -1.75
      vertex -0.650561 1.57059 -1.75
      vertex -1.20208 1.20208 -1.75
    endloop
  endfacet
  facet normal 0 0 -1
    outer loop
      vertex -3.91027 8.99009 -1.75
      vertex -1.20208 1.20208 -1.75
      vertex -1.57059 0.650561 -1.75
    endloop
  endfacet
  facet normal 0 0 -1
    outer loop
      vertex -3.91027 8.99009 -1.75
      vertex -1.57059 0.650561 -1.75
      vertex -1.7 0 -1.75
    endloop
  endfacet
  facet normal 0 0 -1
    outer loop
      vertex -3.94089 -8.52288 -1.75
      vertex -3.09017 -9.51056 -1.75
      vertex -3.91027 -8.99009 -1.75
    endloop
  endfacet
  facet normal 0 0 -1
    outer loop
      vertex -0.848528 -9.35147 -1.75
      vertex -3.94089 -8.52288 -1.75
      vertex -4.14798 -8.10295 -1.75
    endloop
  endfacet
  facet normal -0 0 -1
    outer loop
      vertex -1.10865 9.74078 -1.75
      vertex -3.09017 9.51056 -1.75
      vertex -1.1451 9.924 -1.75
    endloop
  endfacet
  facet normal 0 -0 -1
    outer loop
      vertex -3.91027 -8.99009 -1.75
      vertex -3.09017 -9.51056 -1.75
      vertex -3.95607 -9.12504 -1.75
    endloop
  endfacet
  facet normal 0.207911 -0.978148 0
    outer loop
      vertex 1.1451 -9.924 -1.75
      vertex 3.09017 -9.51056 1.75
      vertex 1.1451 -9.924 1.75
    endloop
  endfacet
  facet normal 0.207911 -0.978148 0
    outer loop
      vertex 3.09017 -9.51056 1.75
      vertex 1.1451 -9.924 -1.75
      vertex 3.09017 -9.51056 -1.75
    endloop
  endfacet
  facet normal 0.587785 -0.809017 0
    outer loop
      vertex 5.92448 -7.98858 -1.75
      vertex 6.69131 -7.43145 1.75
      vertex 5.92448 -7.98858 1.75
    endloop
  endfacet
  facet normal 0.587785 -0.809017 0
    outer loop
      vertex 6.69131 -7.43145 1.75
      vertex 5.92448 -7.98858 -1.75
      vertex 6.69131 -7.43145 -1.75
    endloop
  endfacet
  facet normal 0.406737 -0.913545 0
    outer loop
      vertex 3.09017 -9.51056 -1.75
      vertex 3.95607 -9.12504 1.75
      vertex 3.09017 -9.51056 1.75
    endloop
  endfacet
  facet normal 0.406737 -0.913545 0
    outer loop
      vertex 3.95607 -9.12504 1.75
      vertex 3.09017 -9.51056 -1.75
      vertex 3.95607 -9.12504 -1.75
    endloop
  endfacet
  facet normal -0.207911 -0.978148 0
    outer loop
      vertex -3.09017 -9.51056 -1.75
      vertex -1.1451 -9.924 1.75
      vertex -3.09017 -9.51056 1.75
    endloop
  endfacet
  facet normal -0.207911 -0.978148 -0
    outer loop
      vertex -1.1451 -9.924 1.75
      vertex -3.09017 -9.51056 -1.75
      vertex -1.1451 -9.924 -1.75
    endloop
  endfacet
  facet normal -0.743145 -0.669131 0
    outer loop
      vertex -6.69131 -7.43145 -1.75
      vertex -8.02189 -5.95369 1.75
      vertex -8.02189 -5.95369 -1.75
    endloop
  endfacet
  facet normal -0.743145 -0.669131 0
    outer loop
      vertex -8.02189 -5.95369 1.75
      vertex -6.69131 -7.43145 -1.75
      vertex -6.69131 -7.43145 1.75
    endloop
  endfacet
  facet normal -0.951057 -0.309017 0
    outer loop
      vertex -9.16699 -3.97031 -1.75
      vertex -9.78148 -2.07912 1.75
      vertex -9.78148 -2.07912 -1.75
    endloop
  endfacet
  facet normal -0.951057 -0.309017 0
    outer loop
      vertex -9.78148 -2.07912 1.75
      vertex -9.16699 -3.97031 -1.75
      vertex -9.16699 -3.97031 1.75
    endloop
  endfacet
  facet normal -0.994522 -0.104529 0
    outer loop
      vertex -9.78148 -2.07912 -1.75
      vertex -9.88055 -1.13646 1.75
      vertex -9.88055 -1.13646 -1.75
    endloop
  endfacet
  facet normal -0.994522 -0.104529 0
    outer loop
      vertex -9.88055 -1.13646 1.75
      vertex -9.78148 -2.07912 -1.75
      vertex -9.78148 -2.07912 1.75
    endloop
  endfacet
  facet normal 0.743145 -0.669131 0
    outer loop
      vertex 6.69131 -7.43145 1.75
      vertex 8.02189 -5.95369 -1.75
      vertex 8.02189 -5.95369 1.75
    endloop
  endfacet
  facet normal 0.743145 -0.669131 0
    outer loop
      vertex 8.02189 -5.95369 -1.75
      vertex 6.69131 -7.43145 1.75
      vertex 6.69131 -7.43145 -1.75
    endloop
  endfacet
  facet normal -0.406737 -0.913545 0
    outer loop
      vertex -3.95607 -9.12504 -1.75
      vertex -3.09017 -9.51056 1.75
      vertex -3.95607 -9.12504 1.75
    endloop
  endfacet
  facet normal -0.406737 -0.913545 -0
    outer loop
      vertex -3.09017 -9.51056 1.75
      vertex -3.95607 -9.12504 -1.75
      vertex -3.09017 -9.51056 -1.75
    endloop
  endfacet
  facet normal -0.587785 -0.809017 0
    outer loop
      vertex -6.69131 -7.43145 -1.75
      vertex -5.92448 -7.98858 1.75
      vertex -6.69131 -7.43145 1.75
    endloop
  endfacet
  facet normal -0.587785 -0.809017 -0
    outer loop
      vertex -5.92448 -7.98858 1.75
      vertex -6.69131 -7.43145 -1.75
      vertex -5.92448 -7.98858 -1.75
    endloop
  endfacet
  facet normal -0.866025 -0.5 0
    outer loop
      vertex 3.3 0 -0.5
      vertex 1.65 2.85788 1.75
      vertex 1.65 2.85788 -0.5
    endloop
  endfacet
  facet normal -0.866025 -0.5 0
    outer loop
      vertex 1.65 2.85788 1.75
      vertex 3.3 0 -0.5
      vertex 3.3 0 1.75
    endloop
  endfacet
  facet normal 0.866025 -0.5 0
    outer loop
      vertex -3.3 0 1.75
      vertex -1.65 2.85788 -0.5
      vertex -1.65 2.85788 1.75
    endloop
  endfacet
  facet normal 0.866025 -0.5 0
    outer loop
      vertex -1.65 2.85788 -0.5
      vertex -3.3 0 1.75
      vertex -3.3 0 -0.5
    endloop
  endfacet
  facet normal 0 -1 0
    outer loop
      vertex -1.65 2.85788 -0.5
      vertex 1.65 2.85788 1.75
      vertex -1.65 2.85788 1.75
    endloop
  endfacet
  facet normal 0 -1 -0
    outer loop
      vertex 1.65 2.85788 1.75
      vertex -1.65 2.85788 -0.5
      vertex 1.65 2.85788 -0.5
    endloop
  endfacet
  facet normal -0.866025 0.5 0
    outer loop
      vertex 1.65 -2.85788 -0.5
      vertex 3.3 0 1.75
      vertex 3.3 0 -0.5
    endloop
  endfacet
  facet normal -0.866025 0.5 0
    outer loop
      vertex 3.3 0 1.75
      vertex 1.65 -2.85788 -0.5
      vertex 1.65 -2.85788 1.75
    endloop
  endfacet
  facet normal -0 0 1
    outer loop
      vertex 1.57059 0.650561 -0.5
      vertex 3.3 0 -0.5
      vertex 1.65 2.85788 -0.5
    endloop
  endfacet
  facet normal 0 0 1
    outer loop
      vertex 3.3 0 -0.5
      vertex 1.57059 0.650561 -0.5
      vertex 1.7 0 -0.5
    endloop
  endfacet
  facet normal 0 0 1
    outer loop
      vertex 1.65 2.85788 -0.5
      vertex 1.20208 1.20208 -0.5
      vertex 1.57059 0.650561 -0.5
    endloop
  endfacet
  facet normal 0 0 1
    outer loop
      vertex 1.65 2.85788 -0.5
      vertex 0.650561 1.57059 -0.5
      vertex 1.20208 1.20208 -0.5
    endloop
  endfacet
  facet normal 0 0 1
    outer loop
      vertex 1.65 2.85788 -0.5
      vertex 0 1.7 -0.5
      vertex 0.650561 1.57059 -0.5
    endloop
  endfacet
  facet normal -0 0 1
    outer loop
      vertex -1.65 2.85788 -0.5
      vertex 0 1.7 -0.5
      vertex 1.65 2.85788 -0.5
    endloop
  endfacet
  facet normal 0 0 1
    outer loop
      vertex 0 1.7 -0.5
      vertex -1.65 2.85788 -0.5
      vertex -0.650561 1.57059 -0.5
    endloop
  endfacet
  facet normal 0 0 1
    outer loop
      vertex -1.65 2.85788 -0.5
      vertex -1.20208 1.20208 -0.5
      vertex -0.650561 1.57059 -0.5
    endloop
  endfacet
  facet normal 0 0 1
    outer loop
      vertex -1.65 2.85788 -0.5
      vertex -1.57059 0.650561 -0.5
      vertex -1.20208 1.20208 -0.5
    endloop
  endfacet
  facet normal 0 0 1
    outer loop
      vertex -3.3 0 -0.5
      vertex -1.57059 0.650561 -0.5
      vertex -1.65 2.85788 -0.5
    endloop
  endfacet
  facet normal 0 0 1
    outer loop
      vertex -1.57059 0.650561 -0.5
      vertex -3.3 0 -0.5
      vertex -1.7 0 -0.5
    endloop
  endfacet
  facet normal 0 0 1
    outer loop
      vertex 1.57059 -0.650561 -0.5
      vertex 3.3 0 -0.5
      vertex 1.7 0 -0.5
    endloop
  endfacet
  facet normal 0 0 1
    outer loop
      vertex 3.3 0 -0.5
      vertex 1.57059 -0.650561 -0.5
      vertex 1.65 -2.85788 -0.5
    endloop
  endfacet
  facet normal -0 0 1
    outer loop
      vertex 1.20208 -1.20208 -0.5
      vertex 1.65 -2.85788 -0.5
      vertex 1.57059 -0.650561 -0.5
    endloop
  endfacet
  facet normal -0 0 1
    outer loop
      vertex 0.650561 -1.57059 -0.5
      vertex 1.65 -2.85788 -0.5
      vertex 1.20208 -1.20208 -0.5
    endloop
  endfacet
  facet normal -0 0 1
    outer loop
      vertex 0 -1.7 -0.5
      vertex 1.65 -2.85788 -0.5
      vertex 0.650561 -1.57059 -0.5
    endloop
  endfacet
  facet normal 0 0 1
    outer loop
      vertex -1.65 -2.85788 -0.5
      vertex 0 -1.7 -0.5
      vertex -0.650561 -1.57059 -0.5
    endloop
  endfacet
  facet normal 0 0 1
    outer loop
      vertex 0 -1.7 -0.5
      vertex -1.65 -2.85788 -0.5
      vertex 1.65 -2.85788 -0.5
    endloop
  endfacet
  facet normal 0 0 1
    outer loop
      vertex -1.20208 -1.20208 -0.5
      vertex -1.65 -2.85788 -0.5
      vertex -0.650561 -1.57059 -0.5
    endloop
  endfacet
  facet normal 0 0 1
    outer loop
      vertex -1.57059 -0.650561 -0.5
      vertex -1.65 -2.85788 -0.5
      vertex -1.20208 -1.20208 -0.5
    endloop
  endfacet
  facet normal -0 0 1
    outer loop
      vertex -3.3 0 -0.5
      vertex -1.57059 -0.650561 -0.5
      vertex -1.7 0 -0.5
    endloop
  endfacet
  facet normal 0 0 1
    outer loop
      vertex -1.57059 -0.650561 -0.5
      vertex -3.3 0 -0.5
      vertex -1.65 -2.85788 -0.5
    endloop
  endfacet
  facet normal 0 1 -0
    outer loop
      vertex 1.65 -2.85788 -0.5
      vertex -1.65 -2.85788 1.75
      vertex 1.65 -2.85788 1.75
    endloop
  endfacet
  facet normal 0 1 0
    outer loop
      vertex -1.65 -2.85788 1.75
      vertex 1.65 -2.85788 -0.5
      vertex -1.65 -2.85788 -0.5
    endloop
  endfacet
  facet normal 0.866025 0.5 0
    outer loop
      vertex -1.65 -2.85788 1.75
      vertex -3.3 0 -0.5
      vertex -3.3 0 1.75
    endloop
  endfacet
  facet normal 0.866025 0.5 0
    outer loop
      vertex -3.3 0 -0.5
      vertex -1.65 -2.85788 1.75
      vertex -1.65 -2.85788 -0.5
    endloop
  endfacet
  facet normal -0.980785 -0.195091 0
    outer loop
      vertex 1.7 0 -1.75
      vertex 1.57059 0.650561 -0.5
      vertex 1.57059 0.650561 -1.75
    endloop
  endfacet
  facet normal -0.980785 -0.195091 0
    outer loop
      vertex 1.57059 0.650561 -0.5
      vertex 1.7 0 -1.75
      vertex 1.7 0 -0.5
    endloop
  endfacet
  facet normal 0.980785 -0.195091 0
    outer loop
      vertex -1.7 0 -0.5
      vertex -1.57059 0.650561 -1.75
      vertex -1.57059 0.650561 -0.5
    endloop
  endfacet
  facet normal 0.980785 -0.195091 0
    outer loop
      vertex -1.57059 0.650561 -1.75
      vertex -1.7 0 -0.5
      vertex -1.7 0 -1.75
    endloop
  endfacet
  facet normal -0.195091 -0.980785 0
    outer loop
      vertex 0 1.7 -1.75
      vertex 0.650561 1.57059 -0.5
      vertex 0 1.7 -0.5
    endloop
  endfacet
  facet normal -0.195091 -0.980785 -0
    outer loop
      vertex 0.650561 1.57059 -0.5
      vertex 0 1.7 -1.75
      vertex 0.650561 1.57059 -1.75
    endloop
  endfacet
  facet normal -0.195091 0.980785 0
    outer loop
      vertex 0.650561 -1.57059 -1.75
      vertex 0 -1.7 -0.5
      vertex 0.650561 -1.57059 -0.5
    endloop
  endfacet
  facet normal -0.195091 0.980785 0
    outer loop
      vertex 0 -1.7 -0.5
      vertex 0.650561 -1.57059 -1.75
      vertex 0 -1.7 -1.75
    endloop
  endfacet
  facet normal 0.195091 0.980785 -0
    outer loop
      vertex 0 -1.7 -1.75
      vertex -0.650561 -1.57059 -0.5
      vertex 0 -1.7 -0.5
    endloop
  endfacet
  facet normal 0.195091 0.980785 0
    outer loop
      vertex -0.650561 -1.57059 -0.5
      vertex 0 -1.7 -1.75
      vertex -0.650561 -1.57059 -1.75
    endloop
  endfacet
  facet normal -0.555571 -0.831469 0
    outer loop
      vertex 0.650561 1.57059 -1.75
      vertex 1.20208 1.20208 -0.5
      vertex 0.650561 1.57059 -0.5
    endloop
  endfacet
  facet normal -0.555571 -0.831469 -0
    outer loop
      vertex 1.20208 1.20208 -0.5
      vertex 0.650561 1.57059 -1.75
      vertex 1.20208 1.20208 -1.75
    endloop
  endfacet
  facet normal -0.831469 -0.555571 0
    outer loop
      vertex 1.57059 0.650561 -1.75
      vertex 1.20208 1.20208 -0.5
      vertex 1.20208 1.20208 -1.75
    endloop
  endfacet
  facet normal -0.831469 -0.555571 0
    outer loop
      vertex 1.20208 1.20208 -0.5
      vertex 1.57059 0.650561 -1.75
      vertex 1.57059 0.650561 -0.5
    endloop
  endfacet
  facet normal 0.195091 -0.980785 0
    outer loop
      vertex -0.650561 1.57059 -1.75
      vertex 0 1.7 -0.5
      vertex -0.650561 1.57059 -0.5
    endloop
  endfacet
  facet normal 0.195091 -0.980785 0
    outer loop
      vertex 0 1.7 -0.5
      vertex -0.650561 1.57059 -1.75
      vertex 0 1.7 -1.75
    endloop
  endfacet
  facet normal 0.555571 -0.831469 0
    outer loop
      vertex -1.20208 1.20208 -1.75
      vertex -0.650561 1.57059 -0.5
      vertex -1.20208 1.20208 -0.5
    endloop
  endfacet
  facet normal 0.555571 -0.831469 0
    outer loop
      vertex -0.650561 1.57059 -0.5
      vertex -1.20208 1.20208 -1.75
      vertex -0.650561 1.57059 -1.75
    endloop
  endfacet
  facet normal 0.980785 0.195091 0
    outer loop
      vertex -1.57059 -0.650561 -0.5
      vertex -1.7 0 -1.75
      vertex -1.7 0 -0.5
    endloop
  endfacet
  facet normal 0.980785 0.195091 0
    outer loop
      vertex -1.7 0 -1.75
      vertex -1.57059 -0.650561 -0.5
      vertex -1.57059 -0.650561 -1.75
    endloop
  endfacet
  facet normal 0.555571 0.831469 -0
    outer loop
      vertex -0.650561 -1.57059 -1.75
      vertex -1.20208 -1.20208 -0.5
      vertex -0.650561 -1.57059 -0.5
    endloop
  endfacet
  facet normal 0.555571 0.831469 0
    outer loop
      vertex -1.20208 -1.20208 -0.5
      vertex -0.650561 -1.57059 -1.75
      vertex -1.20208 -1.20208 -1.75
    endloop
  endfacet
  facet normal 0.831469 0.555571 0
    outer loop
      vertex -1.20208 -1.20208 -0.5
      vertex -1.57059 -0.650561 -1.75
      vertex -1.57059 -0.650561 -0.5
    endloop
  endfacet
  facet normal 0.831469 0.555571 0
    outer loop
      vertex -1.57059 -0.650561 -1.75
      vertex -1.20208 -1.20208 -0.5
      vertex -1.20208 -1.20208 -1.75
    endloop
  endfacet
  facet normal 0.831469 -0.555571 0
    outer loop
      vertex -1.57059 0.650561 -0.5
      vertex -1.20208 1.20208 -1.75
      vertex -1.20208 1.20208 -0.5
    endloop
  endfacet
  facet normal 0.831469 -0.555571 0
    outer loop
      vertex -1.20208 1.20208 -1.75
      vertex -1.57059 0.650561 -0.5
      vertex -1.57059 0.650561 -1.75
    endloop
  endfacet
  facet normal -0.555571 0.831469 0
    outer loop
      vertex 1.20208 -1.20208 -1.75
      vertex 0.650561 -1.57059 -0.5
      vertex 1.20208 -1.20208 -0.5
    endloop
  endfacet
  facet normal -0.555571 0.831469 0
    outer loop
      vertex 0.650561 -1.57059 -0.5
      vertex 1.20208 -1.20208 -1.75
      vertex 0.650561 -1.57059 -1.75
    endloop
  endfacet
  facet normal -0.980785 0.195091 0
    outer loop
      vertex 1.57059 -0.650561 -1.75
      vertex 1.7 0 -0.5
      vertex 1.7 0 -1.75
    endloop
  endfacet
  facet normal -0.980785 0.195091 0
    outer loop
      vertex 1.7 0 -0.5
      vertex 1.57059 -0.650561 -1.75
      vertex 1.57059 -0.650561 -0.5
    endloop
  endfacet
  facet normal -0.831469 0.555571 0
    outer loop
      vertex 1.20208 -1.20208 -1.75
      vertex 1.57059 -0.650561 -0.5
      vertex 1.57059 -0.650561 -1.75
    endloop
  endfacet
  facet normal -0.831469 0.555571 0
    outer loop
      vertex 1.57059 -0.650561 -0.5
      vertex 1.20208 -1.20208 -1.75
      vertex 1.20208 -1.20208 -0.5
    endloop
  endfacet
endsolid OpenSCAD_Model
