solid OpenSCAD_Model
  facet normal 0 0 -1
    outer loop
      vertex -5 0 0
      vertex -4.97261 0.522642 0
      vertex -4.97261 -0.522642 0
    endloop
  endfacet
  facet normal 0 0 -1
    outer loop
      vertex -4.97261 -0.522642 0
      vertex -4.97261 0.522642 0
      vertex -4.89074 1.03956 0
    endloop
  endfacet
  facet normal 0 0 -1
    outer loop
      vertex -4.97261 -0.522642 0
      vertex -4.89074 1.03956 0
      vertex -4.75528 1.54508 0
    endloop
  endfacet
  facet normal 0 0 -1
    outer loop
      vertex -4.97261 -0.522642 0
      vertex -4.75528 1.54508 0
      vertex -4.56773 2.03368 0
    endloop
  endfacet
  facet normal 0 0 -1
    outer loop
      vertex -4.97261 -0.522642 0
      vertex -4.56773 2.03368 0
      vertex -4.33013 2.5 0
    endloop
  endfacet
  facet normal 0 0 -1
    outer loop
      vertex -4.97261 -0.522642 0
      vertex -4.33013 2.5 0
      vertex -4.04508 2.93893 0
    endloop
  endfacet
  facet normal 0 0 -1
    outer loop
      vertex -4.97261 -0.522642 0
      vertex -4.04508 2.93893 0
      vertex -3.71572 3.34565 0
    endloop
  endfacet
  facet normal 0 0 -1
    outer loop
      vertex -4.97261 -0.522642 0
      vertex -3.71572 3.34565 0
      vertex -3.34565 3.71572 0
    endloop
  endfacet
  facet normal 0 0 -1
    outer loop
      vertex -4.97261 -0.522642 0
      vertex -3.34565 3.71572 0
      vertex -2.93893 4.04508 0
    endloop
  endfacet
  facet normal 0 0 -1
    outer loop
      vertex -4.97261 -0.522642 0
      vertex -2.93893 4.04508 0
      vertex -2.5 4.33013 0
    endloop
  endfacet
  facet normal 0 0 -1
    outer loop
      vertex -4.97261 -0.522642 0
      vertex -2.5 4.33013 0
      vertex -2.03368 4.56773 0
    endloop
  endfacet
  facet normal 0 0 -1
    outer loop
      vertex -4.97261 -0.522642 0
      vertex -2.03368 4.56773 0
      vertex -1.54508 4.75528 0
    endloop
  endfacet
  facet normal 0 0 -1
    outer loop
      vertex -4.97261 -0.522642 0
      vertex -1.54508 4.75528 0
      vertex -1.03956 4.89074 0
    endloop
  endfacet
  facet normal 0 0 -1
    outer loop
      vertex -4.97261 -0.522642 0
      vertex -1.03956 4.89074 0
      vertex -0.522642 4.97261 0
    endloop
  endfacet
  facet normal 0 0 -1
    outer loop
      vertex -4.97261 -0.522642 0
      vertex -0.522642 4.97261 0
      vertex 0 5 0
    endloop
  endfacet
  facet normal 0 0 -1
    outer loop
      vertex -4.97261 -0.522642 0
      vertex 0 5 0
      vertex 0.522642 4.97261 0
    endloop
  endfacet
  facet normal 0 0 -1
    outer loop
      vertex -4.97261 -0.522642 0
      vertex 0.522642 4.97261 0
      vertex 1.03956 4.89074 0
    endloop
  endfacet
  facet normal 0 0 -1
    outer loop
      vertex -4.97261 -0.522642 0
      vertex 1.03956 4.89074 0
      vertex 1.54508 4.75528 0
    endloop
  endfacet
  facet normal 0 0 -1
    outer loop
      vertex -1.18037 2.31662 0
      vertex 1.54508 4.75528 0
      vertex 2.03368 4.56773 0
    endloop
  endfacet
  facet normal 0 0 -1
    outer loop
      vertex -0.40673 2.56799 0
      vertex 2.03368 4.56773 0
      vertex 2.5 4.33013 0
    endloop
  endfacet
  facet normal 0 0 -1
    outer loop
      vertex 0 2.6 0
      vertex 2.5 4.33013 0
      vertex 2.93893 4.04508 0
    endloop
  endfacet
  facet normal 0 0 -1
    outer loop
      vertex 0.803444 2.47275 0
      vertex 2.93893 4.04508 0
      vertex 3.34565 3.71572 0
    endloop
  endfacet
  facet normal 0 0 -1
    outer loop
      vertex 1.18037 2.31662 0
      vertex 3.34565 3.71572 0
      vertex 3.71572 3.34565 0
    endloop
  endfacet
  facet normal 0 0 -1
    outer loop
      vertex 1.52824 2.10344 0
      vertex 3.71572 3.34565 0
      vertex 4.04508 2.93893 0
    endloop
  endfacet
  facet normal 0 0 -1
    outer loop
      vertex 1.83848 1.83848 0
      vertex 4.04508 2.93893 0
      vertex 4.33013 2.5 0
    endloop
  endfacet
  facet normal 0 0 -1
    outer loop
      vertex 2.10344 1.52824 0
      vertex 4.33013 2.5 0
      vertex 4.56773 2.03368 0
    endloop
  endfacet
  facet normal 0 0 -1
    outer loop
      vertex 2.31662 1.18037 0
      vertex 4.56773 2.03368 0
      vertex 4.75528 1.54508 0
    endloop
  endfacet
  facet normal 0 0 -1
    outer loop
      vertex 2.47275 0.803444 0
      vertex 4.75528 1.54508 0
      vertex 4.89074 1.03956 0
    endloop
  endfacet
  facet normal 0 0 -1
    outer loop
      vertex 2.56799 0.40673 0
      vertex 4.89074 1.03956 0
      vertex 4.97261 0.522642 0
    endloop
  endfacet
  facet normal 0 0 -1
    outer loop
      vertex 2.6 0 0
      vertex 4.97261 0.522642 0
      vertex 5 0 0
    endloop
  endfacet
  facet normal 0 0 -1
    outer loop
      vertex 2.56799 -0.40673 0
      vertex 5 0 0
      vertex 4.97261 -0.522642 0
    endloop
  endfacet
  facet normal 0 0 -1
    outer loop
      vertex 2.47275 -0.803444 0
      vertex 4.97261 -0.522642 0
      vertex 4.89074 -1.03956 0
    endloop
  endfacet
  facet normal 0 0 -1
    outer loop
      vertex 2.31662 -1.18037 0
      vertex 4.89074 -1.03956 0
      vertex 4.75528 -1.54508 0
    endloop
  endfacet
  facet normal 0 0 -1
    outer loop
      vertex 2.10344 -1.52824 0
      vertex 4.75528 -1.54508 0
      vertex 4.56773 -2.03368 0
    endloop
  endfacet
  facet normal 0 0 -1
    outer loop
      vertex 1.83848 -1.83848 0
      vertex 4.56773 -2.03368 0
      vertex 4.33013 -2.5 0
    endloop
  endfacet
  facet normal 0 0 -1
    outer loop
      vertex 1.52824 -2.10344 0
      vertex 4.33013 -2.5 0
      vertex 4.04508 -2.93893 0
    endloop
  endfacet
  facet normal 0 0 -1
    outer loop
      vertex 1.18037 -2.31662 0
      vertex 4.04508 -2.93893 0
      vertex 3.71572 -3.34565 0
    endloop
  endfacet
  facet normal 0 0 -1
    outer loop
      vertex 0.803444 -2.47275 0
      vertex 3.71572 -3.34565 0
      vertex 3.34565 -3.71572 0
    endloop
  endfacet
  facet normal 0 0 -1
    outer loop
      vertex 0 -2.6 0
      vertex 3.34565 -3.71572 0
      vertex 2.93893 -4.04508 0
    endloop
  endfacet
  facet normal 0 0 -1
    outer loop
      vertex -0.803444 -2.47275 0
      vertex 2.93893 -4.04508 0
      vertex 2.5 -4.33013 0
    endloop
  endfacet
  facet normal 0 0 -1
    outer loop
      vertex -4.97261 -0.522642 0
      vertex 2.5 -4.33013 0
      vertex 2.03368 -4.56773 0
    endloop
  endfacet
  facet normal 0 0 -1
    outer loop
      vertex -4.97261 -0.522642 0
      vertex 2.03368 -4.56773 0
      vertex 1.54508 -4.75528 0
    endloop
  endfacet
  facet normal 0 0 -1
    outer loop
      vertex -4.97261 -0.522642 0
      vertex 1.54508 -4.75528 0
      vertex 1.03956 -4.89074 0
    endloop
  endfacet
  facet normal 0 0 -1
    outer loop
      vertex -4.97261 -0.522642 0
      vertex 1.03956 -4.89074 0
      vertex 0.522642 -4.97261 0
    endloop
  endfacet
  facet normal 0 0 -1
    outer loop
      vertex -4.97261 -0.522642 0
      vertex 0.522642 -4.97261 0
      vertex 0 -5 0
    endloop
  endfacet
  facet normal 0 0 -1
    outer loop
      vertex -4.97261 -0.522642 0
      vertex 0 -5 0
      vertex -0.522642 -4.97261 0
    endloop
  endfacet
  facet normal 0 0 -1
    outer loop
      vertex -4.97261 -0.522642 0
      vertex -0.522642 -4.97261 0
      vertex -1.03956 -4.89074 0
    endloop
  endfacet
  facet normal 0 0 -1
    outer loop
      vertex -4.97261 -0.522642 0
      vertex -1.03956 -4.89074 0
      vertex -1.54508 -4.75528 0
    endloop
  endfacet
  facet normal 0 0 -1
    outer loop
      vertex -4.97261 -0.522642 0
      vertex -1.54508 -4.75528 0
      vertex -2.03368 -4.56773 0
    endloop
  endfacet
  facet normal 0 0 -1
    outer loop
      vertex -4.97261 -0.522642 0
      vertex -2.03368 -4.56773 0
      vertex -2.5 -4.33013 0
    endloop
  endfacet
  facet normal 0 0 -1
    outer loop
      vertex -4.97261 -0.522642 0
      vertex -2.5 -4.33013 0
      vertex -2.93893 -4.04508 0
    endloop
  endfacet
  facet normal 0 0 -1
    outer loop
      vertex -4.97261 -0.522642 0
      vertex -2.93893 -4.04508 0
      vertex -3.34565 -3.71572 0
    endloop
  endfacet
  facet normal 0 0 -1
    outer loop
      vertex -4.97261 -0.522642 0
      vertex -3.34565 -3.71572 0
      vertex -3.71572 -3.34565 0
    endloop
  endfacet
  facet normal 0 0 -1
    outer loop
      vertex -4.97261 -0.522642 0
      vertex -3.71572 -3.34565 0
      vertex -4.04508 -2.93893 0
    endloop
  endfacet
  facet normal 0 0 -1
    outer loop
      vertex -4.97261 -0.522642 0
      vertex -4.04508 -2.93893 0
      vertex -4.33013 -2.5 0
    endloop
  endfacet
  facet normal 0 0 -1
    outer loop
      vertex -4.97261 -0.522642 0
      vertex -4.33013 -2.5 0
      vertex -4.56773 -2.03368 0
    endloop
  endfacet
  facet normal 0 0 -1
    outer loop
      vertex -4.97261 -0.522642 0
      vertex -4.56773 -2.03368 0
      vertex -4.75528 -1.54508 0
    endloop
  endfacet
  facet normal 0 0 -1
    outer loop
      vertex -4.97261 -0.522642 0
      vertex -4.75528 -1.54508 0
      vertex -4.89074 -1.03956 0
    endloop
  endfacet
  facet normal 0 0 -1
    outer loop
      vertex -2.56799 -0.40673 0
      vertex -4.97261 -0.522642 0
      vertex -2.6 0 0
    endloop
  endfacet
  facet normal 0 0 -1
    outer loop
      vertex -2.47275 -0.803444 0
      vertex -4.97261 -0.522642 0
      vertex -2.56799 -0.40673 0
    endloop
  endfacet
  facet normal 0 0 -1
    outer loop
      vertex -2.31662 -1.18037 0
      vertex -4.97261 -0.522642 0
      vertex -2.47275 -0.803444 0
    endloop
  endfacet
  facet normal 0 0 -1
    outer loop
      vertex -2.10344 -1.52824 0
      vertex -4.97261 -0.522642 0
      vertex -2.31662 -1.18037 0
    endloop
  endfacet
  facet normal 0 0 -1
    outer loop
      vertex -1.83848 -1.83848 0
      vertex -4.97261 -0.522642 0
      vertex -2.10344 -1.52824 0
    endloop
  endfacet
  facet normal 0 0 -1
    outer loop
      vertex -1.52824 -2.10344 0
      vertex -4.97261 -0.522642 0
      vertex -1.83848 -1.83848 0
    endloop
  endfacet
  facet normal 0 0 -1
    outer loop
      vertex 0 -2.6 0
      vertex 2.93893 -4.04508 0
      vertex -0.40673 -2.56799 0
    endloop
  endfacet
  facet normal 0 0 -1
    outer loop
      vertex -4.97261 -0.522642 0
      vertex -1.52824 -2.10344 0
      vertex -1.18037 -2.31662 0
    endloop
  endfacet
  facet normal 0 0 -1
    outer loop
      vertex -4.97261 -0.522642 0
      vertex -1.18037 -2.31662 0
      vertex 2.5 -4.33013 0
    endloop
  endfacet
  facet normal 0 0 -1
    outer loop
      vertex -0.40673 -2.56799 0
      vertex 2.93893 -4.04508 0
      vertex -0.803444 -2.47275 0
    endloop
  endfacet
  facet normal 0 0 -1
    outer loop
      vertex -0.803444 -2.47275 0
      vertex 2.5 -4.33013 0
      vertex -1.18037 -2.31662 0
    endloop
  endfacet
  facet normal 0 0 -1
    outer loop
      vertex 0.40673 -2.56799 0
      vertex 3.34565 -3.71572 0
      vertex 0 -2.6 0
    endloop
  endfacet
  facet normal 0 0 -1
    outer loop
      vertex 1.18037 -2.31662 0
      vertex 3.71572 -3.34565 0
      vertex 0.803444 -2.47275 0
    endloop
  endfacet
  facet normal 0 0 -1
    outer loop
      vertex 0.803444 -2.47275 0
      vertex 3.34565 -3.71572 0
      vertex 0.40673 -2.56799 0
    endloop
  endfacet
  facet normal 0 0 -1
    outer loop
      vertex 1.83848 -1.83848 0
      vertex 4.33013 -2.5 0
      vertex 1.52824 -2.10344 0
    endloop
  endfacet
  facet normal 0 0 -1
    outer loop
      vertex 1.52824 -2.10344 0
      vertex 4.04508 -2.93893 0
      vertex 1.18037 -2.31662 0
    endloop
  endfacet
  facet normal 0 0 -1
    outer loop
      vertex 2.31662 -1.18037 0
      vertex 4.75528 -1.54508 0
      vertex 2.10344 -1.52824 0
    endloop
  endfacet
  facet normal 0 0 -1
    outer loop
      vertex 2.10344 -1.52824 0
      vertex 4.56773 -2.03368 0
      vertex 1.83848 -1.83848 0
    endloop
  endfacet
  facet normal 0 0 -1
    outer loop
      vertex 2.6 0 0
      vertex 5 0 0
      vertex 2.56799 -0.40673 0
    endloop
  endfacet
  facet normal 0 0 -1
    outer loop
      vertex 2.56799 -0.40673 0
      vertex 4.97261 -0.522642 0
      vertex 2.47275 -0.803444 0
    endloop
  endfacet
  facet normal 0 0 -1
    outer loop
      vertex 2.47275 -0.803444 0
      vertex 4.89074 -1.03956 0
      vertex 2.31662 -1.18037 0
    endloop
  endfacet
  facet normal 0 0 -1
    outer loop
      vertex 2.10344 1.52824 0
      vertex 4.56773 2.03368 0
      vertex 2.31662 1.18037 0
    endloop
  endfacet
  facet normal 0 0 -1
    outer loop
      vertex 2.31662 1.18037 0
      vertex 4.75528 1.54508 0
      vertex 2.47275 0.803444 0
    endloop
  endfacet
  facet normal 0 0 -1
    outer loop
      vertex 2.47275 0.803444 0
      vertex 4.89074 1.03956 0
      vertex 2.56799 0.40673 0
    endloop
  endfacet
  facet normal 0 0 -1
    outer loop
      vertex 1.18037 2.31662 0
      vertex 3.71572 3.34565 0
      vertex 1.52824 2.10344 0
    endloop
  endfacet
  facet normal 0 0 -1
    outer loop
      vertex 0.803444 2.47275 0
      vertex 3.34565 3.71572 0
      vertex 1.18037 2.31662 0
    endloop
  endfacet
  facet normal 0 0 -1
    outer loop
      vertex 0.40673 2.56799 0
      vertex 2.93893 4.04508 0
      vertex 0.803444 2.47275 0
    endloop
  endfacet
  facet normal 0 0 -1
    outer loop
      vertex 0 2.6 0
      vertex 2.93893 4.04508 0
      vertex 0.40673 2.56799 0
    endloop
  endfacet
  facet normal 0 0 -1
    outer loop
      vertex -2.47275 0.803444 0
      vertex -4.97261 -0.522642 0
      vertex -2.31662 1.18037 0
    endloop
  endfacet
  facet normal 0 0 -1
    outer loop
      vertex -0.40673 2.56799 0
      vertex 2.5 4.33013 0
      vertex 0 2.6 0
    endloop
  endfacet
  facet normal 0 0 -1
    outer loop
      vertex -0.803444 2.47275 0
      vertex 2.03368 4.56773 0
      vertex -0.40673 2.56799 0
    endloop
  endfacet
  facet normal 0 0 -1
    outer loop
      vertex -1.18037 2.31662 0
      vertex 2.03368 4.56773 0
      vertex -0.803444 2.47275 0
    endloop
  endfacet
  facet normal 0 0 -1
    outer loop
      vertex -1.52824 2.10344 0
      vertex 1.54508 4.75528 0
      vertex -1.18037 2.31662 0
    endloop
  endfacet
  facet normal 0 0 -1
    outer loop
      vertex -2.10344 1.52824 0
      vertex -4.97261 -0.522642 0
      vertex -1.83848 1.83848 0
    endloop
  endfacet
  facet normal 0 0 -1
    outer loop
      vertex -4.97261 -0.522642 0
      vertex 1.54508 4.75528 0
      vertex -1.52824 2.10344 0
    endloop
  endfacet
  facet normal 0 0 -1
    outer loop
      vertex -4.97261 -0.522642 0
      vertex -1.52824 2.10344 0
      vertex -1.83848 1.83848 0
    endloop
  endfacet
  facet normal 0 0 -1
    outer loop
      vertex -2.31662 1.18037 0
      vertex -4.97261 -0.522642 0
      vertex -2.10344 1.52824 0
    endloop
  endfacet
  facet normal 0 0 -1
    outer loop
      vertex -2.56799 0.40673 0
      vertex -4.97261 -0.522642 0
      vertex -2.47275 0.803444 0
    endloop
  endfacet
  facet normal 0 0 -1
    outer loop
      vertex -2.6 0 0
      vertex -4.97261 -0.522642 0
      vertex -2.56799 0.40673 0
    endloop
  endfacet
  facet normal 0 0 -1
    outer loop
      vertex 1.52824 2.10344 0
      vertex 4.04508 2.93893 0
      vertex 1.83848 1.83848 0
    endloop
  endfacet
  facet normal 0 0 -1
    outer loop
      vertex 1.83848 1.83848 0
      vertex 4.33013 2.5 0
      vertex 2.10344 1.52824 0
    endloop
  endfacet
  facet normal 0 0 -1
    outer loop
      vertex 2.56799 0.40673 0
      vertex 4.97261 0.522642 0
      vertex 2.6 0 0
    endloop
  endfacet
  facet normal -0.998629 0.0523369 0
    outer loop
      vertex -5 0 0
      vertex -5 0 3.9
      vertex -4.97261 0.522642 0
    endloop
  endfacet
  facet normal -0.998629 0.0523369 0
    outer loop
      vertex -4.97261 0.522642 0
      vertex -5 0 3.9
      vertex -4.97261 0.522642 3.9
    endloop
  endfacet
  facet normal -0.998629 -0.0523369 0
    outer loop
      vertex -5 0 0
      vertex -4.97261 -0.522642 0
      vertex -5 0 3.9
    endloop
  endfacet
  facet normal -0.998629 -0.0523369 0
    outer loop
      vertex -5 0 3.9
      vertex -4.97261 -0.522642 0
      vertex -4.97261 -0.522642 3.9
    endloop
  endfacet
  facet normal -0.987688 -0.156434 0
    outer loop
      vertex -4.97261 -0.522642 0
      vertex -4.89074 -1.03956 0
      vertex -4.97261 -0.522642 3.9
    endloop
  endfacet
  facet normal -0.987688 -0.156434 0
    outer loop
      vertex -4.97261 -0.522642 3.9
      vertex -4.89074 -1.03956 0
      vertex -4.89074 -1.03956 3.9
    endloop
  endfacet
  facet normal -0.965926 -0.258818 0
    outer loop
      vertex -4.89074 -1.03956 0
      vertex -4.75528 -1.54508 0
      vertex -4.89074 -1.03956 3.9
    endloop
  endfacet
  facet normal -0.965926 -0.258818 0
    outer loop
      vertex -4.89074 -1.03956 3.9
      vertex -4.75528 -1.54508 0
      vertex -4.75528 -1.54508 3.9
    endloop
  endfacet
  facet normal -0.93358 -0.358369 0
    outer loop
      vertex -4.75528 -1.54508 0
      vertex -4.56773 -2.03368 0
      vertex -4.75528 -1.54508 3.9
    endloop
  endfacet
  facet normal -0.93358 -0.358369 0
    outer loop
      vertex -4.75528 -1.54508 3.9
      vertex -4.56773 -2.03368 0
      vertex -4.56773 -2.03368 3.9
    endloop
  endfacet
  facet normal -0.891007 -0.45399 0
    outer loop
      vertex -4.56773 -2.03368 0
      vertex -4.33013 -2.5 0
      vertex -4.56773 -2.03368 3.9
    endloop
  endfacet
  facet normal -0.891007 -0.45399 0
    outer loop
      vertex -4.56773 -2.03368 3.9
      vertex -4.33013 -2.5 0
      vertex -4.33013 -2.5 3.9
    endloop
  endfacet
  facet normal -0.83867 -0.544639 0
    outer loop
      vertex -4.33013 -2.5 0
      vertex -4.04508 -2.93893 0
      vertex -4.33013 -2.5 3.9
    endloop
  endfacet
  facet normal -0.83867 -0.544639 0
    outer loop
      vertex -4.33013 -2.5 3.9
      vertex -4.04508 -2.93893 0
      vertex -4.04508 -2.93893 3.9
    endloop
  endfacet
  facet normal -0.777146 -0.62932 0
    outer loop
      vertex -4.04508 -2.93893 0
      vertex -3.71572 -3.34565 0
      vertex -4.04508 -2.93893 3.9
    endloop
  endfacet
  facet normal -0.777146 -0.62932 0
    outer loop
      vertex -4.04508 -2.93893 3.9
      vertex -3.71572 -3.34565 0
      vertex -3.71572 -3.34565 3.9
    endloop
  endfacet
  facet normal -0.707107 -0.707107 0
    outer loop
      vertex -3.71572 -3.34565 3.9
      vertex -3.71572 -3.34565 0
      vertex -3.34565 -3.71572 0
    endloop
  endfacet
  facet normal -0.707107 -0.707107 0
    outer loop
      vertex -3.34565 -3.71572 3.9
      vertex -3.71572 -3.34565 3.9
      vertex -3.34565 -3.71572 0
    endloop
  endfacet
  facet normal -0.62932 -0.777146 0
    outer loop
      vertex -3.34565 -3.71572 3.9
      vertex -3.34565 -3.71572 0
      vertex -2.93893 -4.04508 0
    endloop
  endfacet
  facet normal -0.62932 -0.777146 0
    outer loop
      vertex -2.93893 -4.04508 3.9
      vertex -3.34565 -3.71572 3.9
      vertex -2.93893 -4.04508 0
    endloop
  endfacet
  facet normal -0.544639 -0.83867 0
    outer loop
      vertex -2.93893 -4.04508 3.9
      vertex -2.93893 -4.04508 0
      vertex -2.5 -4.33013 0
    endloop
  endfacet
  facet normal -0.544639 -0.83867 0
    outer loop
      vertex -2.5 -4.33013 3.9
      vertex -2.93893 -4.04508 3.9
      vertex -2.5 -4.33013 0
    endloop
  endfacet
  facet normal -0.45399 -0.891007 0
    outer loop
      vertex -2.5 -4.33013 3.9
      vertex -2.5 -4.33013 0
      vertex -2.03368 -4.56773 0
    endloop
  endfacet
  facet normal -0.45399 -0.891007 0
    outer loop
      vertex -2.03368 -4.56773 3.9
      vertex -2.5 -4.33013 3.9
      vertex -2.03368 -4.56773 0
    endloop
  endfacet
  facet normal -0.358369 -0.93358 0
    outer loop
      vertex -2.03368 -4.56773 3.9
      vertex -2.03368 -4.56773 0
      vertex -1.54508 -4.75528 0
    endloop
  endfacet
  facet normal -0.358369 -0.93358 0
    outer loop
      vertex -1.54508 -4.75528 3.9
      vertex -2.03368 -4.56773 3.9
      vertex -1.54508 -4.75528 0
    endloop
  endfacet
  facet normal -0.258818 -0.965926 0
    outer loop
      vertex -1.54508 -4.75528 3.9
      vertex -1.54508 -4.75528 0
      vertex -1.03956 -4.89074 0
    endloop
  endfacet
  facet normal -0.258818 -0.965926 0
    outer loop
      vertex -1.03956 -4.89074 3.9
      vertex -1.54508 -4.75528 3.9
      vertex -1.03956 -4.89074 0
    endloop
  endfacet
  facet normal -0.156434 -0.987688 0
    outer loop
      vertex -1.03956 -4.89074 3.9
      vertex -1.03956 -4.89074 0
      vertex -0.522642 -4.97261 0
    endloop
  endfacet
  facet normal -0.156434 -0.987688 0
    outer loop
      vertex -0.522642 -4.97261 3.9
      vertex -1.03956 -4.89074 3.9
      vertex -0.522642 -4.97261 0
    endloop
  endfacet
  facet normal -0.0523369 -0.998629 0
    outer loop
      vertex -0.522642 -4.97261 3.9
      vertex -0.522642 -4.97261 0
      vertex 0 -5 0
    endloop
  endfacet
  facet normal -0.0523369 -0.998629 0
    outer loop
      vertex 0 -5 3.9
      vertex -0.522642 -4.97261 3.9
      vertex 0 -5 0
    endloop
  endfacet
  facet normal 0.0523369 -0.998629 0
    outer loop
      vertex 0 -5 3.9
      vertex 0 -5 0
      vertex 0.522642 -4.97261 0
    endloop
  endfacet
  facet normal 0.0523369 -0.998629 0
    outer loop
      vertex 0.522642 -4.97261 3.9
      vertex 0 -5 3.9
      vertex 0.522642 -4.97261 0
    endloop
  endfacet
  facet normal 0.156434 -0.987688 0
    outer loop
      vertex 0.522642 -4.97261 3.9
      vertex 0.522642 -4.97261 0
      vertex 1.03956 -4.89074 0
    endloop
  endfacet
  facet normal 0.156434 -0.987688 0
    outer loop
      vertex 1.03956 -4.89074 3.9
      vertex 0.522642 -4.97261 3.9
      vertex 1.03956 -4.89074 0
    endloop
  endfacet
  facet normal 0.258818 -0.965926 0
    outer loop
      vertex 1.03956 -4.89074 3.9
      vertex 1.03956 -4.89074 0
      vertex 1.54508 -4.75528 0
    endloop
  endfacet
  facet normal 0.258818 -0.965926 0
    outer loop
      vertex 1.54508 -4.75528 3.9
      vertex 1.03956 -4.89074 3.9
      vertex 1.54508 -4.75528 0
    endloop
  endfacet
  facet normal 0.358369 -0.93358 0
    outer loop
      vertex 1.54508 -4.75528 3.9
      vertex 1.54508 -4.75528 0
      vertex 2.03368 -4.56773 0
    endloop
  endfacet
  facet normal 0.358369 -0.93358 0
    outer loop
      vertex 2.03368 -4.56773 3.9
      vertex 1.54508 -4.75528 3.9
      vertex 2.03368 -4.56773 0
    endloop
  endfacet
  facet normal 0.45399 -0.891007 0
    outer loop
      vertex 2.03368 -4.56773 3.9
      vertex 2.03368 -4.56773 0
      vertex 2.5 -4.33013 0
    endloop
  endfacet
  facet normal 0.45399 -0.891007 0
    outer loop
      vertex 2.5 -4.33013 3.9
      vertex 2.03368 -4.56773 3.9
      vertex 2.5 -4.33013 0
    endloop
  endfacet
  facet normal 0.544639 -0.83867 0
    outer loop
      vertex 2.5 -4.33013 3.9
      vertex 2.5 -4.33013 0
      vertex 2.93893 -4.04508 0
    endloop
  endfacet
  facet normal 0.544639 -0.83867 0
    outer loop
      vertex 2.93893 -4.04508 3.9
      vertex 2.5 -4.33013 3.9
      vertex 2.93893 -4.04508 0
    endloop
  endfacet
  facet normal 0.62932 -0.777146 0
    outer loop
      vertex 2.93893 -4.04508 3.9
      vertex 2.93893 -4.04508 0
      vertex 3.34565 -3.71572 0
    endloop
  endfacet
  facet normal 0.62932 -0.777146 0
    outer loop
      vertex 3.34565 -3.71572 3.9
      vertex 2.93893 -4.04508 3.9
      vertex 3.34565 -3.71572 0
    endloop
  endfacet
  facet normal 0.707107 -0.707107 0
    outer loop
      vertex 3.34565 -3.71572 3.9
      vertex 3.34565 -3.71572 0
      vertex 3.71572 -3.34565 0
    endloop
  endfacet
  facet normal 0.707107 -0.707107 0
    outer loop
      vertex 3.71572 -3.34565 3.9
      vertex 3.34565 -3.71572 3.9
      vertex 3.71572 -3.34565 0
    endloop
  endfacet
  facet normal 0.777146 -0.62932 0
    outer loop
      vertex 3.71572 -3.34565 3.9
      vertex 3.71572 -3.34565 0
      vertex 4.04508 -2.93893 0
    endloop
  endfacet
  facet normal 0.777146 -0.62932 0
    outer loop
      vertex 4.04508 -2.93893 3.9
      vertex 3.71572 -3.34565 3.9
      vertex 4.04508 -2.93893 0
    endloop
  endfacet
  facet normal 0.83867 -0.544639 0
    outer loop
      vertex 4.04508 -2.93893 3.9
      vertex 4.04508 -2.93893 0
      vertex 4.33013 -2.5 0
    endloop
  endfacet
  facet normal 0.83867 -0.544639 0
    outer loop
      vertex 4.33013 -2.5 3.9
      vertex 4.04508 -2.93893 3.9
      vertex 4.33013 -2.5 0
    endloop
  endfacet
  facet normal 0.891007 -0.45399 0
    outer loop
      vertex 4.33013 -2.5 3.9
      vertex 4.33013 -2.5 0
      vertex 4.56773 -2.03368 0
    endloop
  endfacet
  facet normal 0.891007 -0.45399 0
    outer loop
      vertex 4.56773 -2.03368 3.9
      vertex 4.33013 -2.5 3.9
      vertex 4.56773 -2.03368 0
    endloop
  endfacet
  facet normal 0.93358 -0.358369 0
    outer loop
      vertex 4.56773 -2.03368 3.9
      vertex 4.56773 -2.03368 0
      vertex 4.75528 -1.54508 0
    endloop
  endfacet
  facet normal 0.93358 -0.358369 0
    outer loop
      vertex 4.75528 -1.54508 3.9
      vertex 4.56773 -2.03368 3.9
      vertex 4.75528 -1.54508 0
    endloop
  endfacet
  facet normal 0.965926 -0.258818 0
    outer loop
      vertex 4.75528 -1.54508 3.9
      vertex 4.75528 -1.54508 0
      vertex 4.89074 -1.03956 0
    endloop
  endfacet
  facet normal 0.965926 -0.258818 0
    outer loop
      vertex 4.89074 -1.03956 3.9
      vertex 4.75528 -1.54508 3.9
      vertex 4.89074 -1.03956 0
    endloop
  endfacet
  facet normal 0.987688 -0.156434 0
    outer loop
      vertex 4.89074 -1.03956 3.9
      vertex 4.89074 -1.03956 0
      vertex 4.97261 -0.522642 0
    endloop
  endfacet
  facet normal 0.987688 -0.156434 0
    outer loop
      vertex 4.97261 -0.522642 3.9
      vertex 4.89074 -1.03956 3.9
      vertex 4.97261 -0.522642 0
    endloop
  endfacet
  facet normal 0.998629 -0.0523369 0
    outer loop
      vertex 4.97261 -0.522642 3.9
      vertex 4.97261 -0.522642 0
      vertex 5 0 0
    endloop
  endfacet
  facet normal 0.998629 -0.0523369 0
    outer loop
      vertex 5 0 3.9
      vertex 4.97261 -0.522642 3.9
      vertex 5 0 0
    endloop
  endfacet
  facet normal 0.998629 0.0523369 0
    outer loop
      vertex 5 0 0
      vertex 4.97261 0.522642 0
      vertex 4.97261 0.522642 3.9
    endloop
  endfacet
  facet normal 0.998629 0.0523369 0
    outer loop
      vertex 5 0 3.9
      vertex 5 0 0
      vertex 4.97261 0.522642 3.9
    endloop
  endfacet
  facet normal 0.987688 0.156434 0
    outer loop
      vertex 4.97261 0.522642 0
      vertex 4.89074 1.03956 0
      vertex 4.89074 1.03956 3.9
    endloop
  endfacet
  facet normal 0.987688 0.156434 0
    outer loop
      vertex 4.97261 0.522642 3.9
      vertex 4.97261 0.522642 0
      vertex 4.89074 1.03956 3.9
    endloop
  endfacet
  facet normal 0.965926 0.258818 0
    outer loop
      vertex 4.89074 1.03956 0
      vertex 4.75528 1.54508 0
      vertex 4.75528 1.54508 3.9
    endloop
  endfacet
  facet normal 0.965926 0.258818 0
    outer loop
      vertex 4.89074 1.03956 3.9
      vertex 4.89074 1.03956 0
      vertex 4.75528 1.54508 3.9
    endloop
  endfacet
  facet normal 0.93358 0.358369 0
    outer loop
      vertex 4.75528 1.54508 0
      vertex 4.56773 2.03368 0
      vertex 4.56773 2.03368 3.9
    endloop
  endfacet
  facet normal 0.93358 0.358369 0
    outer loop
      vertex 4.75528 1.54508 3.9
      vertex 4.75528 1.54508 0
      vertex 4.56773 2.03368 3.9
    endloop
  endfacet
  facet normal 0.891007 0.45399 0
    outer loop
      vertex 4.56773 2.03368 0
      vertex 4.33013 2.5 0
      vertex 4.33013 2.5 3.9
    endloop
  endfacet
  facet normal 0.891007 0.45399 0
    outer loop
      vertex 4.56773 2.03368 3.9
      vertex 4.56773 2.03368 0
      vertex 4.33013 2.5 3.9
    endloop
  endfacet
  facet normal 0.83867 0.544639 0
    outer loop
      vertex 4.33013 2.5 0
      vertex 4.04508 2.93893 0
      vertex 4.04508 2.93893 3.9
    endloop
  endfacet
  facet normal 0.83867 0.544639 0
    outer loop
      vertex 4.33013 2.5 3.9
      vertex 4.33013 2.5 0
      vertex 4.04508 2.93893 3.9
    endloop
  endfacet
  facet normal 0.777146 0.62932 0
    outer loop
      vertex 4.04508 2.93893 0
      vertex 3.71572 3.34565 0
      vertex 3.71572 3.34565 3.9
    endloop
  endfacet
  facet normal 0.777146 0.62932 0
    outer loop
      vertex 4.04508 2.93893 3.9
      vertex 4.04508 2.93893 0
      vertex 3.71572 3.34565 3.9
    endloop
  endfacet
  facet normal 0.707107 0.707107 0
    outer loop
      vertex 3.34565 3.71572 0
      vertex 3.34565 3.71572 3.9
      vertex 3.71572 3.34565 0
    endloop
  endfacet
  facet normal 0.707107 0.707107 0
    outer loop
      vertex 3.71572 3.34565 0
      vertex 3.34565 3.71572 3.9
      vertex 3.71572 3.34565 3.9
    endloop
  endfacet
  facet normal 0.62932 0.777146 0
    outer loop
      vertex 2.93893 4.04508 0
      vertex 2.93893 4.04508 3.9
      vertex 3.34565 3.71572 0
    endloop
  endfacet
  facet normal 0.62932 0.777146 0
    outer loop
      vertex 3.34565 3.71572 0
      vertex 2.93893 4.04508 3.9
      vertex 3.34565 3.71572 3.9
    endloop
  endfacet
  facet normal 0.544639 0.83867 0
    outer loop
      vertex 2.5 4.33013 0
      vertex 2.5 4.33013 3.9
      vertex 2.93893 4.04508 0
    endloop
  endfacet
  facet normal 0.544639 0.83867 0
    outer loop
      vertex 2.93893 4.04508 0
      vertex 2.5 4.33013 3.9
      vertex 2.93893 4.04508 3.9
    endloop
  endfacet
  facet normal 0.45399 0.891007 0
    outer loop
      vertex 2.03368 4.56773 0
      vertex 2.03368 4.56773 3.9
      vertex 2.5 4.33013 0
    endloop
  endfacet
  facet normal 0.45399 0.891007 0
    outer loop
      vertex 2.5 4.33013 0
      vertex 2.03368 4.56773 3.9
      vertex 2.5 4.33013 3.9
    endloop
  endfacet
  facet normal 0.358369 0.93358 0
    outer loop
      vertex 1.54508 4.75528 0
      vertex 1.54508 4.75528 3.9
      vertex 2.03368 4.56773 0
    endloop
  endfacet
  facet normal 0.358369 0.93358 0
    outer loop
      vertex 2.03368 4.56773 0
      vertex 1.54508 4.75528 3.9
      vertex 2.03368 4.56773 3.9
    endloop
  endfacet
  facet normal 0.258818 0.965926 0
    outer loop
      vertex 1.03956 4.89074 0
      vertex 1.03956 4.89074 3.9
      vertex 1.54508 4.75528 0
    endloop
  endfacet
  facet normal 0.258818 0.965926 0
    outer loop
      vertex 1.54508 4.75528 0
      vertex 1.03956 4.89074 3.9
      vertex 1.54508 4.75528 3.9
    endloop
  endfacet
  facet normal 0.156434 0.987688 0
    outer loop
      vertex 0.522642 4.97261 0
      vertex 0.522642 4.97261 3.9
      vertex 1.03956 4.89074 0
    endloop
  endfacet
  facet normal 0.156434 0.987688 0
    outer loop
      vertex 1.03956 4.89074 0
      vertex 0.522642 4.97261 3.9
      vertex 1.03956 4.89074 3.9
    endloop
  endfacet
  facet normal 0.0523369 0.998629 0
    outer loop
      vertex 0 5 0
      vertex 0 5 3.9
      vertex 0.522642 4.97261 0
    endloop
  endfacet
  facet normal 0.0523369 0.998629 0
    outer loop
      vertex 0.522642 4.97261 0
      vertex 0 5 3.9
      vertex 0.522642 4.97261 3.9
    endloop
  endfacet
  facet normal -0.0523369 0.998629 0
    outer loop
      vertex -0.522642 4.97261 0
      vertex -0.522642 4.97261 3.9
      vertex 0 5 0
    endloop
  endfacet
  facet normal -0.0523369 0.998629 0
    outer loop
      vertex 0 5 0
      vertex -0.522642 4.97261 3.9
      vertex 0 5 3.9
    endloop
  endfacet
  facet normal -0.156434 0.987688 0
    outer loop
      vertex -1.03956 4.89074 0
      vertex -1.03956 4.89074 3.9
      vertex -0.522642 4.97261 0
    endloop
  endfacet
  facet normal -0.156434 0.987688 0
    outer loop
      vertex -0.522642 4.97261 0
      vertex -1.03956 4.89074 3.9
      vertex -0.522642 4.97261 3.9
    endloop
  endfacet
  facet normal -0.258818 0.965926 0
    outer loop
      vertex -1.54508 4.75528 0
      vertex -1.54508 4.75528 3.9
      vertex -1.03956 4.89074 0
    endloop
  endfacet
  facet normal -0.258818 0.965926 0
    outer loop
      vertex -1.03956 4.89074 0
      vertex -1.54508 4.75528 3.9
      vertex -1.03956 4.89074 3.9
    endloop
  endfacet
  facet normal -0.358369 0.93358 0
    outer loop
      vertex -2.03368 4.56773 0
      vertex -2.03368 4.56773 3.9
      vertex -1.54508 4.75528 0
    endloop
  endfacet
  facet normal -0.358369 0.93358 0
    outer loop
      vertex -1.54508 4.75528 0
      vertex -2.03368 4.56773 3.9
      vertex -1.54508 4.75528 3.9
    endloop
  endfacet
  facet normal -0.45399 0.891007 0
    outer loop
      vertex -2.5 4.33013 0
      vertex -2.5 4.33013 3.9
      vertex -2.03368 4.56773 0
    endloop
  endfacet
  facet normal -0.45399 0.891007 0
    outer loop
      vertex -2.03368 4.56773 0
      vertex -2.5 4.33013 3.9
      vertex -2.03368 4.56773 3.9
    endloop
  endfacet
  facet normal -0.544639 0.83867 0
    outer loop
      vertex -2.93893 4.04508 0
      vertex -2.93893 4.04508 3.9
      vertex -2.5 4.33013 0
    endloop
  endfacet
  facet normal -0.544639 0.83867 0
    outer loop
      vertex -2.5 4.33013 0
      vertex -2.93893 4.04508 3.9
      vertex -2.5 4.33013 3.9
    endloop
  endfacet
  facet normal -0.62932 0.777146 0
    outer loop
      vertex -3.34565 3.71572 0
      vertex -3.34565 3.71572 3.9
      vertex -2.93893 4.04508 0
    endloop
  endfacet
  facet normal -0.62932 0.777146 0
    outer loop
      vertex -2.93893 4.04508 0
      vertex -3.34565 3.71572 3.9
      vertex -2.93893 4.04508 3.9
    endloop
  endfacet
  facet normal -0.707107 0.707107 0
    outer loop
      vertex -3.71572 3.34565 0
      vertex -3.71572 3.34565 3.9
      vertex -3.34565 3.71572 0
    endloop
  endfacet
  facet normal -0.707107 0.707107 0
    outer loop
      vertex -3.34565 3.71572 0
      vertex -3.71572 3.34565 3.9
      vertex -3.34565 3.71572 3.9
    endloop
  endfacet
  facet normal -0.777146 0.62932 0
    outer loop
      vertex -4.04508 2.93893 0
      vertex -4.04508 2.93893 3.9
      vertex -3.71572 3.34565 0
    endloop
  endfacet
  facet normal -0.777146 0.62932 0
    outer loop
      vertex -3.71572 3.34565 0
      vertex -4.04508 2.93893 3.9
      vertex -3.71572 3.34565 3.9
    endloop
  endfacet
  facet normal -0.83867 0.544639 0
    outer loop
      vertex -4.33013 2.5 0
      vertex -4.33013 2.5 3.9
      vertex -4.04508 2.93893 0
    endloop
  endfacet
  facet normal -0.83867 0.544639 0
    outer loop
      vertex -4.04508 2.93893 0
      vertex -4.33013 2.5 3.9
      vertex -4.04508 2.93893 3.9
    endloop
  endfacet
  facet normal -0.891007 0.45399 0
    outer loop
      vertex -4.56773 2.03368 0
      vertex -4.56773 2.03368 3.9
      vertex -4.33013 2.5 0
    endloop
  endfacet
  facet normal -0.891007 0.45399 0
    outer loop
      vertex -4.33013 2.5 0
      vertex -4.56773 2.03368 3.9
      vertex -4.33013 2.5 3.9
    endloop
  endfacet
  facet normal -0.93358 0.358369 0
    outer loop
      vertex -4.75528 1.54508 0
      vertex -4.75528 1.54508 3.9
      vertex -4.56773 2.03368 0
    endloop
  endfacet
  facet normal -0.93358 0.358369 0
    outer loop
      vertex -4.56773 2.03368 0
      vertex -4.75528 1.54508 3.9
      vertex -4.56773 2.03368 3.9
    endloop
  endfacet
  facet normal -0.965926 0.258818 0
    outer loop
      vertex -4.89074 1.03956 0
      vertex -4.89074 1.03956 3.9
      vertex -4.75528 1.54508 0
    endloop
  endfacet
  facet normal -0.965926 0.258818 0
    outer loop
      vertex -4.75528 1.54508 0
      vertex -4.89074 1.03956 3.9
      vertex -4.75528 1.54508 3.9
    endloop
  endfacet
  facet normal -0.987688 0.156434 0
    outer loop
      vertex -4.97261 0.522642 0
      vertex -4.97261 0.522642 3.9
      vertex -4.89074 1.03956 0
    endloop
  endfacet
  facet normal -0.987688 0.156434 0
    outer loop
      vertex -4.89074 1.03956 0
      vertex -4.97261 0.522642 3.9
      vertex -4.89074 1.03956 3.9
    endloop
  endfacet
  facet normal 0.996917 0.0784583 0
    outer loop
      vertex -2.6 0 3.9
      vertex -2.56799 -0.40673 3.9
      vertex -2.56799 -0.40673 0
    endloop
  endfacet
  facet normal 0.996917 0.0784583 0
    outer loop
      vertex -2.6 0 0
      vertex -2.6 0 3.9
      vertex -2.56799 -0.40673 0
    endloop
  endfacet
  facet normal 0.996917 -0.0784583 0
    outer loop
      vertex -2.56799 0.40673 0
      vertex -2.56799 0.40673 3.9
      vertex -2.6 0 3.9
    endloop
  endfacet
  facet normal 0.996917 -0.0784583 0
    outer loop
      vertex -2.6 0 0
      vertex -2.56799 0.40673 0
      vertex -2.6 0 3.9
    endloop
  endfacet
  facet normal 0.97237 -0.233446 0
    outer loop
      vertex -2.47275 0.803444 0
      vertex -2.47275 0.803444 3.9
      vertex -2.56799 0.40673 3.9
    endloop
  endfacet
  facet normal 0.97237 -0.233446 0
    outer loop
      vertex -2.56799 0.40673 0
      vertex -2.47275 0.803444 0
      vertex -2.56799 0.40673 3.9
    endloop
  endfacet
  facet normal 0.923879 -0.382684 0
    outer loop
      vertex -2.31662 1.18037 0
      vertex -2.31662 1.18037 3.9
      vertex -2.47275 0.803444 3.9
    endloop
  endfacet
  facet normal 0.923879 -0.382684 0
    outer loop
      vertex -2.47275 0.803444 0
      vertex -2.31662 1.18037 0
      vertex -2.47275 0.803444 3.9
    endloop
  endfacet
  facet normal 0.85264 -0.522498 0
    outer loop
      vertex -2.10344 1.52824 0
      vertex -2.10344 1.52824 3.9
      vertex -2.31662 1.18037 3.9
    endloop
  endfacet
  facet normal 0.85264 -0.522498 0
    outer loop
      vertex -2.31662 1.18037 0
      vertex -2.10344 1.52824 0
      vertex -2.31662 1.18037 3.9
    endloop
  endfacet
  facet normal 0.760407 -0.649447 0
    outer loop
      vertex -1.83848 1.83848 0
      vertex -1.83848 1.83848 3.9
      vertex -2.10344 1.52824 3.9
    endloop
  endfacet
  facet normal 0.760407 -0.649447 0
    outer loop
      vertex -2.10344 1.52824 0
      vertex -1.83848 1.83848 0
      vertex -2.10344 1.52824 3.9
    endloop
  endfacet
  facet normal 0.649447 -0.760407 0
    outer loop
      vertex -1.52824 2.10344 0
      vertex -1.52824 2.10344 3.9
      vertex -1.83848 1.83848 3.9
    endloop
  endfacet
  facet normal 0.649447 -0.760407 0
    outer loop
      vertex -1.83848 1.83848 0
      vertex -1.52824 2.10344 0
      vertex -1.83848 1.83848 3.9
    endloop
  endfacet
  facet normal 0.522498 -0.85264 0
    outer loop
      vertex -1.18037 2.31662 0
      vertex -1.18037 2.31662 3.9
      vertex -1.52824 2.10344 3.9
    endloop
  endfacet
  facet normal 0.522498 -0.85264 0
    outer loop
      vertex -1.52824 2.10344 0
      vertex -1.18037 2.31662 0
      vertex -1.52824 2.10344 3.9
    endloop
  endfacet
  facet normal 0.382684 -0.923879 0
    outer loop
      vertex -0.803444 2.47275 0
      vertex -0.803444 2.47275 3.9
      vertex -1.18037 2.31662 3.9
    endloop
  endfacet
  facet normal 0.382684 -0.923879 0
    outer loop
      vertex -1.18037 2.31662 0
      vertex -0.803444 2.47275 0
      vertex -1.18037 2.31662 3.9
    endloop
  endfacet
  facet normal 0.233446 -0.97237 0
    outer loop
      vertex -0.40673 2.56799 0
      vertex -0.40673 2.56799 3.9
      vertex -0.803444 2.47275 3.9
    endloop
  endfacet
  facet normal 0.233446 -0.97237 0
    outer loop
      vertex -0.803444 2.47275 0
      vertex -0.40673 2.56799 0
      vertex -0.803444 2.47275 3.9
    endloop
  endfacet
  facet normal 0.0784583 -0.996917 0
    outer loop
      vertex 0 2.6 0
      vertex 0 2.6 3.9
      vertex -0.40673 2.56799 3.9
    endloop
  endfacet
  facet normal 0.0784583 -0.996917 0
    outer loop
      vertex -0.40673 2.56799 0
      vertex 0 2.6 0
      vertex -0.40673 2.56799 3.9
    endloop
  endfacet
  facet normal -0.0784583 -0.996917 0
    outer loop
      vertex 0.40673 2.56799 0
      vertex 0.40673 2.56799 3.9
      vertex 0 2.6 3.9
    endloop
  endfacet
  facet normal -0.0784583 -0.996917 0
    outer loop
      vertex 0 2.6 0
      vertex 0.40673 2.56799 0
      vertex 0 2.6 3.9
    endloop
  endfacet
  facet normal -0.233446 -0.97237 0
    outer loop
      vertex 0.803444 2.47275 0
      vertex 0.803444 2.47275 3.9
      vertex 0.40673 2.56799 3.9
    endloop
  endfacet
  facet normal -0.233446 -0.97237 0
    outer loop
      vertex 0.40673 2.56799 0
      vertex 0.803444 2.47275 0
      vertex 0.40673 2.56799 3.9
    endloop
  endfacet
  facet normal -0.382684 -0.923879 0
    outer loop
      vertex 1.18037 2.31662 0
      vertex 1.18037 2.31662 3.9
      vertex 0.803444 2.47275 3.9
    endloop
  endfacet
  facet normal -0.382684 -0.923879 0
    outer loop
      vertex 0.803444 2.47275 0
      vertex 1.18037 2.31662 0
      vertex 0.803444 2.47275 3.9
    endloop
  endfacet
  facet normal -0.522498 -0.85264 0
    outer loop
      vertex 1.52824 2.10344 0
      vertex 1.52824 2.10344 3.9
      vertex 1.18037 2.31662 3.9
    endloop
  endfacet
  facet normal -0.522498 -0.85264 0
    outer loop
      vertex 1.18037 2.31662 0
      vertex 1.52824 2.10344 0
      vertex 1.18037 2.31662 3.9
    endloop
  endfacet
  facet normal -0.649447 -0.760407 0
    outer loop
      vertex 1.83848 1.83848 0
      vertex 1.83848 1.83848 3.9
      vertex 1.52824 2.10344 3.9
    endloop
  endfacet
  facet normal -0.649447 -0.760407 0
    outer loop
      vertex 1.52824 2.10344 0
      vertex 1.83848 1.83848 0
      vertex 1.52824 2.10344 3.9
    endloop
  endfacet
  facet normal -0.760407 -0.649447 0
    outer loop
      vertex 2.10344 1.52824 3.9
      vertex 1.83848 1.83848 3.9
      vertex 2.10344 1.52824 0
    endloop
  endfacet
  facet normal -0.760407 -0.649447 0
    outer loop
      vertex 2.10344 1.52824 0
      vertex 1.83848 1.83848 3.9
      vertex 1.83848 1.83848 0
    endloop
  endfacet
  facet normal -0.85264 -0.522498 0
    outer loop
      vertex 2.31662 1.18037 3.9
      vertex 2.10344 1.52824 3.9
      vertex 2.31662 1.18037 0
    endloop
  endfacet
  facet normal -0.85264 -0.522498 0
    outer loop
      vertex 2.31662 1.18037 0
      vertex 2.10344 1.52824 3.9
      vertex 2.10344 1.52824 0
    endloop
  endfacet
  facet normal -0.923879 -0.382684 0
    outer loop
      vertex 2.47275 0.803444 3.9
      vertex 2.31662 1.18037 3.9
      vertex 2.47275 0.803444 0
    endloop
  endfacet
  facet normal -0.923879 -0.382684 0
    outer loop
      vertex 2.47275 0.803444 0
      vertex 2.31662 1.18037 3.9
      vertex 2.31662 1.18037 0
    endloop
  endfacet
  facet normal -0.97237 -0.233446 0
    outer loop
      vertex 2.56799 0.40673 3.9
      vertex 2.47275 0.803444 3.9
      vertex 2.56799 0.40673 0
    endloop
  endfacet
  facet normal -0.97237 -0.233446 0
    outer loop
      vertex 2.56799 0.40673 0
      vertex 2.47275 0.803444 3.9
      vertex 2.47275 0.803444 0
    endloop
  endfacet
  facet normal -0.996917 -0.0784583 0
    outer loop
      vertex 2.6 0 3.9
      vertex 2.56799 0.40673 3.9
      vertex 2.6 0 0
    endloop
  endfacet
  facet normal -0.996917 -0.0784583 0
    outer loop
      vertex 2.6 0 0
      vertex 2.56799 0.40673 3.9
      vertex 2.56799 0.40673 0
    endloop
  endfacet
  facet normal -0.996917 0.0784583 0
    outer loop
      vertex 2.6 0 3.9
      vertex 2.6 0 0
      vertex 2.56799 -0.40673 3.9
    endloop
  endfacet
  facet normal -0.996917 0.0784583 0
    outer loop
      vertex 2.56799 -0.40673 3.9
      vertex 2.6 0 0
      vertex 2.56799 -0.40673 0
    endloop
  endfacet
  facet normal -0.97237 0.233446 0
    outer loop
      vertex 2.56799 -0.40673 3.9
      vertex 2.56799 -0.40673 0
      vertex 2.47275 -0.803444 3.9
    endloop
  endfacet
  facet normal -0.97237 0.233446 0
    outer loop
      vertex 2.47275 -0.803444 3.9
      vertex 2.56799 -0.40673 0
      vertex 2.47275 -0.803444 0
    endloop
  endfacet
  facet normal -0.923879 0.382684 0
    outer loop
      vertex 2.47275 -0.803444 3.9
      vertex 2.47275 -0.803444 0
      vertex 2.31662 -1.18037 3.9
    endloop
  endfacet
  facet normal -0.923879 0.382684 0
    outer loop
      vertex 2.31662 -1.18037 3.9
      vertex 2.47275 -0.803444 0
      vertex 2.31662 -1.18037 0
    endloop
  endfacet
  facet normal -0.85264 0.522498 0
    outer loop
      vertex 2.31662 -1.18037 3.9
      vertex 2.31662 -1.18037 0
      vertex 2.10344 -1.52824 3.9
    endloop
  endfacet
  facet normal -0.85264 0.522498 0
    outer loop
      vertex 2.10344 -1.52824 3.9
      vertex 2.31662 -1.18037 0
      vertex 2.10344 -1.52824 0
    endloop
  endfacet
  facet normal -0.760407 0.649447 0
    outer loop
      vertex 2.10344 -1.52824 3.9
      vertex 2.10344 -1.52824 0
      vertex 1.83848 -1.83848 3.9
    endloop
  endfacet
  facet normal -0.760407 0.649447 0
    outer loop
      vertex 1.83848 -1.83848 3.9
      vertex 2.10344 -1.52824 0
      vertex 1.83848 -1.83848 0
    endloop
  endfacet
  facet normal -0.649447 0.760407 0
    outer loop
      vertex 1.83848 -1.83848 3.9
      vertex 1.83848 -1.83848 0
      vertex 1.52824 -2.10344 3.9
    endloop
  endfacet
  facet normal -0.649447 0.760407 0
    outer loop
      vertex 1.52824 -2.10344 3.9
      vertex 1.83848 -1.83848 0
      vertex 1.52824 -2.10344 0
    endloop
  endfacet
  facet normal -0.522498 0.85264 0
    outer loop
      vertex 1.52824 -2.10344 3.9
      vertex 1.52824 -2.10344 0
      vertex 1.18037 -2.31662 3.9
    endloop
  endfacet
  facet normal -0.522498 0.85264 0
    outer loop
      vertex 1.18037 -2.31662 3.9
      vertex 1.52824 -2.10344 0
      vertex 1.18037 -2.31662 0
    endloop
  endfacet
  facet normal -0.382684 0.923879 0
    outer loop
      vertex 1.18037 -2.31662 3.9
      vertex 1.18037 -2.31662 0
      vertex 0.803444 -2.47275 3.9
    endloop
  endfacet
  facet normal -0.382684 0.923879 0
    outer loop
      vertex 0.803444 -2.47275 3.9
      vertex 1.18037 -2.31662 0
      vertex 0.803444 -2.47275 0
    endloop
  endfacet
  facet normal -0.233446 0.97237 0
    outer loop
      vertex 0.803444 -2.47275 3.9
      vertex 0.803444 -2.47275 0
      vertex 0.40673 -2.56799 3.9
    endloop
  endfacet
  facet normal -0.233446 0.97237 0
    outer loop
      vertex 0.40673 -2.56799 3.9
      vertex 0.803444 -2.47275 0
      vertex 0.40673 -2.56799 0
    endloop
  endfacet
  facet normal -0.0784583 0.996917 0
    outer loop
      vertex 0.40673 -2.56799 3.9
      vertex 0.40673 -2.56799 0
      vertex 0 -2.6 3.9
    endloop
  endfacet
  facet normal -0.0784583 0.996917 0
    outer loop
      vertex 0 -2.6 3.9
      vertex 0.40673 -2.56799 0
      vertex 0 -2.6 0
    endloop
  endfacet
  facet normal 0.0784583 0.996917 0
    outer loop
      vertex 0 -2.6 3.9
      vertex 0 -2.6 0
      vertex -0.40673 -2.56799 3.9
    endloop
  endfacet
  facet normal 0.0784583 0.996917 0
    outer loop
      vertex -0.40673 -2.56799 3.9
      vertex 0 -2.6 0
      vertex -0.40673 -2.56799 0
    endloop
  endfacet
  facet normal 0.233446 0.97237 0
    outer loop
      vertex -0.40673 -2.56799 3.9
      vertex -0.40673 -2.56799 0
      vertex -0.803444 -2.47275 3.9
    endloop
  endfacet
  facet normal 0.233446 0.97237 0
    outer loop
      vertex -0.803444 -2.47275 3.9
      vertex -0.40673 -2.56799 0
      vertex -0.803444 -2.47275 0
    endloop
  endfacet
  facet normal 0.382684 0.923879 0
    outer loop
      vertex -0.803444 -2.47275 3.9
      vertex -0.803444 -2.47275 0
      vertex -1.18037 -2.31662 3.9
    endloop
  endfacet
  facet normal 0.382684 0.923879 0
    outer loop
      vertex -1.18037 -2.31662 3.9
      vertex -0.803444 -2.47275 0
      vertex -1.18037 -2.31662 0
    endloop
  endfacet
  facet normal 0.522498 0.85264 0
    outer loop
      vertex -1.18037 -2.31662 3.9
      vertex -1.18037 -2.31662 0
      vertex -1.52824 -2.10344 3.9
    endloop
  endfacet
  facet normal 0.522498 0.85264 0
    outer loop
      vertex -1.52824 -2.10344 3.9
      vertex -1.18037 -2.31662 0
      vertex -1.52824 -2.10344 0
    endloop
  endfacet
  facet normal 0.649447 0.760407 0
    outer loop
      vertex -1.52824 -2.10344 3.9
      vertex -1.52824 -2.10344 0
      vertex -1.83848 -1.83848 3.9
    endloop
  endfacet
  facet normal 0.649447 0.760407 0
    outer loop
      vertex -1.83848 -1.83848 3.9
      vertex -1.52824 -2.10344 0
      vertex -1.83848 -1.83848 0
    endloop
  endfacet
  facet normal 0.760407 0.649447 0
    outer loop
      vertex -2.10344 -1.52824 3.9
      vertex -1.83848 -1.83848 3.9
      vertex -1.83848 -1.83848 0
    endloop
  endfacet
  facet normal 0.760407 0.649447 0
    outer loop
      vertex -2.10344 -1.52824 0
      vertex -2.10344 -1.52824 3.9
      vertex -1.83848 -1.83848 0
    endloop
  endfacet
  facet normal 0.85264 0.522498 0
    outer loop
      vertex -2.31662 -1.18037 3.9
      vertex -2.10344 -1.52824 3.9
      vertex -2.10344 -1.52824 0
    endloop
  endfacet
  facet normal 0.85264 0.522498 0
    outer loop
      vertex -2.31662 -1.18037 0
      vertex -2.31662 -1.18037 3.9
      vertex -2.10344 -1.52824 0
    endloop
  endfacet
  facet normal 0.923879 0.382684 0
    outer loop
      vertex -2.47275 -0.803444 3.9
      vertex -2.31662 -1.18037 3.9
      vertex -2.31662 -1.18037 0
    endloop
  endfacet
  facet normal 0.923879 0.382684 0
    outer loop
      vertex -2.47275 -0.803444 0
      vertex -2.47275 -0.803444 3.9
      vertex -2.31662 -1.18037 0
    endloop
  endfacet
  facet normal 0.97237 0.233446 0
    outer loop
      vertex -2.56799 -0.40673 3.9
      vertex -2.47275 -0.803444 3.9
      vertex -2.47275 -0.803444 0
    endloop
  endfacet
  facet normal 0.97237 0.233446 0
    outer loop
      vertex -2.56799 -0.40673 0
      vertex -2.56799 -0.40673 3.9
      vertex -2.47275 -0.803444 0
    endloop
  endfacet
  facet normal 0 0 1
    outer loop
      vertex -4.97261 0.522642 3.9
      vertex -5 0 3.9
      vertex -4.97261 -0.522642 3.9
    endloop
  endfacet
  facet normal 0 0 1
    outer loop
      vertex -4.75528 -1.54508 3.9
      vertex -4.97261 0.522642 3.9
      vertex -4.89074 -1.03956 3.9
    endloop
  endfacet
  facet normal 0 0 1
    outer loop
      vertex -4.89074 -1.03956 3.9
      vertex -4.97261 0.522642 3.9
      vertex -4.97261 -0.522642 3.9
    endloop
  endfacet
  facet normal 0 0 1
    outer loop
      vertex -4.56773 -2.03368 3.9
      vertex -4.97261 0.522642 3.9
      vertex -4.75528 -1.54508 3.9
    endloop
  endfacet
  facet normal 0 0 1
    outer loop
      vertex -4.33013 -2.5 3.9
      vertex -4.97261 0.522642 3.9
      vertex -4.56773 -2.03368 3.9
    endloop
  endfacet
  facet normal 0 0 1
    outer loop
      vertex -4.04508 -2.93893 3.9
      vertex -4.97261 0.522642 3.9
      vertex -4.33013 -2.5 3.9
    endloop
  endfacet
  facet normal 0 0 1
    outer loop
      vertex -3.71572 -3.34565 3.9
      vertex -4.97261 0.522642 3.9
      vertex -4.04508 -2.93893 3.9
    endloop
  endfacet
  facet normal 0 0 1
    outer loop
      vertex -3.34565 -3.71572 3.9
      vertex -4.97261 0.522642 3.9
      vertex -3.71572 -3.34565 3.9
    endloop
  endfacet
  facet normal 0 0 1
    outer loop
      vertex -2.93893 -4.04508 3.9
      vertex -4.97261 0.522642 3.9
      vertex -3.34565 -3.71572 3.9
    endloop
  endfacet
  facet normal 0 0 1
    outer loop
      vertex -2.5 -4.33013 3.9
      vertex -4.97261 0.522642 3.9
      vertex -2.93893 -4.04508 3.9
    endloop
  endfacet
  facet normal 0 0 1
    outer loop
      vertex -2.03368 -4.56773 3.9
      vertex -4.97261 0.522642 3.9
      vertex -2.5 -4.33013 3.9
    endloop
  endfacet
  facet normal 0 0 1
    outer loop
      vertex -1.54508 -4.75528 3.9
      vertex -4.97261 0.522642 3.9
      vertex -2.03368 -4.56773 3.9
    endloop
  endfacet
  facet normal 0 0 1
    outer loop
      vertex -1.03956 -4.89074 3.9
      vertex -4.97261 0.522642 3.9
      vertex -1.54508 -4.75528 3.9
    endloop
  endfacet
  facet normal 0 0 1
    outer loop
      vertex -0.522642 -4.97261 3.9
      vertex -4.97261 0.522642 3.9
      vertex -1.03956 -4.89074 3.9
    endloop
  endfacet
  facet normal 0 0 1
    outer loop
      vertex 0 -5 3.9
      vertex -4.97261 0.522642 3.9
      vertex -0.522642 -4.97261 3.9
    endloop
  endfacet
  facet normal 0 0 1
    outer loop
      vertex 0.522642 -4.97261 3.9
      vertex -4.97261 0.522642 3.9
      vertex 0 -5 3.9
    endloop
  endfacet
  facet normal 0 0 1
    outer loop
      vertex 1.03956 -4.89074 3.9
      vertex -4.97261 0.522642 3.9
      vertex 0.522642 -4.97261 3.9
    endloop
  endfacet
  facet normal 0 0 1
    outer loop
      vertex 1.54508 -4.75528 3.9
      vertex -4.97261 0.522642 3.9
      vertex 1.03956 -4.89074 3.9
    endloop
  endfacet
  facet normal 0 0 1
    outer loop
      vertex -1.52824 -2.10344 3.9
      vertex -4.97261 0.522642 3.9
      vertex 1.54508 -4.75528 3.9
    endloop
  endfacet
  facet normal 0 0 1
    outer loop
      vertex -0.803444 -2.47275 3.9
      vertex -1.18037 -2.31662 3.9
      vertex 2.03368 -4.56773 3.9
    endloop
  endfacet
  facet normal 0 0 1
    outer loop
      vertex 2.56799 0.40673 3.9
      vertex 2.6 0 3.9
      vertex 5 0 3.9
    endloop
  endfacet
  facet normal 0 0 1
    outer loop
      vertex 2.10344 1.52824 3.9
      vertex 2.31662 1.18037 3.9
      vertex 4.75528 1.54508 3.9
    endloop
  endfacet
  facet normal 0 0 1
    outer loop
      vertex 1.52824 2.10344 3.9
      vertex 1.83848 1.83848 3.9
      vertex 4.33013 2.5 3.9
    endloop
  endfacet
  facet normal 0 0 1
    outer loop
      vertex -2.10344 1.52824 3.9
      vertex -1.83848 1.83848 3.9
      vertex -4.97261 0.522642 3.9
    endloop
  endfacet
  facet normal 0 0 1
    outer loop
      vertex 0 2.6 3.9
      vertex 0.40673 2.56799 3.9
      vertex 3.34565 3.71572 3.9
    endloop
  endfacet
  facet normal 0 0 1
    outer loop
      vertex -1.18037 2.31662 3.9
      vertex -0.803444 2.47275 3.9
      vertex 2.5 4.33013 3.9
    endloop
  endfacet
  facet normal 0 0 1
    outer loop
      vertex 2.03368 4.56773 3.9
      vertex -4.97261 0.522642 3.9
      vertex 2.5 4.33013 3.9
    endloop
  endfacet
  facet normal 0 0 1
    outer loop
      vertex 1.54508 4.75528 3.9
      vertex -4.97261 0.522642 3.9
      vertex 2.03368 4.56773 3.9
    endloop
  endfacet
  facet normal 0 0 1
    outer loop
      vertex 1.03956 4.89074 3.9
      vertex -4.97261 0.522642 3.9
      vertex 1.54508 4.75528 3.9
    endloop
  endfacet
  facet normal 0 0 1
    outer loop
      vertex 0.522642 4.97261 3.9
      vertex -4.97261 0.522642 3.9
      vertex 1.03956 4.89074 3.9
    endloop
  endfacet
  facet normal 0 0 1
    outer loop
      vertex 0 5 3.9
      vertex -4.97261 0.522642 3.9
      vertex 0.522642 4.97261 3.9
    endloop
  endfacet
  facet normal 0 0 1
    outer loop
      vertex -0.522642 4.97261 3.9
      vertex -4.97261 0.522642 3.9
      vertex 0 5 3.9
    endloop
  endfacet
  facet normal 0 0 1
    outer loop
      vertex -1.03956 4.89074 3.9
      vertex -4.97261 0.522642 3.9
      vertex -0.522642 4.97261 3.9
    endloop
  endfacet
  facet normal 0 0 1
    outer loop
      vertex -1.54508 4.75528 3.9
      vertex -4.97261 0.522642 3.9
      vertex -1.03956 4.89074 3.9
    endloop
  endfacet
  facet normal 0 0 1
    outer loop
      vertex -2.03368 4.56773 3.9
      vertex -4.97261 0.522642 3.9
      vertex -1.54508 4.75528 3.9
    endloop
  endfacet
  facet normal 0 0 1
    outer loop
      vertex -2.5 4.33013 3.9
      vertex -4.97261 0.522642 3.9
      vertex -2.03368 4.56773 3.9
    endloop
  endfacet
  facet normal 0 0 1
    outer loop
      vertex -2.93893 4.04508 3.9
      vertex -4.97261 0.522642 3.9
      vertex -2.5 4.33013 3.9
    endloop
  endfacet
  facet normal 0 0 1
    outer loop
      vertex -3.34565 3.71572 3.9
      vertex -4.97261 0.522642 3.9
      vertex -2.93893 4.04508 3.9
    endloop
  endfacet
  facet normal 0 0 1
    outer loop
      vertex -3.71572 3.34565 3.9
      vertex -4.97261 0.522642 3.9
      vertex -3.34565 3.71572 3.9
    endloop
  endfacet
  facet normal 0 0 1
    outer loop
      vertex -4.04508 2.93893 3.9
      vertex -4.97261 0.522642 3.9
      vertex -3.71572 3.34565 3.9
    endloop
  endfacet
  facet normal 0 0 1
    outer loop
      vertex -4.33013 2.5 3.9
      vertex -4.97261 0.522642 3.9
      vertex -4.04508 2.93893 3.9
    endloop
  endfacet
  facet normal 0 0 1
    outer loop
      vertex -4.56773 2.03368 3.9
      vertex -4.97261 0.522642 3.9
      vertex -4.33013 2.5 3.9
    endloop
  endfacet
  facet normal 0 0 1
    outer loop
      vertex -4.75528 1.54508 3.9
      vertex -4.97261 0.522642 3.9
      vertex -4.56773 2.03368 3.9
    endloop
  endfacet
  facet normal 0 0 1
    outer loop
      vertex -4.89074 1.03956 3.9
      vertex -4.97261 0.522642 3.9
      vertex -4.75528 1.54508 3.9
    endloop
  endfacet
  facet normal 0 0 1
    outer loop
      vertex 1.18037 -2.31662 3.9
      vertex 0.803444 -2.47275 3.9
      vertex 3.34565 -3.71572 3.9
    endloop
  endfacet
  facet normal 0 0 1
    outer loop
      vertex 1.83848 -1.83848 3.9
      vertex 1.52824 -2.10344 3.9
      vertex 4.04508 -2.93893 3.9
    endloop
  endfacet
  facet normal 0 0 1
    outer loop
      vertex 2.10344 -1.52824 3.9
      vertex 1.83848 -1.83848 3.9
      vertex 4.33013 -2.5 3.9
    endloop
  endfacet
  facet normal 0 0 1
    outer loop
      vertex 2.6 0 3.9
      vertex 2.56799 -0.40673 3.9
      vertex 4.97261 -0.522642 3.9
    endloop
  endfacet
  facet normal 0 0 1
    outer loop
      vertex 2.31662 1.18037 3.9
      vertex 2.47275 0.803444 3.9
      vertex 4.89074 1.03956 3.9
    endloop
  endfacet
  facet normal 0 0 1
    outer loop
      vertex -2.31662 1.18037 3.9
      vertex -2.10344 1.52824 3.9
      vertex -4.97261 0.522642 3.9
    endloop
  endfacet
  facet normal 0 0 1
    outer loop
      vertex -1.83848 1.83848 3.9
      vertex -1.52824 2.10344 3.9
      vertex -4.97261 0.522642 3.9
    endloop
  endfacet
  facet normal 0 0 1
    outer loop
      vertex 0.40673 2.56799 3.9
      vertex 0.803444 2.47275 3.9
      vertex 3.34565 3.71572 3.9
    endloop
  endfacet
  facet normal 0 0 1
    outer loop
      vertex 1.18037 2.31662 3.9
      vertex 1.52824 2.10344 3.9
      vertex 4.04508 2.93893 3.9
    endloop
  endfacet
  facet normal 0 0 1
    outer loop
      vertex -0.40673 2.56799 3.9
      vertex 0 2.6 3.9
      vertex 2.93893 4.04508 3.9
    endloop
  endfacet
  facet normal 0 0 1
    outer loop
      vertex -1.18037 2.31662 3.9
      vertex -4.97261 0.522642 3.9
      vertex -1.52824 2.10344 3.9
    endloop
  endfacet
  facet normal 0 0 1
    outer loop
      vertex -0.803444 2.47275 3.9
      vertex -0.40673 2.56799 3.9
      vertex 2.93893 4.04508 3.9
    endloop
  endfacet
  facet normal 0 0 1
    outer loop
      vertex 2.5 4.33013 3.9
      vertex -4.97261 0.522642 3.9
      vertex -1.18037 2.31662 3.9
    endloop
  endfacet
  facet normal 0 0 1
    outer loop
      vertex 2.5 4.33013 3.9
      vertex -0.803444 2.47275 3.9
      vertex 2.93893 4.04508 3.9
    endloop
  endfacet
  facet normal 0 0 1
    outer loop
      vertex 2.93893 4.04508 3.9
      vertex 0 2.6 3.9
      vertex 3.34565 3.71572 3.9
    endloop
  endfacet
  facet normal 0 0 1
    outer loop
      vertex 0.803444 2.47275 3.9
      vertex 1.18037 2.31662 3.9
      vertex 3.71572 3.34565 3.9
    endloop
  endfacet
  facet normal 0 0 1
    outer loop
      vertex 3.34565 3.71572 3.9
      vertex 0.803444 2.47275 3.9
      vertex 3.71572 3.34565 3.9
    endloop
  endfacet
  facet normal 0 0 1
    outer loop
      vertex 3.71572 3.34565 3.9
      vertex 1.18037 2.31662 3.9
      vertex 4.04508 2.93893 3.9
    endloop
  endfacet
  facet normal 0 0 1
    outer loop
      vertex 4.04508 2.93893 3.9
      vertex 1.52824 2.10344 3.9
      vertex 4.33013 2.5 3.9
    endloop
  endfacet
  facet normal 0 0 1
    outer loop
      vertex 4.33013 2.5 3.9
      vertex 1.83848 1.83848 3.9
      vertex 4.56773 2.03368 3.9
    endloop
  endfacet
  facet normal 0 0 1
    outer loop
      vertex 1.83848 1.83848 3.9
      vertex 2.10344 1.52824 3.9
      vertex 4.56773 2.03368 3.9
    endloop
  endfacet
  facet normal 0 0 1
    outer loop
      vertex 4.56773 2.03368 3.9
      vertex 2.10344 1.52824 3.9
      vertex 4.75528 1.54508 3.9
    endloop
  endfacet
  facet normal 0 0 1
    outer loop
      vertex 4.75528 1.54508 3.9
      vertex 2.31662 1.18037 3.9
      vertex 4.89074 1.03956 3.9
    endloop
  endfacet
  facet normal 0 0 1
    outer loop
      vertex 2.47275 0.803444 3.9
      vertex 2.56799 0.40673 3.9
      vertex 4.97261 0.522642 3.9
    endloop
  endfacet
  facet normal 0 0 1
    outer loop
      vertex 4.89074 1.03956 3.9
      vertex 2.47275 0.803444 3.9
      vertex 4.97261 0.522642 3.9
    endloop
  endfacet
  facet normal 0 0 1
    outer loop
      vertex -2.47275 0.803444 3.9
      vertex -2.31662 1.18037 3.9
      vertex -4.97261 0.522642 3.9
    endloop
  endfacet
  facet normal 0 0 1
    outer loop
      vertex 4.97261 0.522642 3.9
      vertex 2.56799 0.40673 3.9
      vertex 5 0 3.9
    endloop
  endfacet
  facet normal 0 0 1
    outer loop
      vertex 5 0 3.9
      vertex 2.6 0 3.9
      vertex 4.97261 -0.522642 3.9
    endloop
  endfacet
  facet normal 0 0 1
    outer loop
      vertex 4.97261 -0.522642 3.9
      vertex 2.56799 -0.40673 3.9
      vertex 4.89074 -1.03956 3.9
    endloop
  endfacet
  facet normal 0 0 1
    outer loop
      vertex 2.47275 -0.803444 3.9
      vertex 2.31662 -1.18037 3.9
      vertex 4.75528 -1.54508 3.9
    endloop
  endfacet
  facet normal 0 0 1
    outer loop
      vertex 4.89074 -1.03956 3.9
      vertex 2.47275 -0.803444 3.9
      vertex 4.75528 -1.54508 3.9
    endloop
  endfacet
  facet normal 0 0 1
    outer loop
      vertex -2.56799 0.40673 3.9
      vertex -2.47275 0.803444 3.9
      vertex -4.97261 0.522642 3.9
    endloop
  endfacet
  facet normal 0 0 1
    outer loop
      vertex 4.75528 -1.54508 3.9
      vertex 2.31662 -1.18037 3.9
      vertex 4.56773 -2.03368 3.9
    endloop
  endfacet
  facet normal 0 0 1
    outer loop
      vertex 4.56773 -2.03368 3.9
      vertex 2.10344 -1.52824 3.9
      vertex 4.33013 -2.5 3.9
    endloop
  endfacet
  facet normal 0 0 1
    outer loop
      vertex 2.56799 -0.40673 3.9
      vertex 2.47275 -0.803444 3.9
      vertex 4.89074 -1.03956 3.9
    endloop
  endfacet
  facet normal 0 0 1
    outer loop
      vertex 4.33013 -2.5 3.9
      vertex 1.83848 -1.83848 3.9
      vertex 4.04508 -2.93893 3.9
    endloop
  endfacet
  facet normal 0 0 1
    outer loop
      vertex 4.04508 -2.93893 3.9
      vertex 1.52824 -2.10344 3.9
      vertex 3.71572 -3.34565 3.9
    endloop
  endfacet
  facet normal 0 0 1
    outer loop
      vertex 3.71572 -3.34565 3.9
      vertex 1.18037 -2.31662 3.9
      vertex 3.34565 -3.71572 3.9
    endloop
  endfacet
  facet normal 0 0 1
    outer loop
      vertex 3.34565 -3.71572 3.9
      vertex 0.803444 -2.47275 3.9
      vertex 2.93893 -4.04508 3.9
    endloop
  endfacet
  facet normal 0 0 1
    outer loop
      vertex 0 -2.6 3.9
      vertex -0.40673 -2.56799 3.9
      vertex 2.5 -4.33013 3.9
    endloop
  endfacet
  facet normal 0 0 1
    outer loop
      vertex 0.803444 -2.47275 3.9
      vertex 0.40673 -2.56799 3.9
      vertex 2.93893 -4.04508 3.9
    endloop
  endfacet
  facet normal 0 0 1
    outer loop
      vertex 2.93893 -4.04508 3.9
      vertex 0 -2.6 3.9
      vertex 2.5 -4.33013 3.9
    endloop
  endfacet
  facet normal 0 0 1
    outer loop
      vertex 2.5 -4.33013 3.9
      vertex -0.40673 -2.56799 3.9
      vertex 2.03368 -4.56773 3.9
    endloop
  endfacet
  facet normal 0 0 1
    outer loop
      vertex -2.10344 -1.52824 3.9
      vertex -2.31662 -1.18037 3.9
      vertex -4.97261 0.522642 3.9
    endloop
  endfacet
  facet normal 0 0 1
    outer loop
      vertex -0.40673 -2.56799 3.9
      vertex -0.803444 -2.47275 3.9
      vertex 2.03368 -4.56773 3.9
    endloop
  endfacet
  facet normal 0 0 1
    outer loop
      vertex 2.03368 -4.56773 3.9
      vertex -1.18037 -2.31662 3.9
      vertex 1.54508 -4.75528 3.9
    endloop
  endfacet
  facet normal 0 0 1
    outer loop
      vertex -1.18037 -2.31662 3.9
      vertex -1.52824 -2.10344 3.9
      vertex 1.54508 -4.75528 3.9
    endloop
  endfacet
  facet normal 0 0 1
    outer loop
      vertex -1.83848 -1.83848 3.9
      vertex -4.97261 0.522642 3.9
      vertex -1.52824 -2.10344 3.9
    endloop
  endfacet
  facet normal 0 0 1
    outer loop
      vertex -2.31662 -1.18037 3.9
      vertex -2.47275 -0.803444 3.9
      vertex -4.97261 0.522642 3.9
    endloop
  endfacet
  facet normal 0 0 1
    outer loop
      vertex -1.83848 -1.83848 3.9
      vertex -2.10344 -1.52824 3.9
      vertex -4.97261 0.522642 3.9
    endloop
  endfacet
  facet normal 0 0 1
    outer loop
      vertex 1.52824 -2.10344 3.9
      vertex 1.18037 -2.31662 3.9
      vertex 3.71572 -3.34565 3.9
    endloop
  endfacet
  facet normal 0 0 1
    outer loop
      vertex 0.40673 -2.56799 3.9
      vertex 0 -2.6 3.9
      vertex 2.93893 -4.04508 3.9
    endloop
  endfacet
  facet normal 0 0 1
    outer loop
      vertex -2.47275 -0.803444 3.9
      vertex -2.56799 -0.40673 3.9
      vertex -4.97261 0.522642 3.9
    endloop
  endfacet
  facet normal 0 0 1
    outer loop
      vertex -2.56799 -0.40673 3.9
      vertex -2.6 0 3.9
      vertex -4.97261 0.522642 3.9
    endloop
  endfacet
  facet normal 0 0 1
    outer loop
      vertex 2.31662 -1.18037 3.9
      vertex 2.10344 -1.52824 3.9
      vertex 4.56773 -2.03368 3.9
    endloop
  endfacet
  facet normal 0 0 1
    outer loop
      vertex -2.6 0 3.9
      vertex -2.56799 0.40673 3.9
      vertex -4.97261 0.522642 3.9
    endloop
  endfacet
endsolid OpenSCAD_Model
