solid OpenSCAD_Model
  facet normal -1 0 0
    outer loop
      vertex 0 0 5
      vertex 0 0 13
      vertex 0 0.5 5
    endloop
  endfacet
  facet normal -1 0 0
    outer loop
      vertex 0 0.5 5
      vertex 0 0 13
      vertex 0 0.5 13
    endloop
  endfacet
  facet normal -1 0 0
    outer loop
      vertex 0 0.5 13
      vertex 0 0.5 18
      vertex 0 5.5 18
    endloop
  endfacet
  facet normal -1 0 0
    outer loop
      vertex 0 0.5 13
      vertex 0 5.5 18
      vertex 0 0.5 5
    endloop
  endfacet
  facet normal -1 0 0
    outer loop
      vertex 0 0.5 5
      vertex 0 5.5 18
      vertex 0 5.5 0
    endloop
  endfacet
  facet normal -1 0 0
    outer loop
      vertex 0 0.5 5
      vertex 0 5.5 0
      vertex 0 0.5 0
    endloop
  endfacet
  facet normal 0 -1 0
    outer loop
      vertex 6.60478 0 5.95957
      vertex 0 0 5
      vertex 42 0 5
    endloop
  endfacet
  facet normal 0 -1 0
    outer loop
      vertex 6 0 12.1
      vertex 6.60478 0 12.0404
      vertex 42 0 13
    endloop
  endfacet
  facet normal 0 -1 0
    outer loop
      vertex 6 0 5.9
      vertex 5.39522 0 5.95957
      vertex 0 0 5
    endloop
  endfacet
  facet normal 0 -1 0
    outer loop
      vertex 0 0 13
      vertex 0 0 5
      vertex 2.95957 0 8.39522
    endloop
  endfacet
  facet normal 0 -1 0
    outer loop
      vertex 5.39522 0 5.95957
      vertex 4.81368 0 6.13597
      vertex 0 0 5
    endloop
  endfacet
  facet normal 0 -1 0
    outer loop
      vertex 0 0 13
      vertex 2.95957 0 8.39522
      vertex 2.9 0 9
    endloop
  endfacet
  facet normal 0 -1 0
    outer loop
      vertex 0 0 13
      vertex 2.9 0 9
      vertex 2.95957 0 9.60478
    endloop
  endfacet
  facet normal 0 -1 0
    outer loop
      vertex 9.1 0 9
      vertex 9.04043 0 8.39522
      vertex 42 0 5
    endloop
  endfacet
  facet normal 0 -1 0
    outer loop
      vertex 0 0 13
      vertex 2.95957 0 9.60478
      vertex 3.13597 0 10.1863
    endloop
  endfacet
  facet normal 0 -1 0
    outer loop
      vertex 9.04043 0 8.39522
      vertex 8.86403 0 7.81368
      vertex 42 0 5
    endloop
  endfacet
  facet normal 0 -1 0
    outer loop
      vertex 0 0 13
      vertex 3.13597 0 10.1863
      vertex 3.42244 0 10.7223
    endloop
  endfacet
  facet normal 0 -1 0
    outer loop
      vertex 34.8137 0 6.13597
      vertex 8.19203 0 11.192
      vertex 8.57756 0 10.7223
    endloop
  endfacet
  facet normal 0 -1 0
    outer loop
      vertex 0 0 13
      vertex 3.42244 0 10.7223
      vertex 3.80797 0 11.192
    endloop
  endfacet
  facet normal 0 -1 0
    outer loop
      vertex 34.8137 0 6.13597
      vertex 34.2777 0 6.42244
      vertex 8.19203 0 11.192
    endloop
  endfacet
  facet normal 0 -1 0
    outer loop
      vertex 0 0 13
      vertex 3.80797 0 11.192
      vertex 4.27773 0 11.5776
    endloop
  endfacet
  facet normal 0 -1 0
    outer loop
      vertex 7.72227 0 11.5776
      vertex 8.19203 0 11.192
      vertex 34.2777 0 6.42244
    endloop
  endfacet
  facet normal 0 -1 0
    outer loop
      vertex 0 0 13
      vertex 4.27773 0 11.5776
      vertex 4.81368 0 11.864
    endloop
  endfacet
  facet normal 0 -1 0
    outer loop
      vertex 6 0 12.1
      vertex 0 0 13
      vertex 5.39522 0 12.0404
    endloop
  endfacet
  facet normal 0 -1 0
    outer loop
      vertex 36.6048 0 5.95957
      vertex 36 0 5.9
      vertex 42 0 5
    endloop
  endfacet
  facet normal 0 -1 0
    outer loop
      vertex 42 0 13
      vertex 0 0 13
      vertex 6 0 12.1
    endloop
  endfacet
  facet normal 0 -1 0
    outer loop
      vertex 34.2777 0 6.42244
      vertex 6.60478 0 12.0404
      vertex 7.18632 0 11.864
    endloop
  endfacet
  facet normal 0 -1 0
    outer loop
      vertex 35.3952 0 5.95957
      vertex 34.8137 0 6.13597
      vertex 8.86403 0 10.1863
    endloop
  endfacet
  facet normal 0 -1 0
    outer loop
      vertex 35.3952 0 5.95957
      vertex 9.04043 0 9.60478
      vertex 42 0 5
    endloop
  endfacet
  facet normal 0 -1 0
    outer loop
      vertex 8.86403 0 7.81368
      vertex 8.57756 0 7.27773
      vertex 42 0 5
    endloop
  endfacet
  facet normal 0 -1 0
    outer loop
      vertex 36 0 12.1
      vertex 36.6048 0 12.0404
      vertex 42 0 13
    endloop
  endfacet
  facet normal 0 -1 0
    outer loop
      vertex 8.57756 0 7.27773
      vertex 8.19203 0 6.80797
      vertex 42 0 5
    endloop
  endfacet
  facet normal 0 -1 0
    outer loop
      vertex 8.19203 0 6.80797
      vertex 7.72227 0 6.42244
      vertex 42 0 5
    endloop
  endfacet
  facet normal 0 -1 0
    outer loop
      vertex 7.72227 0 6.42244
      vertex 7.18632 0 6.13597
      vertex 42 0 5
    endloop
  endfacet
  facet normal 0 -1 0
    outer loop
      vertex 7.18632 0 6.13597
      vertex 6.60478 0 5.95957
      vertex 42 0 5
    endloop
  endfacet
  facet normal 0 -1 0
    outer loop
      vertex 6 0 5.9
      vertex 0 0 5
      vertex 6.60478 0 5.95957
    endloop
  endfacet
  facet normal 0 -1 0
    outer loop
      vertex 4.81368 0 6.13597
      vertex 4.27773 0 6.42244
      vertex 0 0 5
    endloop
  endfacet
  facet normal 0 -1 0
    outer loop
      vertex 36.6048 0 12.0404
      vertex 37.1863 0 11.864
      vertex 42 0 13
    endloop
  endfacet
  facet normal 0 -1 0
    outer loop
      vertex 3.80797 0 6.80797
      vertex 0 0 5
      vertex 4.27773 0 6.42244
    endloop
  endfacet
  facet normal 0 -1 0
    outer loop
      vertex 3.42244 0 7.27773
      vertex 0 0 5
      vertex 3.80797 0 6.80797
    endloop
  endfacet
  facet normal 0 -1 0
    outer loop
      vertex 3.13597 0 7.81368
      vertex 0 0 5
      vertex 3.42244 0 7.27773
    endloop
  endfacet
  facet normal 0 -1 0
    outer loop
      vertex 2.95957 0 8.39522
      vertex 0 0 5
      vertex 3.13597 0 7.81368
    endloop
  endfacet
  facet normal 0 -1 0
    outer loop
      vertex 34.2777 0 6.42244
      vertex 7.18632 0 11.864
      vertex 7.72227 0 11.5776
    endloop
  endfacet
  facet normal 0 -1 0
    outer loop
      vertex 32.9 0 9
      vertex 6.60478 0 12.0404
      vertex 32.9596 0 8.39522
    endloop
  endfacet
  facet normal 0 -1 0
    outer loop
      vertex 32.9596 0 9.60478
      vertex 6.60478 0 12.0404
      vertex 32.9 0 9
    endloop
  endfacet
  facet normal 0 -1 0
    outer loop
      vertex 38.192 0 11.192
      vertex 38.5776 0 10.7223
      vertex 42 0 13
    endloop
  endfacet
  facet normal 0 -1 0
    outer loop
      vertex 33.136 0 10.1863
      vertex 6.60478 0 12.0404
      vertex 32.9596 0 9.60478
    endloop
  endfacet
  facet normal 0 -1 0
    outer loop
      vertex 33.4224 0 10.7223
      vertex 6.60478 0 12.0404
      vertex 33.136 0 10.1863
    endloop
  endfacet
  facet normal 0 -1 0
    outer loop
      vertex 33.808 0 11.192
      vertex 6.60478 0 12.0404
      vertex 33.4224 0 10.7223
    endloop
  endfacet
  facet normal 0 -1 0
    outer loop
      vertex 34.2777 0 11.5776
      vertex 6.60478 0 12.0404
      vertex 33.808 0 11.192
    endloop
  endfacet
  facet normal 0 -1 0
    outer loop
      vertex 34.8137 0 11.864
      vertex 6.60478 0 12.0404
      vertex 34.2777 0 11.5776
    endloop
  endfacet
  facet normal 0 -1 0
    outer loop
      vertex 35.3952 0 12.0404
      vertex 6.60478 0 12.0404
      vertex 34.8137 0 11.864
    endloop
  endfacet
  facet normal 0 -1 0
    outer loop
      vertex 42 0 13
      vertex 6.60478 0 12.0404
      vertex 35.3952 0 12.0404
    endloop
  endfacet
  facet normal 0 -1 0
    outer loop
      vertex 42 0 13
      vertex 35.3952 0 12.0404
      vertex 36 0 12.1
    endloop
  endfacet
  facet normal 0 -1 0
    outer loop
      vertex 37.1863 0 11.864
      vertex 37.7223 0 11.5776
      vertex 42 0 13
    endloop
  endfacet
  facet normal 0 -1 0
    outer loop
      vertex 37.7223 0 11.5776
      vertex 38.192 0 11.192
      vertex 42 0 13
    endloop
  endfacet
  facet normal 0 -1 0
    outer loop
      vertex 38.192 0 6.80797
      vertex 37.7223 0 6.42244
      vertex 42 0 5
    endloop
  endfacet
  facet normal 0 -1 0
    outer loop
      vertex 42 0 13
      vertex 38.5776 0 10.7223
      vertex 42 0 5
    endloop
  endfacet
  facet normal 0 -1 0
    outer loop
      vertex 38.5776 0 10.7223
      vertex 38.864 0 10.1863
      vertex 42 0 5
    endloop
  endfacet
  facet normal 0 -1 0
    outer loop
      vertex 38.864 0 10.1863
      vertex 39.0404 0 9.60478
      vertex 42 0 5
    endloop
  endfacet
  facet normal 0 -1 0
    outer loop
      vertex 39.0404 0 9.60478
      vertex 39.1 0 9
      vertex 42 0 5
    endloop
  endfacet
  facet normal 0 -1 0
    outer loop
      vertex 39.1 0 9
      vertex 39.0404 0 8.39522
      vertex 42 0 5
    endloop
  endfacet
  facet normal 0 -1 0
    outer loop
      vertex 39.0404 0 8.39522
      vertex 38.864 0 7.81368
      vertex 42 0 5
    endloop
  endfacet
  facet normal 0 -1 0
    outer loop
      vertex 38.864 0 7.81368
      vertex 38.5776 0 7.27773
      vertex 42 0 5
    endloop
  endfacet
  facet normal 0 -1 0
    outer loop
      vertex 38.5776 0 7.27773
      vertex 38.192 0 6.80797
      vertex 42 0 5
    endloop
  endfacet
  facet normal 0 -1 0
    outer loop
      vertex 37.7223 0 6.42244
      vertex 37.1863 0 6.13597
      vertex 42 0 5
    endloop
  endfacet
  facet normal 0 -1 0
    outer loop
      vertex 8.57756 0 10.7223
      vertex 8.86403 0 10.1863
      vertex 34.8137 0 6.13597
    endloop
  endfacet
  facet normal 0 -1 0
    outer loop
      vertex 9.04043 0 9.60478
      vertex 9.1 0 9
      vertex 42 0 5
    endloop
  endfacet
  facet normal 0 -1 0
    outer loop
      vertex 36 0 5.9
      vertex 35.3952 0 5.95957
      vertex 42 0 5
    endloop
  endfacet
  facet normal 0 -1 0
    outer loop
      vertex 34.2777 0 6.42244
      vertex 33.808 0 6.80797
      vertex 6.60478 0 12.0404
    endloop
  endfacet
  facet normal 0 -1 0
    outer loop
      vertex 33.136 0 7.81368
      vertex 6.60478 0 12.0404
      vertex 33.4224 0 7.27773
    endloop
  endfacet
  facet normal 0 -1 0
    outer loop
      vertex 32.9596 0 8.39522
      vertex 6.60478 0 12.0404
      vertex 33.136 0 7.81368
    endloop
  endfacet
  facet normal 0 -1 0
    outer loop
      vertex 4.81368 0 11.864
      vertex 5.39522 0 12.0404
      vertex 0 0 13
    endloop
  endfacet
  facet normal 0 -1 0
    outer loop
      vertex 8.86403 0 10.1863
      vertex 9.04043 0 9.60478
      vertex 35.3952 0 5.95957
    endloop
  endfacet
  facet normal 0 -1 0
    outer loop
      vertex 33.808 0 6.80797
      vertex 33.4224 0 7.27773
      vertex 6.60478 0 12.0404
    endloop
  endfacet
  facet normal 0 -1 0
    outer loop
      vertex 37.1863 0 6.13597
      vertex 36.6048 0 5.95957
      vertex 42 0 5
    endloop
  endfacet
  facet normal 0 0 -1
    outer loop
      vertex 42 0.5 5
      vertex 42 0 5
      vertex 0 0.5 5
    endloop
  endfacet
  facet normal 0 0 -1
    outer loop
      vertex 0 0.5 5
      vertex 42 0 5
      vertex 0 0 5
    endloop
  endfacet
  facet normal -1.22465e-16 -1 0
    outer loop
      vertex 42 0.5 0
      vertex 42 0.5 5
      vertex 0 0.5 5
    endloop
  endfacet
  facet normal -1.22465e-16 -1 0
    outer loop
      vertex 0 0.5 0
      vertex 42 0.5 0
      vertex 0 0.5 5
    endloop
  endfacet
  facet normal 0 0 -1
    outer loop
      vertex 0 0.5 0
      vertex 0 5.5 0
      vertex 42 0.5 0
    endloop
  endfacet
  facet normal 0 0 -1
    outer loop
      vertex 42 0.5 0
      vertex 0 5.5 0
      vertex 1.5 7 0
    endloop
  endfacet
  facet normal 0 0 -1
    outer loop
      vertex 42 0.5 0
      vertex 1.5 7 0
      vertex 13 7 0
    endloop
  endfacet
  facet normal 0 0 -1
    outer loop
      vertex 18.7222 12.491 0
      vertex 13 7 0
      vertex 13 15.5 0
    endloop
  endfacet
  facet normal 0 0 -1
    outer loop
      vertex 16.9 15.9 0
      vertex 13 15.5 0
      vertex 15 17.5 0
    endloop
  endfacet
  facet normal 0 0 -1
    outer loop
      vertex 17.2121 17.469 0
      vertex 15 17.5 0
      vertex 17.2287 17.5 0
    endloop
  endfacet
  facet normal 0 0 -1
    outer loop
      vertex 16.9788 16.6999 0
      vertex 15 17.5 0
      vertex 17.2121 17.469 0
    endloop
  endfacet
  facet normal 0 0 -1
    outer loop
      vertex 29 7 0
      vertex 20.2001 11.8788 0
      vertex 21 11.8 0
    endloop
  endfacet
  facet normal 0 0 -1
    outer loop
      vertex 29 7 0
      vertex 21 11.8 0
      vertex 21.7999 11.8788 0
    endloop
  endfacet
  facet normal 0 0 -1
    outer loop
      vertex 16.9788 15.1001 0
      vertex 13 15.5 0
      vertex 16.9 15.9 0
    endloop
  endfacet
  facet normal 0 0 -1
    outer loop
      vertex 18.7222 12.491 0
      vertex 13 15.5 0
      vertex 18.1009 13.0009 0
    endloop
  endfacet
  facet normal 0 0 -1
    outer loop
      vertex 17.2121 14.331 0
      vertex 13 15.5 0
      vertex 16.9788 15.1001 0
    endloop
  endfacet
  facet normal 0 0 -1
    outer loop
      vertex 17.591 13.6222 0
      vertex 13 15.5 0
      vertex 17.2121 14.331 0
    endloop
  endfacet
  facet normal 0 0 -1
    outer loop
      vertex 18.1009 13.0009 0
      vertex 13 15.5 0
      vertex 17.591 13.6222 0
    endloop
  endfacet
  facet normal 0 0 -1
    outer loop
      vertex 19.431 12.1121 0
      vertex 13 7 0
      vertex 18.7222 12.491 0
    endloop
  endfacet
  facet normal 0 0 -1
    outer loop
      vertex 29 7 0
      vertex 13 7 0
      vertex 19.431 12.1121 0
    endloop
  endfacet
  facet normal 0 0 -1
    outer loop
      vertex 29 7 0
      vertex 21.7999 11.8788 0
      vertex 22.569 12.1121 0
    endloop
  endfacet
  facet normal 0 0 -1
    outer loop
      vertex 29 7 0
      vertex 19.431 12.1121 0
      vertex 20.2001 11.8788 0
    endloop
  endfacet
  facet normal 0 0 -1
    outer loop
      vertex 42 0.5 0
      vertex 13 7 0
      vertex 29 7 0
    endloop
  endfacet
  facet normal 0 0 -1
    outer loop
      vertex 40.5 7 0
      vertex 42 0.5 0
      vertex 29 7 0
    endloop
  endfacet
  facet normal 0 0 -1
    outer loop
      vertex 42 0.5 0
      vertex 40.5 7 0
      vertex 42 5.5 0
    endloop
  endfacet
  facet normal 0 0 -1
    outer loop
      vertex 16.9 15.9 0
      vertex 15 17.5 0
      vertex 16.9788 16.6999 0
    endloop
  endfacet
  facet normal 0 0 -1
    outer loop
      vertex 29 7 0
      vertex 22.569 12.1121 0
      vertex 23.2778 12.491 0
    endloop
  endfacet
  facet normal 0 0 -1
    outer loop
      vertex 29 7 0
      vertex 23.2778 12.491 0
      vertex 23.8991 13.0009 0
    endloop
  endfacet
  facet normal 0 0 -1
    outer loop
      vertex 29 7 0
      vertex 23.8991 13.0009 0
      vertex 24.409 13.6222 0
    endloop
  endfacet
  facet normal 0 0 -1
    outer loop
      vertex 29 7 0
      vertex 24.409 13.6222 0
      vertex 24.7879 14.331 0
    endloop
  endfacet
  facet normal 0 0 -1
    outer loop
      vertex 29 7 0
      vertex 24.7879 14.331 0
      vertex 25.0212 15.1001 0
    endloop
  endfacet
  facet normal 0 0 -1
    outer loop
      vertex 29 7 0
      vertex 25.0212 15.1001 0
      vertex 25.1 15.9 0
    endloop
  endfacet
  facet normal 0 0 -1
    outer loop
      vertex 29 7 0
      vertex 25.1 15.9 0
      vertex 25.0212 16.6999 0
    endloop
  endfacet
  facet normal 0 0 -1
    outer loop
      vertex 29 7 0
      vertex 25.0212 16.6999 0
      vertex 24.7879 17.469 0
    endloop
  endfacet
  facet normal 0 0 -1
    outer loop
      vertex 24.7879 17.469 0
      vertex 24.7713 17.5 0
      vertex 27 17.5 0
    endloop
  endfacet
  facet normal 0 0 -1
    outer loop
      vertex 29 7 0
      vertex 24.7879 17.469 0
      vertex 27 17.5 0
    endloop
  endfacet
  facet normal 0 0 -1
    outer loop
      vertex 29 7 0
      vertex 27 17.5 0
      vertex 29 15.5 0
    endloop
  endfacet
  facet normal -0.707107 0.707107 0
    outer loop
      vertex 1.5 7 18
      vertex 1.5 7 0
      vertex 0 5.5 18
    endloop
  endfacet
  facet normal -0.707107 0.707107 0
    outer loop
      vertex 0 5.5 18
      vertex 1.5 7 0
      vertex 0 5.5 0
    endloop
  endfacet
  facet normal 0 0 1
    outer loop
      vertex 0 5.5 18
      vertex 0 0.5 18
      vertex 42 0.5 18
    endloop
  endfacet
  facet normal 0 0 1
    outer loop
      vertex 40.5 7 18
      vertex 0 5.5 18
      vertex 42 5.5 18
    endloop
  endfacet
  facet normal 0 0 1
    outer loop
      vertex 42 5.5 18
      vertex 0 5.5 18
      vertex 42 0.5 18
    endloop
  endfacet
  facet normal 0 0 1
    outer loop
      vertex 29 7 18
      vertex 0 5.5 18
      vertex 40.5 7 18
    endloop
  endfacet
  facet normal 0 0 1
    outer loop
      vertex 13 7 18
      vertex 0 5.5 18
      vertex 29 7 18
    endloop
  endfacet
  facet normal 0 0 1
    outer loop
      vertex 13 7 18
      vertex 1.5 7 18
      vertex 0 5.5 18
    endloop
  endfacet
  facet normal 0 0 1
    outer loop
      vertex 15 17.5 18
      vertex 13 15.5 18
      vertex 27 17.5 18
    endloop
  endfacet
  facet normal 0 0 1
    outer loop
      vertex 29 15.5 18
      vertex 13 7 18
      vertex 29 7 18
    endloop
  endfacet
  facet normal 0 0 1
    outer loop
      vertex 13 15.5 18
      vertex 29 15.5 18
      vertex 27 17.5 18
    endloop
  endfacet
  facet normal 0 0 1
    outer loop
      vertex 13 15.5 18
      vertex 13 7 18
      vertex 29 15.5 18
    endloop
  endfacet
  facet normal -1.22465e-16 -1 0
    outer loop
      vertex 42 0.5 13
      vertex 42 0.5 18
      vertex 0 0.5 18
    endloop
  endfacet
  facet normal -1.22465e-16 -1 0
    outer loop
      vertex 0 0.5 13
      vertex 42 0.5 13
      vertex 0 0.5 18
    endloop
  endfacet
  facet normal 0 0 1
    outer loop
      vertex 42 0 13
      vertex 42 0.5 13
      vertex 0 0.5 13
    endloop
  endfacet
  facet normal 0 0 1
    outer loop
      vertex 0 0 13
      vertex 42 0 13
      vertex 0 0.5 13
    endloop
  endfacet
  facet normal 1 0 0
    outer loop
      vertex 42 0 13
      vertex 42 0 5
      vertex 42 0.5 5
    endloop
  endfacet
  facet normal 1 0 0
    outer loop
      vertex 42 5.5 0
      vertex 42 0 13
      vertex 42 0.5 5
    endloop
  endfacet
  facet normal 1 0 0
    outer loop
      vertex 42 0.5 0
      vertex 42 5.5 0
      vertex 42 0.5 5
    endloop
  endfacet
  facet normal 1 0 0
    outer loop
      vertex 42 5.5 0
      vertex 42 0.5 13
      vertex 42 0 13
    endloop
  endfacet
  facet normal 1 0 0
    outer loop
      vertex 42 5.5 0
      vertex 42 5.5 18
      vertex 42 0.5 13
    endloop
  endfacet
  facet normal 1 0 0
    outer loop
      vertex 42 0.5 18
      vertex 42 0.5 13
      vertex 42 5.5 18
    endloop
  endfacet
  facet normal 0.995185 -2.17643e-17 0.0980177
    outer loop
      vertex 2.95957 0 8.39522
      vertex 2.95957 7 8.39522
      vertex 2.9 7 9
    endloop
  endfacet
  facet normal 0.995185 -2.17643e-17 0.0980177
    outer loop
      vertex 2.9 0 9
      vertex 2.95957 0 8.39522
      vertex 2.9 7 9
    endloop
  endfacet
  facet normal 0.956941 -6.44558e-17 0.290283
    outer loop
      vertex 3.13597 0 7.81368
      vertex 3.13597 7 7.81368
      vertex 2.95957 7 8.39522
    endloop
  endfacet
  facet normal 0.956941 -6.44558e-17 0.290283
    outer loop
      vertex 2.95957 0 8.39522
      vertex 3.13597 0 7.81368
      vertex 2.95957 7 8.39522
    endloop
  endfacet
  facet normal 0.881921 -1.04671e-16 0.471397
    outer loop
      vertex 3.42244 0 7.27773
      vertex 3.42244 7 7.27773
      vertex 3.13597 7 7.81368
    endloop
  endfacet
  facet normal 0.881921 -1.04671e-16 0.471397
    outer loop
      vertex 3.13597 0 7.81368
      vertex 3.42244 0 7.27773
      vertex 3.13597 7 7.81368
    endloop
  endfacet
  facet normal 0.77301 -1.40864e-16 0.634394
    outer loop
      vertex 3.80797 0 6.80797
      vertex 3.80797 7 6.80797
      vertex 3.42244 7 7.27773
    endloop
  endfacet
  facet normal 0.77301 -1.40864e-16 0.634394
    outer loop
      vertex 3.42244 0 7.27773
      vertex 3.80797 0 6.80797
      vertex 3.42244 7 7.27773
    endloop
  endfacet
  facet normal 0.634394 -1.71643e-16 0.77301
    outer loop
      vertex 4.27773 0 6.42244
      vertex 4.27773 7 6.42244
      vertex 3.80797 7 6.80797
    endloop
  endfacet
  facet normal 0.634394 -1.71643e-16 0.77301
    outer loop
      vertex 3.80797 0 6.80797
      vertex 4.27773 0 6.42244
      vertex 3.80797 7 6.80797
    endloop
  endfacet
  facet normal 0.471397 -1.95826e-16 0.881921
    outer loop
      vertex 4.81368 0 6.13597
      vertex 4.81368 7 6.13597
      vertex 4.27773 7 6.42244
    endloop
  endfacet
  facet normal 0.471397 -1.95826e-16 0.881921
    outer loop
      vertex 4.27773 0 6.42244
      vertex 4.81368 0 6.13597
      vertex 4.27773 7 6.42244
    endloop
  endfacet
  facet normal 0.290283 -2.12484e-16 0.956941
    outer loop
      vertex 5.39522 0 5.95957
      vertex 5.39522 7 5.95957
      vertex 4.81368 7 6.13597
    endloop
  endfacet
  facet normal 0.290283 -2.12484e-16 0.956941
    outer loop
      vertex 4.81368 0 6.13597
      vertex 5.39522 0 5.95957
      vertex 4.81368 7 6.13597
    endloop
  endfacet
  facet normal 0.0980177 -2.20975e-16 0.995185
    outer loop
      vertex 6 0 5.9
      vertex 6 7 5.9
      vertex 5.39522 7 5.95957
    endloop
  endfacet
  facet normal 0.0980177 -2.20975e-16 0.995185
    outer loop
      vertex 5.39522 0 5.95957
      vertex 6 0 5.9
      vertex 5.39522 7 5.95957
    endloop
  endfacet
  facet normal -0.0980177 -2.20975e-16 0.995185
    outer loop
      vertex 6.60478 0 5.95957
      vertex 6.60478 7 5.95957
      vertex 6 7 5.9
    endloop
  endfacet
  facet normal -0.0980177 -2.20975e-16 0.995185
    outer loop
      vertex 6 0 5.9
      vertex 6.60478 0 5.95957
      vertex 6 7 5.9
    endloop
  endfacet
  facet normal -0.290283 -2.12484e-16 0.956941
    outer loop
      vertex 7.18632 0 6.13597
      vertex 7.18632 7 6.13597
      vertex 6.60478 7 5.95957
    endloop
  endfacet
  facet normal -0.290283 -2.12484e-16 0.956941
    outer loop
      vertex 6.60478 0 5.95957
      vertex 7.18632 0 6.13597
      vertex 6.60478 7 5.95957
    endloop
  endfacet
  facet normal -0.471397 -1.95826e-16 0.881921
    outer loop
      vertex 7.72227 0 6.42244
      vertex 7.72227 7 6.42244
      vertex 7.18632 7 6.13597
    endloop
  endfacet
  facet normal -0.471397 -1.95826e-16 0.881921
    outer loop
      vertex 7.18632 0 6.13597
      vertex 7.72227 0 6.42244
      vertex 7.18632 7 6.13597
    endloop
  endfacet
  facet normal -0.634394 -1.71643e-16 0.77301
    outer loop
      vertex 8.19203 0 6.80797
      vertex 8.19203 7 6.80797
      vertex 7.72227 7 6.42244
    endloop
  endfacet
  facet normal -0.634394 -1.71643e-16 0.77301
    outer loop
      vertex 7.72227 0 6.42244
      vertex 8.19203 0 6.80797
      vertex 7.72227 7 6.42244
    endloop
  endfacet
  facet normal -0.77301 -1.40864e-16 0.634394
    outer loop
      vertex 8.57756 7 7.27773
      vertex 8.19203 7 6.80797
      vertex 8.57756 0 7.27773
    endloop
  endfacet
  facet normal -0.77301 -1.40864e-16 0.634394
    outer loop
      vertex 8.57756 0 7.27773
      vertex 8.19203 7 6.80797
      vertex 8.19203 0 6.80797
    endloop
  endfacet
  facet normal -0.881921 -1.04671e-16 0.471397
    outer loop
      vertex 8.86403 7 7.81368
      vertex 8.57756 7 7.27773
      vertex 8.86403 0 7.81368
    endloop
  endfacet
  facet normal -0.881921 -1.04671e-16 0.471397
    outer loop
      vertex 8.86403 0 7.81368
      vertex 8.57756 7 7.27773
      vertex 8.57756 0 7.27773
    endloop
  endfacet
  facet normal -0.956941 -6.44558e-17 0.290283
    outer loop
      vertex 9.04043 7 8.39522
      vertex 8.86403 7 7.81368
      vertex 9.04043 0 8.39522
    endloop
  endfacet
  facet normal -0.956941 -6.44558e-17 0.290283
    outer loop
      vertex 9.04043 0 8.39522
      vertex 8.86403 7 7.81368
      vertex 8.86403 0 7.81368
    endloop
  endfacet
  facet normal -0.995185 -2.17643e-17 0.0980177
    outer loop
      vertex 9.1 7 9
      vertex 9.04043 7 8.39522
      vertex 9.1 0 9
    endloop
  endfacet
  facet normal -0.995185 -2.17643e-17 0.0980177
    outer loop
      vertex 9.1 0 9
      vertex 9.04043 7 8.39522
      vertex 9.04043 0 8.39522
    endloop
  endfacet
  facet normal -0.995185 2.17643e-17 -0.0980177
    outer loop
      vertex 9.1 7 9
      vertex 9.1 0 9
      vertex 9.04043 7 9.60478
    endloop
  endfacet
  facet normal -0.995185 2.17643e-17 -0.0980177
    outer loop
      vertex 9.04043 7 9.60478
      vertex 9.1 0 9
      vertex 9.04043 0 9.60478
    endloop
  endfacet
  facet normal -0.956941 6.44558e-17 -0.290283
    outer loop
      vertex 9.04043 7 9.60478
      vertex 9.04043 0 9.60478
      vertex 8.86403 7 10.1863
    endloop
  endfacet
  facet normal -0.956941 6.44558e-17 -0.290283
    outer loop
      vertex 8.86403 7 10.1863
      vertex 9.04043 0 9.60478
      vertex 8.86403 0 10.1863
    endloop
  endfacet
  facet normal -0.881921 1.04671e-16 -0.471397
    outer loop
      vertex 8.86403 7 10.1863
      vertex 8.86403 0 10.1863
      vertex 8.57756 7 10.7223
    endloop
  endfacet
  facet normal -0.881921 1.04671e-16 -0.471397
    outer loop
      vertex 8.57756 7 10.7223
      vertex 8.86403 0 10.1863
      vertex 8.57756 0 10.7223
    endloop
  endfacet
  facet normal -0.77301 1.40864e-16 -0.634394
    outer loop
      vertex 8.57756 7 10.7223
      vertex 8.57756 0 10.7223
      vertex 8.19203 7 11.192
    endloop
  endfacet
  facet normal -0.77301 1.40864e-16 -0.634394
    outer loop
      vertex 8.19203 7 11.192
      vertex 8.57756 0 10.7223
      vertex 8.19203 0 11.192
    endloop
  endfacet
  facet normal -0.634394 1.71643e-16 -0.77301
    outer loop
      vertex 8.19203 7 11.192
      vertex 8.19203 0 11.192
      vertex 7.72227 7 11.5776
    endloop
  endfacet
  facet normal -0.634394 1.71643e-16 -0.77301
    outer loop
      vertex 7.72227 7 11.5776
      vertex 8.19203 0 11.192
      vertex 7.72227 0 11.5776
    endloop
  endfacet
  facet normal -0.471397 1.95826e-16 -0.881921
    outer loop
      vertex 7.72227 7 11.5776
      vertex 7.72227 0 11.5776
      vertex 7.18632 7 11.864
    endloop
  endfacet
  facet normal -0.471397 1.95826e-16 -0.881921
    outer loop
      vertex 7.18632 7 11.864
      vertex 7.72227 0 11.5776
      vertex 7.18632 0 11.864
    endloop
  endfacet
  facet normal -0.290283 2.12484e-16 -0.956941
    outer loop
      vertex 7.18632 7 11.864
      vertex 7.18632 0 11.864
      vertex 6.60478 7 12.0404
    endloop
  endfacet
  facet normal -0.290283 2.12484e-16 -0.956941
    outer loop
      vertex 6.60478 7 12.0404
      vertex 7.18632 0 11.864
      vertex 6.60478 0 12.0404
    endloop
  endfacet
  facet normal -0.0980177 2.20975e-16 -0.995185
    outer loop
      vertex 6.60478 7 12.0404
      vertex 6.60478 0 12.0404
      vertex 6 7 12.1
    endloop
  endfacet
  facet normal -0.0980177 2.20975e-16 -0.995185
    outer loop
      vertex 6 7 12.1
      vertex 6.60478 0 12.0404
      vertex 6 0 12.1
    endloop
  endfacet
  facet normal 0.0980177 2.20975e-16 -0.995185
    outer loop
      vertex 6 7 12.1
      vertex 6 0 12.1
      vertex 5.39522 7 12.0404
    endloop
  endfacet
  facet normal 0.0980177 2.20975e-16 -0.995185
    outer loop
      vertex 5.39522 7 12.0404
      vertex 6 0 12.1
      vertex 5.39522 0 12.0404
    endloop
  endfacet
  facet normal 0.290283 2.12484e-16 -0.956941
    outer loop
      vertex 5.39522 7 12.0404
      vertex 5.39522 0 12.0404
      vertex 4.81368 7 11.864
    endloop
  endfacet
  facet normal 0.290283 2.12484e-16 -0.956941
    outer loop
      vertex 4.81368 7 11.864
      vertex 5.39522 0 12.0404
      vertex 4.81368 0 11.864
    endloop
  endfacet
  facet normal 0.471397 1.95826e-16 -0.881921
    outer loop
      vertex 4.81368 7 11.864
      vertex 4.81368 0 11.864
      vertex 4.27773 7 11.5776
    endloop
  endfacet
  facet normal 0.471397 1.95826e-16 -0.881921
    outer loop
      vertex 4.27773 7 11.5776
      vertex 4.81368 0 11.864
      vertex 4.27773 0 11.5776
    endloop
  endfacet
  facet normal 0.634394 1.71643e-16 -0.77301
    outer loop
      vertex 4.27773 7 11.5776
      vertex 4.27773 0 11.5776
      vertex 3.80797 7 11.192
    endloop
  endfacet
  facet normal 0.634394 1.71643e-16 -0.77301
    outer loop
      vertex 3.80797 7 11.192
      vertex 4.27773 0 11.5776
      vertex 3.80797 0 11.192
    endloop
  endfacet
  facet normal 0.77301 1.40864e-16 -0.634394
    outer loop
      vertex 3.42244 7 10.7223
      vertex 3.80797 7 11.192
      vertex 3.80797 0 11.192
    endloop
  endfacet
  facet normal 0.77301 1.40864e-16 -0.634394
    outer loop
      vertex 3.42244 0 10.7223
      vertex 3.42244 7 10.7223
      vertex 3.80797 0 11.192
    endloop
  endfacet
  facet normal 0.881921 1.04671e-16 -0.471397
    outer loop
      vertex 3.13597 7 10.1863
      vertex 3.42244 7 10.7223
      vertex 3.42244 0 10.7223
    endloop
  endfacet
  facet normal 0.881921 1.04671e-16 -0.471397
    outer loop
      vertex 3.13597 0 10.1863
      vertex 3.13597 7 10.1863
      vertex 3.42244 0 10.7223
    endloop
  endfacet
  facet normal 0.956941 6.44558e-17 -0.290283
    outer loop
      vertex 2.95957 7 9.60478
      vertex 3.13597 7 10.1863
      vertex 3.13597 0 10.1863
    endloop
  endfacet
  facet normal 0.956941 6.44558e-17 -0.290283
    outer loop
      vertex 2.95957 0 9.60478
      vertex 2.95957 7 9.60478
      vertex 3.13597 0 10.1863
    endloop
  endfacet
  facet normal 0.995185 2.17643e-17 -0.0980177
    outer loop
      vertex 2.9 7 9
      vertex 2.95957 7 9.60478
      vertex 2.95957 0 9.60478
    endloop
  endfacet
  facet normal 0.995185 2.17643e-17 -0.0980177
    outer loop
      vertex 2.9 0 9
      vertex 2.9 7 9
      vertex 2.95957 0 9.60478
    endloop
  endfacet
  facet normal 0.956941 -6.44558e-17 0.290283
    outer loop
      vertex 33.136 0 7.81368
      vertex 33.136 7 7.81368
      vertex 32.9596 7 8.39522
    endloop
  endfacet
  facet normal 0.956941 -6.44558e-17 0.290283
    outer loop
      vertex 32.9596 0 8.39522
      vertex 33.136 0 7.81368
      vertex 32.9596 7 8.39522
    endloop
  endfacet
  facet normal 0.995185 -2.17643e-17 0.0980177
    outer loop
      vertex 32.9596 0 8.39522
      vertex 32.9596 7 8.39522
      vertex 32.9 7 9
    endloop
  endfacet
  facet normal 0.995185 -2.17643e-17 0.0980177
    outer loop
      vertex 32.9 0 9
      vertex 32.9596 0 8.39522
      vertex 32.9 7 9
    endloop
  endfacet
  facet normal 0.881921 -1.04671e-16 0.471397
    outer loop
      vertex 33.4224 0 7.27773
      vertex 33.4224 7 7.27773
      vertex 33.136 7 7.81368
    endloop
  endfacet
  facet normal 0.881921 -1.04671e-16 0.471397
    outer loop
      vertex 33.136 0 7.81368
      vertex 33.4224 0 7.27773
      vertex 33.136 7 7.81368
    endloop
  endfacet
  facet normal 0.77301 -1.40864e-16 0.634394
    outer loop
      vertex 33.808 0 6.80797
      vertex 33.808 7 6.80797
      vertex 33.4224 7 7.27773
    endloop
  endfacet
  facet normal 0.77301 -1.40864e-16 0.634394
    outer loop
      vertex 33.4224 0 7.27773
      vertex 33.808 0 6.80797
      vertex 33.4224 7 7.27773
    endloop
  endfacet
  facet normal 0.634394 -1.71643e-16 0.77301
    outer loop
      vertex 34.2777 0 6.42244
      vertex 34.2777 7 6.42244
      vertex 33.808 7 6.80797
    endloop
  endfacet
  facet normal 0.634394 -1.71643e-16 0.77301
    outer loop
      vertex 33.808 0 6.80797
      vertex 34.2777 0 6.42244
      vertex 33.808 7 6.80797
    endloop
  endfacet
  facet normal 0.471397 -1.95826e-16 0.881921
    outer loop
      vertex 34.8137 0 6.13597
      vertex 34.8137 7 6.13597
      vertex 34.2777 7 6.42244
    endloop
  endfacet
  facet normal 0.471397 -1.95826e-16 0.881921
    outer loop
      vertex 34.2777 0 6.42244
      vertex 34.8137 0 6.13597
      vertex 34.2777 7 6.42244
    endloop
  endfacet
  facet normal 0.290283 -2.12484e-16 0.956941
    outer loop
      vertex 35.3952 0 5.95957
      vertex 35.3952 7 5.95957
      vertex 34.8137 7 6.13597
    endloop
  endfacet
  facet normal 0.290283 -2.12484e-16 0.956941
    outer loop
      vertex 34.8137 0 6.13597
      vertex 35.3952 0 5.95957
      vertex 34.8137 7 6.13597
    endloop
  endfacet
  facet normal 0.0980177 -2.20975e-16 0.995185
    outer loop
      vertex 36 0 5.9
      vertex 36 7 5.9
      vertex 35.3952 7 5.95957
    endloop
  endfacet
  facet normal 0.0980177 -2.20975e-16 0.995185
    outer loop
      vertex 35.3952 0 5.95957
      vertex 36 0 5.9
      vertex 35.3952 7 5.95957
    endloop
  endfacet
  facet normal -0.0980177 -2.20975e-16 0.995185
    outer loop
      vertex 36.6048 0 5.95957
      vertex 36.6048 7 5.95957
      vertex 36 7 5.9
    endloop
  endfacet
  facet normal -0.0980177 -2.20975e-16 0.995185
    outer loop
      vertex 36 0 5.9
      vertex 36.6048 0 5.95957
      vertex 36 7 5.9
    endloop
  endfacet
  facet normal -0.290283 -2.12484e-16 0.956941
    outer loop
      vertex 37.1863 0 6.13597
      vertex 37.1863 7 6.13597
      vertex 36.6048 7 5.95957
    endloop
  endfacet
  facet normal -0.290283 -2.12484e-16 0.956941
    outer loop
      vertex 36.6048 0 5.95957
      vertex 37.1863 0 6.13597
      vertex 36.6048 7 5.95957
    endloop
  endfacet
  facet normal -0.471397 -1.95826e-16 0.881921
    outer loop
      vertex 37.7223 0 6.42244
      vertex 37.7223 7 6.42244
      vertex 37.1863 7 6.13597
    endloop
  endfacet
  facet normal -0.471397 -1.95826e-16 0.881921
    outer loop
      vertex 37.1863 0 6.13597
      vertex 37.7223 0 6.42244
      vertex 37.1863 7 6.13597
    endloop
  endfacet
  facet normal -0.634394 -1.71643e-16 0.77301
    outer loop
      vertex 38.192 0 6.80797
      vertex 38.192 7 6.80797
      vertex 37.7223 7 6.42244
    endloop
  endfacet
  facet normal -0.634394 -1.71643e-16 0.77301
    outer loop
      vertex 37.7223 0 6.42244
      vertex 38.192 0 6.80797
      vertex 37.7223 7 6.42244
    endloop
  endfacet
  facet normal -0.77301 -1.40864e-16 0.634394
    outer loop
      vertex 38.5776 7 7.27773
      vertex 38.192 7 6.80797
      vertex 38.5776 0 7.27773
    endloop
  endfacet
  facet normal -0.77301 -1.40864e-16 0.634394
    outer loop
      vertex 38.5776 0 7.27773
      vertex 38.192 7 6.80797
      vertex 38.192 0 6.80797
    endloop
  endfacet
  facet normal -0.881921 -1.04671e-16 0.471397
    outer loop
      vertex 38.864 7 7.81368
      vertex 38.5776 7 7.27773
      vertex 38.864 0 7.81368
    endloop
  endfacet
  facet normal -0.881921 -1.04671e-16 0.471397
    outer loop
      vertex 38.864 0 7.81368
      vertex 38.5776 7 7.27773
      vertex 38.5776 0 7.27773
    endloop
  endfacet
  facet normal -0.956941 -6.44558e-17 0.290283
    outer loop
      vertex 39.0404 7 8.39522
      vertex 38.864 7 7.81368
      vertex 39.0404 0 8.39522
    endloop
  endfacet
  facet normal -0.956941 -6.44558e-17 0.290283
    outer loop
      vertex 39.0404 0 8.39522
      vertex 38.864 7 7.81368
      vertex 38.864 0 7.81368
    endloop
  endfacet
  facet normal -0.995185 -2.17643e-17 0.0980177
    outer loop
      vertex 39.1 7 9
      vertex 39.0404 7 8.39522
      vertex 39.1 0 9
    endloop
  endfacet
  facet normal -0.995185 -2.17643e-17 0.0980177
    outer loop
      vertex 39.1 0 9
      vertex 39.0404 7 8.39522
      vertex 39.0404 0 8.39522
    endloop
  endfacet
  facet normal -0.995185 2.17643e-17 -0.0980177
    outer loop
      vertex 39.1 7 9
      vertex 39.1 0 9
      vertex 39.0404 7 9.60478
    endloop
  endfacet
  facet normal -0.995185 2.17643e-17 -0.0980177
    outer loop
      vertex 39.0404 7 9.60478
      vertex 39.1 0 9
      vertex 39.0404 0 9.60478
    endloop
  endfacet
  facet normal -0.956941 6.44558e-17 -0.290283
    outer loop
      vertex 39.0404 7 9.60478
      vertex 39.0404 0 9.60478
      vertex 38.864 7 10.1863
    endloop
  endfacet
  facet normal -0.956941 6.44558e-17 -0.290283
    outer loop
      vertex 38.864 7 10.1863
      vertex 39.0404 0 9.60478
      vertex 38.864 0 10.1863
    endloop
  endfacet
  facet normal -0.881921 1.04671e-16 -0.471397
    outer loop
      vertex 38.864 7 10.1863
      vertex 38.864 0 10.1863
      vertex 38.5776 7 10.7223
    endloop
  endfacet
  facet normal -0.881921 1.04671e-16 -0.471397
    outer loop
      vertex 38.5776 7 10.7223
      vertex 38.864 0 10.1863
      vertex 38.5776 0 10.7223
    endloop
  endfacet
  facet normal -0.77301 1.40864e-16 -0.634394
    outer loop
      vertex 38.5776 7 10.7223
      vertex 38.5776 0 10.7223
      vertex 38.192 7 11.192
    endloop
  endfacet
  facet normal -0.77301 1.40864e-16 -0.634394
    outer loop
      vertex 38.192 7 11.192
      vertex 38.5776 0 10.7223
      vertex 38.192 0 11.192
    endloop
  endfacet
  facet normal -0.634394 1.71643e-16 -0.77301
    outer loop
      vertex 38.192 7 11.192
      vertex 38.192 0 11.192
      vertex 37.7223 7 11.5776
    endloop
  endfacet
  facet normal -0.634394 1.71643e-16 -0.77301
    outer loop
      vertex 37.7223 7 11.5776
      vertex 38.192 0 11.192
      vertex 37.7223 0 11.5776
    endloop
  endfacet
  facet normal -0.471397 1.95826e-16 -0.881921
    outer loop
      vertex 37.7223 7 11.5776
      vertex 37.7223 0 11.5776
      vertex 37.1863 7 11.864
    endloop
  endfacet
  facet normal -0.471397 1.95826e-16 -0.881921
    outer loop
      vertex 37.1863 7 11.864
      vertex 37.7223 0 11.5776
      vertex 37.1863 0 11.864
    endloop
  endfacet
  facet normal -0.290283 2.12484e-16 -0.956941
    outer loop
      vertex 37.1863 7 11.864
      vertex 37.1863 0 11.864
      vertex 36.6048 7 12.0404
    endloop
  endfacet
  facet normal -0.290283 2.12484e-16 -0.956941
    outer loop
      vertex 36.6048 7 12.0404
      vertex 37.1863 0 11.864
      vertex 36.6048 0 12.0404
    endloop
  endfacet
  facet normal -0.0980177 2.20975e-16 -0.995185
    outer loop
      vertex 36.6048 7 12.0404
      vertex 36.6048 0 12.0404
      vertex 36 7 12.1
    endloop
  endfacet
  facet normal -0.0980177 2.20975e-16 -0.995185
    outer loop
      vertex 36 7 12.1
      vertex 36.6048 0 12.0404
      vertex 36 0 12.1
    endloop
  endfacet
  facet normal 0.0980177 2.20975e-16 -0.995185
    outer loop
      vertex 36 7 12.1
      vertex 36 0 12.1
      vertex 35.3952 7 12.0404
    endloop
  endfacet
  facet normal 0.0980177 2.20975e-16 -0.995185
    outer loop
      vertex 35.3952 7 12.0404
      vertex 36 0 12.1
      vertex 35.3952 0 12.0404
    endloop
  endfacet
  facet normal 0.290283 2.12484e-16 -0.956941
    outer loop
      vertex 35.3952 7 12.0404
      vertex 35.3952 0 12.0404
      vertex 34.8137 7 11.864
    endloop
  endfacet
  facet normal 0.290283 2.12484e-16 -0.956941
    outer loop
      vertex 34.8137 7 11.864
      vertex 35.3952 0 12.0404
      vertex 34.8137 0 11.864
    endloop
  endfacet
  facet normal 0.471397 1.95826e-16 -0.881921
    outer loop
      vertex 34.8137 7 11.864
      vertex 34.8137 0 11.864
      vertex 34.2777 7 11.5776
    endloop
  endfacet
  facet normal 0.471397 1.95826e-16 -0.881921
    outer loop
      vertex 34.2777 7 11.5776
      vertex 34.8137 0 11.864
      vertex 34.2777 0 11.5776
    endloop
  endfacet
  facet normal 0.634394 1.71643e-16 -0.77301
    outer loop
      vertex 34.2777 7 11.5776
      vertex 34.2777 0 11.5776
      vertex 33.808 7 11.192
    endloop
  endfacet
  facet normal 0.634394 1.71643e-16 -0.77301
    outer loop
      vertex 33.808 7 11.192
      vertex 34.2777 0 11.5776
      vertex 33.808 0 11.192
    endloop
  endfacet
  facet normal 0.77301 1.40864e-16 -0.634394
    outer loop
      vertex 33.4224 7 10.7223
      vertex 33.808 7 11.192
      vertex 33.808 0 11.192
    endloop
  endfacet
  facet normal 0.77301 1.40864e-16 -0.634394
    outer loop
      vertex 33.4224 0 10.7223
      vertex 33.4224 7 10.7223
      vertex 33.808 0 11.192
    endloop
  endfacet
  facet normal 0.881921 1.04671e-16 -0.471397
    outer loop
      vertex 33.136 7 10.1863
      vertex 33.4224 7 10.7223
      vertex 33.4224 0 10.7223
    endloop
  endfacet
  facet normal 0.881921 1.04671e-16 -0.471397
    outer loop
      vertex 33.136 0 10.1863
      vertex 33.136 7 10.1863
      vertex 33.4224 0 10.7223
    endloop
  endfacet
  facet normal 0.956941 6.44558e-17 -0.290283
    outer loop
      vertex 32.9596 7 9.60478
      vertex 33.136 7 10.1863
      vertex 33.136 0 10.1863
    endloop
  endfacet
  facet normal 0.956941 6.44558e-17 -0.290283
    outer loop
      vertex 32.9596 0 9.60478
      vertex 32.9596 7 9.60478
      vertex 33.136 0 10.1863
    endloop
  endfacet
  facet normal 0.995185 2.17643e-17 -0.0980177
    outer loop
      vertex 32.9 7 9
      vertex 32.9596 7 9.60478
      vertex 32.9596 0 9.60478
    endloop
  endfacet
  facet normal 0.995185 2.17643e-17 -0.0980177
    outer loop
      vertex 32.9 0 9
      vertex 32.9 7 9
      vertex 32.9596 0 9.60478
    endloop
  endfacet
  facet normal 0.707107 0.707107 0
    outer loop
      vertex 42 5.5 18
      vertex 42 5.5 0
      vertex 40.5 7 18
    endloop
  endfacet
  facet normal 0.707107 0.707107 0
    outer loop
      vertex 40.5 7 18
      vertex 42 5.5 0
      vertex 40.5 7 0
    endloop
  endfacet
  facet normal 0 1 0
    outer loop
      vertex 37.7223 7 11.5776
      vertex 29 7 18
      vertex 40.5 7 18
    endloop
  endfacet
  facet normal 0 1 0
    outer loop
      vertex 29 7 0
      vertex 29 7 18
      vertex 32.9 7 9
    endloop
  endfacet
  facet normal 0 1 0
    outer loop
      vertex 29 7 0
      vertex 32.9 7 9
      vertex 32.9596 7 8.39522
    endloop
  endfacet
  facet normal 0 1 0
    outer loop
      vertex 29 7 0
      vertex 32.9596 7 8.39522
      vertex 33.136 7 7.81368
    endloop
  endfacet
  facet normal 0 1 0
    outer loop
      vertex 29 7 0
      vertex 33.136 7 7.81368
      vertex 33.4224 7 7.27773
    endloop
  endfacet
  facet normal 0 1 0
    outer loop
      vertex 29 7 0
      vertex 33.4224 7 7.27773
      vertex 33.808 7 6.80797
    endloop
  endfacet
  facet normal 0 1 0
    outer loop
      vertex 29 7 0
      vertex 33.808 7 6.80797
      vertex 40.5 7 0
    endloop
  endfacet
  facet normal 0 1 0
    outer loop
      vertex 34.8137 7 6.13597
      vertex 40.5 7 0
      vertex 34.2777 7 6.42244
    endloop
  endfacet
  facet normal 0 1 0
    outer loop
      vertex 35.3952 7 5.95957
      vertex 40.5 7 0
      vertex 34.8137 7 6.13597
    endloop
  endfacet
  facet normal 0 1 0
    outer loop
      vertex 36 7 5.9
      vertex 40.5 7 0
      vertex 35.3952 7 5.95957
    endloop
  endfacet
  facet normal 0 1 0
    outer loop
      vertex 37.1863 7 6.13597
      vertex 40.5 7 0
      vertex 36.6048 7 5.95957
    endloop
  endfacet
  facet normal 0 1 0
    outer loop
      vertex 33.136 7 10.1863
      vertex 29 7 18
      vertex 33.4224 7 10.7223
    endloop
  endfacet
  facet normal 0 1 0
    outer loop
      vertex 36 7 5.9
      vertex 36.6048 7 5.95957
      vertex 40.5 7 0
    endloop
  endfacet
  facet normal 0 1 0
    outer loop
      vertex 39.0404 7 9.60478
      vertex 40.5 7 18
      vertex 39.1 7 9
    endloop
  endfacet
  facet normal 0 1 0
    outer loop
      vertex 40.5 7 0
      vertex 37.1863 7 6.13597
      vertex 37.7223 7 6.42244
    endloop
  endfacet
  facet normal 0 1 0
    outer loop
      vertex 40.5 7 0
      vertex 37.7223 7 6.42244
      vertex 38.192 7 6.80797
    endloop
  endfacet
  facet normal 0 1 0
    outer loop
      vertex 40.5 7 0
      vertex 38.192 7 6.80797
      vertex 38.5776 7 7.27773
    endloop
  endfacet
  facet normal 0 1 0
    outer loop
      vertex 40.5 7 0
      vertex 38.5776 7 7.27773
      vertex 38.864 7 7.81368
    endloop
  endfacet
  facet normal 0 1 0
    outer loop
      vertex 40.5 7 0
      vertex 38.864 7 7.81368
      vertex 39.0404 7 8.39522
    endloop
  endfacet
  facet normal 0 1 0
    outer loop
      vertex 40.5 7 0
      vertex 39.0404 7 8.39522
      vertex 40.5 7 18
    endloop
  endfacet
  facet normal 0 1 0
    outer loop
      vertex 39.0404 7 8.39522
      vertex 39.1 7 9
      vertex 40.5 7 18
    endloop
  endfacet
  facet normal 0 1 0
    outer loop
      vertex 38.864 7 10.1863
      vertex 40.5 7 18
      vertex 39.0404 7 9.60478
    endloop
  endfacet
  facet normal 0 1 0
    outer loop
      vertex 38.5776 7 10.7223
      vertex 40.5 7 18
      vertex 38.864 7 10.1863
    endloop
  endfacet
  facet normal 0 1 0
    outer loop
      vertex 38.192 7 11.192
      vertex 40.5 7 18
      vertex 38.5776 7 10.7223
    endloop
  endfacet
  facet normal 0 1 0
    outer loop
      vertex 33.4224 7 10.7223
      vertex 29 7 18
      vertex 33.808 7 11.192
    endloop
  endfacet
  facet normal 0 1 0
    outer loop
      vertex 37.1863 7 11.864
      vertex 29 7 18
      vertex 37.7223 7 11.5776
    endloop
  endfacet
  facet normal 0 1 0
    outer loop
      vertex 38.192 7 11.192
      vertex 37.7223 7 11.5776
      vertex 40.5 7 18
    endloop
  endfacet
  facet normal 0 1 0
    outer loop
      vertex 36.6048 7 12.0404
      vertex 29 7 18
      vertex 37.1863 7 11.864
    endloop
  endfacet
  facet normal 0 1 0
    outer loop
      vertex 36 7 12.1
      vertex 29 7 18
      vertex 36.6048 7 12.0404
    endloop
  endfacet
  facet normal 0 1 0
    outer loop
      vertex 35.3952 7 12.0404
      vertex 29 7 18
      vertex 36 7 12.1
    endloop
  endfacet
  facet normal 0 1 0
    outer loop
      vertex 34.8137 7 11.864
      vertex 29 7 18
      vertex 35.3952 7 12.0404
    endloop
  endfacet
  facet normal 0 1 0
    outer loop
      vertex 34.2777 7 11.5776
      vertex 29 7 18
      vertex 34.8137 7 11.864
    endloop
  endfacet
  facet normal 0 1 0
    outer loop
      vertex 33.808 7 11.192
      vertex 29 7 18
      vertex 34.2777 7 11.5776
    endloop
  endfacet
  facet normal 0 1 0
    outer loop
      vertex 32.9596 7 9.60478
      vertex 29 7 18
      vertex 33.136 7 10.1863
    endloop
  endfacet
  facet normal 0 1 0
    outer loop
      vertex 32.9 7 9
      vertex 29 7 18
      vertex 32.9596 7 9.60478
    endloop
  endfacet
  facet normal 0 1 0
    outer loop
      vertex 34.2777 7 6.42244
      vertex 40.5 7 0
      vertex 33.808 7 6.80797
    endloop
  endfacet
  facet normal 1 0 0
    outer loop
      vertex 29 8.3 7
      vertex 29 7 0
      vertex 29 15.5 0
    endloop
  endfacet
  facet normal 1 0 0
    outer loop
      vertex 29 15.5 18
      vertex 29 7 18
      vertex 29 15.5 0
    endloop
  endfacet
  facet normal 1 0 0
    outer loop
      vertex 29 10.4 7
      vertex 29 8.3 7
      vertex 29 15.5 0
    endloop
  endfacet
  facet normal 1 0 0
    outer loop
      vertex 29 7 18
      vertex 29 7 0
      vertex 29 8.3 7
    endloop
  endfacet
  facet normal 1 0 0
    outer loop
      vertex 29 7 18
      vertex 29 8.3 7
      vertex 29 8.3 10.5
    endloop
  endfacet
  facet normal 1 0 0
    outer loop
      vertex 29 7 18
      vertex 29 10.4 10.5
      vertex 29 15.5 0
    endloop
  endfacet
  facet normal 1 0 0
    outer loop
      vertex 29 7 18
      vertex 29 8.3 10.5
      vertex 29 10.4 10.5
    endloop
  endfacet
  facet normal 1 0 0
    outer loop
      vertex 29 10.4 10.5
      vertex 29 10.4 7
      vertex 29 15.5 0
    endloop
  endfacet
  facet normal 0.707107 0.707107 0
    outer loop
      vertex 29 15.5 18
      vertex 29 15.5 0
      vertex 27 17.5 18
    endloop
  endfacet
  facet normal 0.707107 0.707107 0
    outer loop
      vertex 27 17.5 18
      vertex 29 15.5 0
      vertex 27 17.5 0
    endloop
  endfacet
  facet normal 0 1 0
    outer loop
      vertex 15 17.5 0
      vertex 15 17.5 18
      vertex 17.2287 17.5 0
    endloop
  endfacet
  facet normal 0 1 0
    outer loop
      vertex 24.7713 17.5 13.9
      vertex 15 17.5 18
      vertex 27 17.5 18
    endloop
  endfacet
  facet normal 0 1 0
    outer loop
      vertex 24.7713 17.5 0
      vertex 27 17.5 18
      vertex 27 17.5 0
    endloop
  endfacet
  facet normal 0 1 0
    outer loop
      vertex 17.2287 17.5 13.9
      vertex 15 17.5 18
      vertex 24.7713 17.5 13.9
    endloop
  endfacet
  facet normal 0 1 0
    outer loop
      vertex 17.2287 17.5 0
      vertex 15 17.5 18
      vertex 17.2287 17.5 13.9
    endloop
  endfacet
  facet normal 0 1 0
    outer loop
      vertex 24.7713 17.5 13.9
      vertex 27 17.5 18
      vertex 24.7713 17.5 0
    endloop
  endfacet
  facet normal -0.881921 -0.471397 0
    outer loop
      vertex 24.7879 17.469 13.9
      vertex 24.7713 17.5 13.9
      vertex 24.7879 17.469 0
    endloop
  endfacet
  facet normal -0.881921 -0.471397 0
    outer loop
      vertex 24.7879 17.469 0
      vertex 24.7713 17.5 13.9
      vertex 24.7713 17.5 0
    endloop
  endfacet
  facet normal -0.95694 -0.290285 0
    outer loop
      vertex 25.0212 16.6999 13.9
      vertex 24.7879 17.469 13.9
      vertex 25.0212 16.6999 0
    endloop
  endfacet
  facet normal -0.95694 -0.290285 0
    outer loop
      vertex 25.0212 16.6999 0
      vertex 24.7879 17.469 13.9
      vertex 24.7879 17.469 0
    endloop
  endfacet
  facet normal -0.995185 -0.0980167 0
    outer loop
      vertex 25.1 15.9 13.9
      vertex 25.0212 16.6999 13.9
      vertex 25.1 15.9 0
    endloop
  endfacet
  facet normal -0.995185 -0.0980167 0
    outer loop
      vertex 25.1 15.9 0
      vertex 25.0212 16.6999 13.9
      vertex 25.0212 16.6999 0
    endloop
  endfacet
  facet normal -0.995185 0.0980167 0
    outer loop
      vertex 25.1 15.9 13.9
      vertex 25.1 15.9 0
      vertex 25.0212 15.1001 13.9
    endloop
  endfacet
  facet normal -0.995185 0.0980167 0
    outer loop
      vertex 25.0212 15.1001 13.9
      vertex 25.1 15.9 0
      vertex 25.0212 15.1001 0
    endloop
  endfacet
  facet normal -0.95694 0.290285 0
    outer loop
      vertex 25.0212 15.1001 13.9
      vertex 25.0212 15.1001 0
      vertex 24.7879 14.331 13.9
    endloop
  endfacet
  facet normal -0.95694 0.290285 0
    outer loop
      vertex 24.7879 14.331 13.9
      vertex 25.0212 15.1001 0
      vertex 24.7879 14.331 0
    endloop
  endfacet
  facet normal -0.881921 0.471397 0
    outer loop
      vertex 24.7879 14.331 13.9
      vertex 24.7879 14.331 0
      vertex 24.409 13.6222 13.9
    endloop
  endfacet
  facet normal -0.881921 0.471397 0
    outer loop
      vertex 24.409 13.6222 13.9
      vertex 24.7879 14.331 0
      vertex 24.409 13.6222 0
    endloop
  endfacet
  facet normal -0.773011 0.634393 0
    outer loop
      vertex 24.409 13.6222 13.9
      vertex 24.409 13.6222 0
      vertex 23.8991 13.0009 13.9
    endloop
  endfacet
  facet normal -0.773011 0.634393 0
    outer loop
      vertex 23.8991 13.0009 13.9
      vertex 24.409 13.6222 0
      vertex 23.8991 13.0009 0
    endloop
  endfacet
  facet normal -0.634393 0.773011 0
    outer loop
      vertex 23.8991 13.0009 13.9
      vertex 23.8991 13.0009 0
      vertex 23.2778 12.491 13.9
    endloop
  endfacet
  facet normal -0.634393 0.773011 0
    outer loop
      vertex 23.2778 12.491 13.9
      vertex 23.8991 13.0009 0
      vertex 23.2778 12.491 0
    endloop
  endfacet
  facet normal -0.471397 0.881921 0
    outer loop
      vertex 23.2778 12.491 13.9
      vertex 23.2778 12.491 0
      vertex 22.569 12.1121 13.9
    endloop
  endfacet
  facet normal -0.471397 0.881921 0
    outer loop
      vertex 22.569 12.1121 13.9
      vertex 23.2778 12.491 0
      vertex 22.569 12.1121 0
    endloop
  endfacet
  facet normal -0.290285 0.95694 0
    outer loop
      vertex 22.569 12.1121 13.9
      vertex 22.569 12.1121 0
      vertex 21.7999 11.8788 13.9
    endloop
  endfacet
  facet normal -0.290285 0.95694 0
    outer loop
      vertex 21.7999 11.8788 13.9
      vertex 22.569 12.1121 0
      vertex 21.7999 11.8788 0
    endloop
  endfacet
  facet normal -0.0980167 0.995185 0
    outer loop
      vertex 21.7999 11.8788 13.9
      vertex 21.7999 11.8788 0
      vertex 21 11.8 13.9
    endloop
  endfacet
  facet normal -0.0980167 0.995185 0
    outer loop
      vertex 21 11.8 13.9
      vertex 21.7999 11.8788 0
      vertex 21 11.8 0
    endloop
  endfacet
  facet normal 0.0980167 0.995185 0
    outer loop
      vertex 21 11.8 13.9
      vertex 21 11.8 0
      vertex 20.2001 11.8788 13.9
    endloop
  endfacet
  facet normal 0.0980167 0.995185 0
    outer loop
      vertex 20.2001 11.8788 13.9
      vertex 21 11.8 0
      vertex 20.2001 11.8788 0
    endloop
  endfacet
  facet normal 0.290285 0.95694 0
    outer loop
      vertex 20.2001 11.8788 13.9
      vertex 20.2001 11.8788 0
      vertex 19.431 12.1121 13.9
    endloop
  endfacet
  facet normal 0.290285 0.95694 0
    outer loop
      vertex 19.431 12.1121 13.9
      vertex 20.2001 11.8788 0
      vertex 19.431 12.1121 0
    endloop
  endfacet
  facet normal 0.471397 0.881921 0
    outer loop
      vertex 19.431 12.1121 13.9
      vertex 19.431 12.1121 0
      vertex 18.7222 12.491 13.9
    endloop
  endfacet
  facet normal 0.471397 0.881921 0
    outer loop
      vertex 18.7222 12.491 13.9
      vertex 19.431 12.1121 0
      vertex 18.7222 12.491 0
    endloop
  endfacet
  facet normal 0.634393 0.773011 0
    outer loop
      vertex 18.7222 12.491 13.9
      vertex 18.7222 12.491 0
      vertex 18.1009 13.0009 13.9
    endloop
  endfacet
  facet normal 0.634393 0.773011 0
    outer loop
      vertex 18.1009 13.0009 13.9
      vertex 18.7222 12.491 0
      vertex 18.1009 13.0009 0
    endloop
  endfacet
  facet normal 0.773011 0.634393 0
    outer loop
      vertex 17.591 13.6222 13.9
      vertex 18.1009 13.0009 13.9
      vertex 18.1009 13.0009 0
    endloop
  endfacet
  facet normal 0.773011 0.634393 0
    outer loop
      vertex 17.591 13.6222 0
      vertex 17.591 13.6222 13.9
      vertex 18.1009 13.0009 0
    endloop
  endfacet
  facet normal 0.881921 0.471397 0
    outer loop
      vertex 17.2121 14.331 13.9
      vertex 17.591 13.6222 13.9
      vertex 17.591 13.6222 0
    endloop
  endfacet
  facet normal 0.881921 0.471397 0
    outer loop
      vertex 17.2121 14.331 0
      vertex 17.2121 14.331 13.9
      vertex 17.591 13.6222 0
    endloop
  endfacet
  facet normal 0.95694 0.290285 0
    outer loop
      vertex 16.9788 15.1001 13.9
      vertex 17.2121 14.331 13.9
      vertex 17.2121 14.331 0
    endloop
  endfacet
  facet normal 0.95694 0.290285 0
    outer loop
      vertex 16.9788 15.1001 0
      vertex 16.9788 15.1001 13.9
      vertex 17.2121 14.331 0
    endloop
  endfacet
  facet normal 0.995185 0.0980167 0
    outer loop
      vertex 16.9 15.9 13.9
      vertex 16.9788 15.1001 13.9
      vertex 16.9788 15.1001 0
    endloop
  endfacet
  facet normal 0.995185 0.0980167 0
    outer loop
      vertex 16.9 15.9 0
      vertex 16.9 15.9 13.9
      vertex 16.9788 15.1001 0
    endloop
  endfacet
  facet normal 0.995185 -0.0980167 0
    outer loop
      vertex 16.9788 16.6999 0
      vertex 16.9788 16.6999 13.9
      vertex 16.9 15.9 13.9
    endloop
  endfacet
  facet normal 0.995185 -0.0980167 0
    outer loop
      vertex 16.9 15.9 0
      vertex 16.9788 16.6999 0
      vertex 16.9 15.9 13.9
    endloop
  endfacet
  facet normal 0.95694 -0.290285 0
    outer loop
      vertex 17.2121 17.469 0
      vertex 17.2121 17.469 13.9
      vertex 16.9788 16.6999 13.9
    endloop
  endfacet
  facet normal 0.95694 -0.290285 0
    outer loop
      vertex 16.9788 16.6999 0
      vertex 17.2121 17.469 0
      vertex 16.9788 16.6999 13.9
    endloop
  endfacet
  facet normal 0.881921 -0.471397 0
    outer loop
      vertex 17.2287 17.5 0
      vertex 17.2287 17.5 13.9
      vertex 17.2121 17.469 13.9
    endloop
  endfacet
  facet normal 0.881921 -0.471397 0
    outer loop
      vertex 17.2121 17.469 0
      vertex 17.2287 17.5 0
      vertex 17.2121 17.469 13.9
    endloop
  endfacet
  facet normal -0.707107 0.707107 0
    outer loop
      vertex 15 17.5 18
      vertex 15 17.5 0
      vertex 13 15.5 18
    endloop
  endfacet
  facet normal -0.707107 0.707107 0
    outer loop
      vertex 13 15.5 18
      vertex 15 17.5 0
      vertex 13 15.5 0
    endloop
  endfacet
  facet normal -1 0 0
    outer loop
      vertex 13 10.4 10.5
      vertex 13 7 18
      vertex 13 15.5 0
    endloop
  endfacet
  facet normal -1 0 0
    outer loop
      vertex 13 15.5 0
      vertex 13 7 18
      vertex 13 15.5 18
    endloop
  endfacet
  facet normal -1 0 0
    outer loop
      vertex 13 7 0
      vertex 13 7 18
      vertex 13 8.3 10.5
    endloop
  endfacet
  facet normal -1 0 0
    outer loop
      vertex 13 7 0
      vertex 13 8.3 10.5
      vertex 13 8.3 7
    endloop
  endfacet
  facet normal -1 0 0
    outer loop
      vertex 13 7 0
      vertex 13 8.3 7
      vertex 13 15.5 0
    endloop
  endfacet
  facet normal -1 0 0
    outer loop
      vertex 13 8.3 7
      vertex 13 10.4 7
      vertex 13 15.5 0
    endloop
  endfacet
  facet normal -1 0 0
    outer loop
      vertex 13 8.3 10.5
      vertex 13 7 18
      vertex 13 10.4 10.5
    endloop
  endfacet
  facet normal -1 0 0
    outer loop
      vertex 13 10.4 10.5
      vertex 13 15.5 0
      vertex 13 10.4 7
    endloop
  endfacet
  facet normal 0 1 0
    outer loop
      vertex 8.19203 7 11.192
      vertex 1.5 7 18
      vertex 13 7 18
    endloop
  endfacet
  facet normal 0 1 0
    outer loop
      vertex 1.5 7 0
      vertex 1.5 7 18
      vertex 2.9 7 9
    endloop
  endfacet
  facet normal 0 1 0
    outer loop
      vertex 1.5 7 0
      vertex 2.9 7 9
      vertex 2.95957 7 8.39522
    endloop
  endfacet
  facet normal 0 1 0
    outer loop
      vertex 1.5 7 0
      vertex 2.95957 7 8.39522
      vertex 3.13597 7 7.81368
    endloop
  endfacet
  facet normal 0 1 0
    outer loop
      vertex 1.5 7 0
      vertex 3.13597 7 7.81368
      vertex 3.42244 7 7.27773
    endloop
  endfacet
  facet normal 0 1 0
    outer loop
      vertex 1.5 7 0
      vertex 3.42244 7 7.27773
      vertex 3.80797 7 6.80797
    endloop
  endfacet
  facet normal 0 1 0
    outer loop
      vertex 1.5 7 0
      vertex 3.80797 7 6.80797
      vertex 4.27773 7 6.42244
    endloop
  endfacet
  facet normal 0 1 0
    outer loop
      vertex 1.5 7 0
      vertex 4.27773 7 6.42244
      vertex 13 7 0
    endloop
  endfacet
  facet normal 0 1 0
    outer loop
      vertex 5.39522 7 5.95957
      vertex 13 7 0
      vertex 4.81368 7 6.13597
    endloop
  endfacet
  facet normal 0 1 0
    outer loop
      vertex 6 7 5.9
      vertex 13 7 0
      vertex 5.39522 7 5.95957
    endloop
  endfacet
  facet normal 0 1 0
    outer loop
      vertex 6.60478 7 5.95957
      vertex 13 7 0
      vertex 6 7 5.9
    endloop
  endfacet
  facet normal 0 1 0
    outer loop
      vertex 8.57756 7 7.27773
      vertex 13 7 0
      vertex 8.19203 7 6.80797
    endloop
  endfacet
  facet normal 0 1 0
    outer loop
      vertex 3.80797 7 11.192
      vertex 1.5 7 18
      vertex 4.27773 7 11.5776
    endloop
  endfacet
  facet normal 0 1 0
    outer loop
      vertex 6.60478 7 5.95957
      vertex 7.18632 7 6.13597
      vertex 13 7 0
    endloop
  endfacet
  facet normal 0 1 0
    outer loop
      vertex 7.18632 7 6.13597
      vertex 7.72227 7 6.42244
      vertex 13 7 0
    endloop
  endfacet
  facet normal 0 1 0
    outer loop
      vertex 4.27773 7 11.5776
      vertex 1.5 7 18
      vertex 4.81368 7 11.864
    endloop
  endfacet
  facet normal 0 1 0
    outer loop
      vertex 7.72227 7 6.42244
      vertex 8.19203 7 6.80797
      vertex 13 7 0
    endloop
  endfacet
  facet normal 0 1 0
    outer loop
      vertex 4.81368 7 11.864
      vertex 1.5 7 18
      vertex 5.39522 7 12.0404
    endloop
  endfacet
  facet normal 0 1 0
    outer loop
      vertex 13 7 0
      vertex 8.57756 7 7.27773
      vertex 8.86403 7 7.81368
    endloop
  endfacet
  facet normal 0 1 0
    outer loop
      vertex 13 7 0
      vertex 8.86403 7 7.81368
      vertex 13 7 18
    endloop
  endfacet
  facet normal 0 1 0
    outer loop
      vertex 8.86403 7 7.81368
      vertex 9.04043 7 8.39522
      vertex 13 7 18
    endloop
  endfacet
  facet normal 0 1 0
    outer loop
      vertex 5.39522 7 12.0404
      vertex 1.5 7 18
      vertex 6 7 12.1
    endloop
  endfacet
  facet normal 0 1 0
    outer loop
      vertex 7.72227 7 11.5776
      vertex 1.5 7 18
      vertex 8.19203 7 11.192
    endloop
  endfacet
  facet normal 0 1 0
    outer loop
      vertex 6 7 12.1
      vertex 1.5 7 18
      vertex 6.60478 7 12.0404
    endloop
  endfacet
  facet normal 0 1 0
    outer loop
      vertex 9.1 7 9
      vertex 9.04043 7 9.60478
      vertex 13 7 18
    endloop
  endfacet
  facet normal 0 1 0
    outer loop
      vertex 6.60478 7 12.0404
      vertex 1.5 7 18
      vertex 7.18632 7 11.864
    endloop
  endfacet
  facet normal 0 1 0
    outer loop
      vertex 9.04043 7 9.60478
      vertex 8.86403 7 10.1863
      vertex 13 7 18
    endloop
  endfacet
  facet normal 0 1 0
    outer loop
      vertex 7.18632 7 11.864
      vertex 1.5 7 18
      vertex 7.72227 7 11.5776
    endloop
  endfacet
  facet normal 0 1 0
    outer loop
      vertex 8.86403 7 10.1863
      vertex 8.57756 7 10.7223
      vertex 13 7 18
    endloop
  endfacet
  facet normal 0 1 0
    outer loop
      vertex 8.57756 7 10.7223
      vertex 8.19203 7 11.192
      vertex 13 7 18
    endloop
  endfacet
  facet normal 0 1 0
    outer loop
      vertex 9.1 7 9
      vertex 13 7 18
      vertex 9.04043 7 8.39522
    endloop
  endfacet
  facet normal 0 1 0
    outer loop
      vertex 3.42244 7 10.7223
      vertex 1.5 7 18
      vertex 3.80797 7 11.192
    endloop
  endfacet
  facet normal 0 1 0
    outer loop
      vertex 3.13597 7 10.1863
      vertex 1.5 7 18
      vertex 3.42244 7 10.7223
    endloop
  endfacet
  facet normal 0 1 0
    outer loop
      vertex 2.95957 7 9.60478
      vertex 1.5 7 18
      vertex 3.13597 7 10.1863
    endloop
  endfacet
  facet normal 0 1 0
    outer loop
      vertex 2.9 7 9
      vertex 1.5 7 18
      vertex 2.95957 7 9.60478
    endloop
  endfacet
  facet normal 0 1 0
    outer loop
      vertex 4.81368 7 6.13597
      vertex 13 7 0
      vertex 4.27773 7 6.42244
    endloop
  endfacet
  facet normal 0 1 0
    outer loop
      vertex 29 8.3 10.5
      vertex 29 8.3 7
      vertex 13 8.3 10.5
    endloop
  endfacet
  facet normal 0 1 0
    outer loop
      vertex 13 8.3 10.5
      vertex 29 8.3 7
      vertex 13 8.3 7
    endloop
  endfacet
  facet normal 0 0 1
    outer loop
      vertex 29 8.3 7
      vertex 29 10.4 7
      vertex 13 10.4 7
    endloop
  endfacet
  facet normal 0 0 1
    outer loop
      vertex 13 8.3 7
      vertex 29 8.3 7
      vertex 13 10.4 7
    endloop
  endfacet
  facet normal 0 -1 0
    outer loop
      vertex 29 10.4 7
      vertex 29 10.4 10.5
      vertex 13 10.4 10.5
    endloop
  endfacet
  facet normal 0 -1 0
    outer loop
      vertex 13 10.4 7
      vertex 29 10.4 7
      vertex 13 10.4 10.5
    endloop
  endfacet
  facet normal 0 0 -1
    outer loop
      vertex 29 10.4 10.5
      vertex 29 8.3 10.5
      vertex 13 10.4 10.5
    endloop
  endfacet
  facet normal 0 0 -1
    outer loop
      vertex 13 10.4 10.5
      vertex 29 8.3 10.5
      vertex 13 8.3 10.5
    endloop
  endfacet
  facet normal 0 0 -1
    outer loop
      vertex 17.2121 17.469 13.9
      vertex 17.2287 17.5 13.9
      vertex 16.9788 16.6999 13.9
    endloop
  endfacet
  facet normal 0 0 -1
    outer loop
      vertex 16.9788 16.6999 13.9
      vertex 17.2287 17.5 13.9
      vertex 24.7713 17.5 13.9
    endloop
  endfacet
  facet normal 0 0 -1
    outer loop
      vertex 16.9788 16.6999 13.9
      vertex 24.7713 17.5 13.9
      vertex 24.7879 17.469 13.9
    endloop
  endfacet
  facet normal 0 0 -1
    outer loop
      vertex 16.9788 16.6999 13.9
      vertex 24.7879 17.469 13.9
      vertex 25.0212 16.6999 13.9
    endloop
  endfacet
  facet normal 0 0 -1
    outer loop
      vertex 16.9788 16.6999 13.9
      vertex 25.0212 16.6999 13.9
      vertex 25.1 15.9 13.9
    endloop
  endfacet
  facet normal 0 0 -1
    outer loop
      vertex 16.9788 16.6999 13.9
      vertex 25.1 15.9 13.9
      vertex 25.0212 15.1001 13.9
    endloop
  endfacet
  facet normal 0 0 -1
    outer loop
      vertex 16.9788 16.6999 13.9
      vertex 25.0212 15.1001 13.9
      vertex 24.7879 14.331 13.9
    endloop
  endfacet
  facet normal 0 0 -1
    outer loop
      vertex 16.9788 16.6999 13.9
      vertex 24.7879 14.331 13.9
      vertex 24.409 13.6222 13.9
    endloop
  endfacet
  facet normal 0 0 -1
    outer loop
      vertex 16.9788 16.6999 13.9
      vertex 24.409 13.6222 13.9
      vertex 23.8991 13.0009 13.9
    endloop
  endfacet
  facet normal 0 0 -1
    outer loop
      vertex 16.9788 16.6999 13.9
      vertex 23.8991 13.0009 13.9
      vertex 23.2778 12.491 13.9
    endloop
  endfacet
  facet normal 0 0 -1
    outer loop
      vertex 16.9788 16.6999 13.9
      vertex 23.2778 12.491 13.9
      vertex 22.569 12.1121 13.9
    endloop
  endfacet
  facet normal 0 0 -1
    outer loop
      vertex 16.9788 16.6999 13.9
      vertex 22.569 12.1121 13.9
      vertex 21.7999 11.8788 13.9
    endloop
  endfacet
  facet normal 0 0 -1
    outer loop
      vertex 16.9788 16.6999 13.9
      vertex 21.7999 11.8788 13.9
      vertex 21 11.8 13.9
    endloop
  endfacet
  facet normal 0 0 -1
    outer loop
      vertex 16.9788 16.6999 13.9
      vertex 21 11.8 13.9
      vertex 20.2001 11.8788 13.9
    endloop
  endfacet
  facet normal 0 0 -1
    outer loop
      vertex 16.9788 16.6999 13.9
      vertex 20.2001 11.8788 13.9
      vertex 19.431 12.1121 13.9
    endloop
  endfacet
  facet normal 0 0 -1
    outer loop
      vertex 16.9788 16.6999 13.9
      vertex 19.431 12.1121 13.9
      vertex 18.7222 12.491 13.9
    endloop
  endfacet
  facet normal 0 0 -1
    outer loop
      vertex 16.9788 16.6999 13.9
      vertex 18.7222 12.491 13.9
      vertex 18.1009 13.0009 13.9
    endloop
  endfacet
  facet normal 0 0 -1
    outer loop
      vertex 16.9788 16.6999 13.9
      vertex 18.1009 13.0009 13.9
      vertex 17.591 13.6222 13.9
    endloop
  endfacet
  facet normal 0 0 -1
    outer loop
      vertex 16.9788 16.6999 13.9
      vertex 17.591 13.6222 13.9
      vertex 17.2121 14.331 13.9
    endloop
  endfacet
  facet normal 0 0 -1
    outer loop
      vertex 16.9788 16.6999 13.9
      vertex 17.2121 14.331 13.9
      vertex 16.9788 15.1001 13.9
    endloop
  endfacet
  facet normal 0 0 -1
    outer loop
      vertex 16.9788 16.6999 13.9
      vertex 16.9788 15.1001 13.9
      vertex 16.9 15.9 13.9
    endloop
  endfacet
endsolid OpenSCAD_Model
